G04 EAGLE Gerber RS-274X export*
G75*
%MOMM*%
%FSLAX34Y34*%
%LPD*%
%INSoldermask Top*%
%IPPOS*%
%AMOC8*
5,1,8,0,0,1.08239X$1,22.5*%
G01*
%ADD10R,1.600200X1.295400*%
%ADD11R,1.295400X1.600200*%
%ADD12R,5.537200X2.133600*%
%ADD13C,1.711200*%
%ADD14R,1.676400X0.711200*%
%ADD15R,0.711200X1.676400*%
%ADD16C,9.203200*%
%ADD17C,4.503200*%
%ADD18P,1.759533X8X202.500000*%
%ADD19C,1.524000*%
%ADD20R,1.403200X1.403200*%
%ADD21P,1.759533X8X112.500000*%
%ADD22R,2.003200X2.303200*%
%ADD23R,0.903200X0.803200*%
%ADD24P,1.429621X8X22.500000*%
%ADD25P,1.429621X8X112.500000*%
%ADD26R,1.803200X2.803200*%
%ADD27C,1.009600*%
%ADD28C,0.909600*%
%ADD29C,1.209600*%


D10*
X358781Y297139D03*
X358781Y278343D03*
X376244Y289598D03*
X376244Y270802D03*
D11*
X365258Y242088D03*
X384054Y242088D03*
D12*
X406962Y318300D03*
X503482Y318300D03*
D13*
X520700Y140890D02*
X520700Y125810D01*
X495300Y125810D02*
X495300Y140890D01*
X469900Y140890D02*
X469900Y125810D01*
X444500Y125810D02*
X444500Y140890D01*
D14*
X334048Y239560D03*
X334048Y247434D03*
X334048Y255562D03*
X334048Y263436D03*
X334048Y271564D03*
X334048Y279438D03*
X334048Y287566D03*
X334048Y295440D03*
D15*
X320840Y308648D03*
X312966Y308648D03*
X304838Y308648D03*
X296964Y308648D03*
X288836Y308648D03*
X280962Y308648D03*
X272834Y308648D03*
X264960Y308648D03*
D14*
X251752Y295440D03*
X251752Y287566D03*
X251752Y279438D03*
X251752Y271564D03*
X251752Y263436D03*
X251752Y255562D03*
X251752Y247434D03*
X251752Y239560D03*
D15*
X264960Y226352D03*
X272834Y226352D03*
X280962Y226352D03*
X288836Y226352D03*
X296964Y226352D03*
X304838Y226352D03*
X312966Y226352D03*
X320840Y226352D03*
D16*
X500000Y50000D03*
D17*
X50000Y50000D03*
D18*
X105569Y315125D03*
X105569Y289725D03*
X80169Y315125D03*
X80169Y289725D03*
X54769Y315125D03*
X54769Y289725D03*
D13*
X45640Y190500D02*
X30560Y190500D01*
X30560Y215900D02*
X45640Y215900D01*
X45640Y117475D02*
X30560Y117475D01*
X30560Y142875D02*
X45640Y142875D01*
X406400Y45640D02*
X406400Y30560D01*
X381000Y30560D02*
X381000Y45640D01*
X355600Y45640D02*
X355600Y30560D01*
X330200Y30560D02*
X330200Y45640D01*
D19*
X146304Y215900D02*
X133096Y215900D01*
X133096Y190500D02*
X146304Y190500D01*
X146304Y63500D02*
X133096Y63500D01*
X133096Y38100D02*
X146304Y38100D01*
X146304Y165100D02*
X133096Y165100D01*
X133096Y139700D02*
X146304Y139700D01*
X146304Y88900D02*
X133096Y88900D01*
X133096Y114300D02*
X146304Y114300D01*
X209296Y38100D02*
X222504Y38100D01*
X222504Y63500D02*
X209296Y63500D01*
X209296Y88900D02*
X222504Y88900D01*
X222504Y114300D02*
X209296Y114300D01*
X209296Y139700D02*
X222504Y139700D01*
X222504Y165100D02*
X209296Y165100D01*
X209296Y190500D02*
X222504Y190500D01*
X222504Y215900D02*
X209296Y215900D01*
D10*
X330200Y98546D03*
X330200Y117342D03*
X304800Y117348D03*
X304800Y98552D03*
X355600Y98546D03*
X355600Y117342D03*
X381000Y117348D03*
X381000Y98552D03*
D13*
X298450Y45640D02*
X298450Y30560D01*
X273050Y30560D02*
X273050Y45640D01*
X520700Y189310D02*
X520700Y204390D01*
X495300Y204390D02*
X495300Y189310D01*
X469900Y189310D02*
X469900Y204390D01*
X444500Y204390D02*
X444500Y189310D01*
D10*
X438150Y49879D03*
X438150Y31083D03*
D11*
X323977Y187325D03*
X342773Y187325D03*
D20*
X342900Y204606D03*
X342900Y225606D03*
D10*
X243681Y193802D03*
X243681Y212598D03*
D21*
X469900Y241300D03*
X495300Y241300D03*
X520700Y241300D03*
X469900Y273050D03*
X495300Y273050D03*
X520700Y273050D03*
D22*
X402431Y271119D03*
X402431Y232119D03*
D23*
X402000Y151756D03*
X402000Y138756D03*
X423500Y145256D03*
X402000Y177950D03*
X402000Y164950D03*
X423500Y171450D03*
D10*
X76200Y212598D03*
X76200Y193802D03*
X95250Y212598D03*
X95250Y193802D03*
X95250Y117602D03*
X95250Y136398D03*
X76200Y117602D03*
X76200Y136398D03*
D11*
X428752Y249238D03*
X447548Y249238D03*
X365252Y222250D03*
X384048Y222250D03*
X428752Y269875D03*
X447548Y269875D03*
D24*
X223044Y282575D03*
X270669Y208756D03*
D25*
X279400Y325438D03*
X292894Y325438D03*
D26*
X270669Y109000D03*
X270669Y145000D03*
D27*
X360363Y265113D03*
X307181Y276225D03*
X269081Y242888D03*
X228600Y266700D03*
X246063Y331788D03*
X100806Y18256D03*
X18256Y103188D03*
X18256Y331788D03*
X456406Y18256D03*
X532606Y94456D03*
X342900Y152400D03*
X304800Y152400D03*
X241300Y177800D03*
X412750Y200819D03*
X453231Y307181D03*
X504031Y300038D03*
X311944Y255588D03*
X412750Y251619D03*
D28*
X309563Y184944D03*
D27*
X362744Y204788D03*
X457200Y212725D03*
X424656Y157956D03*
X457200Y158750D03*
X482600Y158750D03*
X69850Y150813D03*
X95250Y150813D03*
X95250Y171450D03*
X109538Y225425D03*
X159544Y196850D03*
X159544Y177800D03*
X184944Y196850D03*
X184944Y177800D03*
X160338Y101600D03*
X180181Y101600D03*
X190500Y38100D03*
X177800Y266700D03*
X122238Y326231D03*
X344488Y310356D03*
D28*
X444500Y283369D03*
D27*
X304800Y330200D03*
X242888Y83344D03*
X254000Y60325D03*
X245269Y121444D03*
X190500Y63500D03*
X401638Y192088D03*
X388144Y186531D03*
X395288Y96044D03*
X431800Y76200D03*
X381000Y152400D03*
X287338Y118269D03*
X285750Y152400D03*
X224631Y101600D03*
X180181Y139700D03*
X161925Y139700D03*
X19050Y247650D03*
X19050Y171450D03*
D28*
X355600Y130175D03*
X381000Y85725D03*
X243681Y224631D03*
X190500Y273844D03*
D27*
X406400Y215900D03*
X447675Y228600D03*
D28*
X426244Y112713D03*
X363538Y176213D03*
X424656Y182563D03*
X354806Y166688D03*
X424656Y134144D03*
X139700Y321475D03*
X139700Y283369D03*
X292100Y266700D03*
X321469Y211138D03*
X317500Y107950D03*
X330200Y202406D03*
X342900Y107950D03*
D27*
X95250Y225425D03*
X255588Y101600D03*
D29*
X82550Y177800D03*
X114300Y88900D03*
D28*
X298450Y197644D03*
X233363Y121444D03*
X297656Y210344D03*
D27*
X203200Y127000D03*
D29*
X110331Y135731D03*
D28*
X330200Y306388D03*
X312738Y322263D03*
M02*
