solid ascii
  facet normal -1.000000e+00 0.000000e+00 0.000000e+00
    outer loop
      vertex   -1.403842e+00 4.800000e+01 -5.725000e+01
      vertex   -1.403842e+00 -4.800000e+01 -5.725000e+01
      vertex   -1.403842e+00 -4.800000e+01 5.725000e+01
    endloop
  endfacet
  facet normal -1.000000e+00 0.000000e+00 0.000000e+00
    outer loop
      vertex   -1.403842e+00 -4.800000e+01 5.725000e+01
      vertex   -1.403842e+00 4.800000e+01 5.725000e+01
      vertex   -1.403842e+00 4.800000e+01 -5.725000e+01
    endloop
  endfacet
  facet normal 4.956353e-15 0.000000e+00 1.000000e+00
    outer loop
      vertex   -1.403842e+00 4.800000e+01 5.725000e+01
      vertex   -1.403842e+00 -4.800000e+01 5.725000e+01
      vertex   -3.841564e-03 -4.800000e+01 5.725000e+01
    endloop
  endfacet
  facet normal 4.956353e-15 -0.000000e+00 1.000000e+00
    outer loop
      vertex   -3.841564e-03 -4.800000e+01 5.725000e+01
      vertex   -3.841564e-03 4.800000e+01 5.725000e+01
      vertex   -1.403842e+00 4.800000e+01 5.725000e+01
    endloop
  endfacet
  facet normal 8.000000e-01 0.000000e+00 6.000000e-01
    outer loop
      vertex   -3.841564e-03 4.800000e+01 5.725000e+01
      vertex   -3.841564e-03 -4.800000e+01 5.725000e+01
      vertex   1.496158e+00 -4.800000e+01 5.525000e+01
    endloop
  endfacet
  facet normal 8.000000e-01 -0.000000e+00 6.000000e-01
    outer loop
      vertex   1.496158e+00 -4.800000e+01 5.525000e+01
      vertex   1.496158e+00 4.800000e+01 5.525000e+01
      vertex   -3.841564e-03 4.800000e+01 5.725000e+01
    endloop
  endfacet
  facet normal 0.000000e+00 -1.000000e+00 0.000000e+00
    outer loop
      vertex   1.496158e+00 -4.800000e+01 5.525000e+01
      vertex   -3.841564e-03 -4.800000e+01 5.725000e+01
      vertex   -1.403842e+00 -4.800000e+01 5.725000e+01
    endloop
  endfacet
  facet normal 0.000000e+00 -1.000000e+00 0.000000e+00
    outer loop
      vertex   1.496158e+00 -4.800000e+01 -5.525000e+01
      vertex   1.496158e+00 -4.800000e+01 5.525000e+01
      vertex   -1.403842e+00 -4.800000e+01 5.725000e+01
    endloop
  endfacet
  facet normal 0.000000e+00 -1.000000e+00 0.000000e+00
    outer loop
      vertex   -1.403842e+00 -4.800000e+01 5.725000e+01
      vertex   -1.403842e+00 -4.800000e+01 -5.725000e+01
      vertex   1.496158e+00 -4.800000e+01 -5.525000e+01
    endloop
  endfacet
  facet normal 0.000000e+00 -1.000000e+00 0.000000e+00
    outer loop
      vertex   -1.403842e+00 -4.800000e+01 -5.725000e+01
      vertex   -3.841564e-03 -4.800000e+01 -5.725000e+01
      vertex   1.496158e+00 -4.800000e+01 -5.525000e+01
    endloop
  endfacet
  facet normal 0.000000e+00 1.000000e+00 0.000000e+00
    outer loop
      vertex   -1.403842e+00 4.800000e+01 5.725000e+01
      vertex   -3.841564e-03 4.800000e+01 5.725000e+01
      vertex   1.496158e+00 4.800000e+01 5.525000e+01
    endloop
  endfacet
  facet normal 0.000000e+00 1.000000e+00 0.000000e+00
    outer loop
      vertex   -1.403842e+00 4.800000e+01 -5.725000e+01
      vertex   -1.403842e+00 4.800000e+01 5.725000e+01
      vertex   1.496158e+00 4.800000e+01 5.525000e+01
    endloop
  endfacet
  facet normal 0.000000e+00 1.000000e+00 0.000000e+00
    outer loop
      vertex   1.496158e+00 4.800000e+01 5.525000e+01
      vertex   1.496158e+00 4.800000e+01 -5.525000e+01
      vertex   -1.403842e+00 4.800000e+01 -5.725000e+01
    endloop
  endfacet
  facet normal 0.000000e+00 1.000000e+00 0.000000e+00
    outer loop
      vertex   1.496158e+00 4.800000e+01 -5.525000e+01
      vertex   -3.841564e-03 4.800000e+01 -5.725000e+01
      vertex   -1.403842e+00 4.800000e+01 -5.725000e+01
    endloop
  endfacet
  facet normal 1.000000e+00 0.000000e+00 1.216661e-16
    outer loop
      vertex   1.496158e+00 4.800000e+01 5.525000e+01
      vertex   1.496158e+00 -4.800000e+01 5.525000e+01
      vertex   1.496158e+00 -4.800000e+01 -5.525000e+01
    endloop
  endfacet
  facet normal 1.000000e+00 -0.000000e+00 1.216661e-16
    outer loop
      vertex   1.496158e+00 -4.800000e+01 -5.525000e+01
      vertex   1.496158e+00 4.800000e+01 -5.525000e+01
      vertex   1.496158e+00 4.800000e+01 5.525000e+01
    endloop
  endfacet
  facet normal 8.000000e-01 0.000000e+00 -6.000000e-01
    outer loop
      vertex   1.496158e+00 4.800000e+01 -5.525000e+01
      vertex   1.496158e+00 -4.800000e+01 -5.525000e+01
      vertex   -3.841564e-03 -4.800000e+01 -5.725000e+01
    endloop
  endfacet
  facet normal 8.000000e-01 0.000000e+00 -6.000000e-01
    outer loop
      vertex   -3.841564e-03 -4.800000e+01 -5.725000e+01
      vertex   -3.841564e-03 4.800000e+01 -5.725000e+01
      vertex   1.496158e+00 4.800000e+01 -5.525000e+01
    endloop
  endfacet
  facet normal 4.956353e-15 0.000000e+00 -1.000000e+00
    outer loop
      vertex   -3.841564e-03 4.800000e+01 -5.725000e+01
      vertex   -3.841564e-03 -4.800000e+01 -5.725000e+01
      vertex   -1.403842e+00 -4.800000e+01 -5.725000e+01
    endloop
  endfacet
  facet normal 4.956353e-15 0.000000e+00 -1.000000e+00
    outer loop
      vertex   -1.403842e+00 -4.800000e+01 -5.725000e+01
      vertex   -1.403842e+00 4.800000e+01 -5.725000e+01
      vertex   -3.841564e-03 4.800000e+01 -5.725000e+01
    endloop
  endfacet
endsolid
