M48
;GenerationSoftware,Autodesk,EAGLE,9.5.2*%
;CreationDate,2019-12-04T00:20:55Z*%
FMAT,2
ICI,OFF
METRIC,TZ,000.000
T8C0.300
T7C0.400
T6C0.600
T5C0.610
T4C0.813
T3C0.914
T2C1.000
T1C4.300
%
G90
M71
T1
X5000Y5000
X50000Y5000
T2
X46990Y13335
X49530Y13335
X40640Y3810
X38100Y3810
X52070Y13335
X35560Y3810
X33020Y3810
X52070Y19685
X44450Y13335
X44450Y19685
X46990Y19685
X49530Y19685
X27305Y3810
X29845Y3810
X3810Y19050
X3810Y21590
X3810Y11747
X3810Y14287
T3
X52070Y27305
X8017Y28972
X8017Y31512
X10557Y28972
X10557Y31512
X5477Y31512
X5477Y28972
X46990Y27305
X46990Y24130
X49530Y24130
X52070Y24130
X49530Y27305
T4
X21590Y19050
X21590Y6350
X21590Y8890
X21590Y11430
X21590Y13970
X21590Y16510
X21590Y21590
X13970Y6350
X13970Y19050
X13970Y21590
X13970Y16510
X13970Y13970
X13970Y8890
X13970Y3810
X13970Y11430
X21590Y3810
T5
X22304Y28257
X27067Y20876
X27940Y32544
X29289Y32544
T6
X8255Y17780
X11033Y13573
X11430Y8890
T7
X40164Y19209
X38814Y18653
X39529Y9604
X43180Y7620
X38100Y15240
X28734Y11827
X28575Y15240
X18018Y13970
X16192Y13970
X1905Y24765
X1905Y17145
X40640Y21590
X44767Y22860
X41275Y25162
X9525Y22542
X25559Y10160
X20320Y12700
X36036Y26511
X30718Y27622
X26908Y24289
X22860Y26670
X24606Y33179
X10081Y1826
X1826Y10319
X1826Y33179
X45641Y1826
X53261Y9446
X34290Y15240
X30480Y15240
X24130Y17780
X41275Y20082
X45323Y30718
X50403Y30004
X31194Y25559
X36274Y20479
X45720Y21273
X42466Y15796
X45720Y15875
X48260Y15875
X6985Y15081
X9525Y15081
X22463Y10160
X9525Y17145
X10954Y22542
X15954Y19685
X15954Y17780
X18494Y19685
X18494Y17780
X16034Y10160
X18018Y10160
X19050Y3810
X17780Y26670
X12224Y32623
X34449Y31036
X30480Y33020
X24289Y8334
X25400Y6032
X24527Y12144
X19050Y6350
T8
X38100Y8573
X35560Y13017
X44450Y28337
X30956Y18494
X33020Y20241
X34290Y10795
X29210Y26670
X32147Y21114
X13970Y32147
X42466Y13414
X29845Y19764
X23336Y12144
X29766Y21034
X31750Y10795
X35481Y16669
X33020Y30639
X31274Y32226
X13970Y28337
X42466Y18256
X36354Y17621
X42624Y11271
X19050Y27384
X24368Y22463
M30