M48
;GenerationSoftware,Autodesk,EAGLE,9.5.2*%
;CreationDate,2019-12-04T00:29:54Z*%
FMAT,2
ICI,OFF
METRIC,TZ,000.000
T6C0.300
T5C0.400
T4C0.610
T3C0.914
T2C1.000
T1C4.300
%
G90
M71
T1
X5000Y5000
X55000Y5000
T2
X13970Y20955
X13970Y23495
X13970Y26035
X13970Y28575
X45720Y11430
X45720Y13970
X41910Y16510
X45720Y16510
X45720Y19050
X45720Y22225
X45720Y24765
X45720Y27305
T3
X10557Y36513
X10557Y33973
X8017Y36513
X8017Y33973
X5477Y36513
X5477Y33973
T4
X33099Y37465
X28019Y32941
X34369Y37465
T5
X38100Y5080
X40640Y5080
X41910Y5080
X22781Y18494
X57785Y32385
X49530Y35401
X53102Y22622
X50165Y7620
X50800Y8890
X16510Y33576
X25400Y27940
X33020Y25400
X39688Y28257
X45720Y7779
X45720Y4048
X52070Y28496
X53340Y28496
X56674Y28575
X57785Y28575
X45006Y29210
X58420Y38418
X38100Y38100
X41910Y38100
X42228Y35878
X21590Y12700
X21590Y15240
X35878Y19844
X40640Y19606
X40323Y15637
X37703Y15637
X39688Y21193
X35798Y17939
X35878Y15637
X41593Y13256
X37703Y21193
X36830Y7620
X10954Y3810
X10954Y16669
X39370Y5080
X33020Y20320
X53816Y30480
X25321Y11430
X28892Y23495
X25321Y10160
X30083Y23495
X16669Y5874
X17780Y18812
X17145Y4445
X4366Y15002
X29527Y27305
X1905Y30083
X18415Y30083
X18415Y24368
X10160Y18415
X1905Y10478
X9604Y9843
X14208Y3096
X18415Y2937
X14843Y11589
X1905Y21907
X11986Y11509
X12065Y8731
X12303Y4128
X18733Y6429
X18733Y17859
X15637Y19844
X11430Y19923
X16748Y19923
X21590Y5477
X27464Y8969
X40640Y17780
X38259Y25400
X45085Y32385
X38100Y35560
X1587Y33099
X21590Y30480
X28019Y31591
X57785Y19685
X58182Y9446
X50165Y1905
X34290Y32702
X31750Y32702
X8017Y21907
T6
X26035Y38179
X33814Y29607
X50562Y31353
X40640Y25400
X24130Y26670
X55721Y18415
X24130Y21590
X50598Y21388
X32941Y28972
X33020Y7223
X54805Y20515
X33734Y26352
X35071Y16974
X1667Y38338
X15875Y38179
X20955Y38179
X31115Y38179
M30