G04 EAGLE Gerber RS-274X export*
G75*
%MOMM*%
%FSLAX34Y34*%
%LPD*%
%INSoldermask Bottom*%
%IPPOS*%
%AMOC8*
5,1,8,0,0,1.08239X$1,22.5*%
G01*
%ADD10C,1.676400*%
%ADD11C,2.000000*%
%ADD12C,1.500000*%
%ADD13C,2.184400*%
%ADD14C,5.842000*%
%ADD15C,3.300000*%
%ADD16P,1.099708X8X22.500000*%
%ADD17C,1.500000*%
%ADD18C,1.800000*%
%ADD19C,1.206400*%


D10*
X723900Y342900D03*
X698500Y342900D03*
X673100Y342900D03*
X647700Y342900D03*
X622300Y342900D03*
X596900Y342900D03*
X571500Y342900D03*
X546100Y342900D03*
X520700Y342900D03*
X495300Y342900D03*
X469900Y342900D03*
X444500Y342900D03*
X419100Y342900D03*
X393700Y342900D03*
X368300Y342900D03*
X723900Y88900D03*
X698500Y88900D03*
X673100Y88900D03*
X647700Y88900D03*
X622300Y88900D03*
X596900Y88900D03*
X571500Y88900D03*
X546100Y88900D03*
X520700Y88900D03*
X495300Y88900D03*
X469900Y88900D03*
X444500Y88900D03*
X419100Y88900D03*
X393700Y88900D03*
X368300Y88900D03*
D11*
X145300Y612300D02*
X145300Y632300D01*
X84300Y632300D02*
X84300Y612300D01*
X104300Y574300D02*
X124300Y574300D01*
D12*
X957700Y403225D02*
X972700Y403225D01*
X972700Y377825D02*
X957700Y377825D01*
X957700Y352425D02*
X972700Y352425D01*
X972700Y327025D02*
X957700Y327025D01*
X957700Y508000D02*
X972700Y508000D01*
X972700Y482600D02*
X957700Y482600D01*
X957700Y457200D02*
X972700Y457200D01*
X972700Y431800D02*
X957700Y431800D01*
X712788Y757663D02*
X712788Y772663D01*
X738188Y772663D02*
X738188Y757663D01*
X763588Y757663D02*
X763588Y772663D01*
X788988Y772663D02*
X788988Y757663D01*
X814388Y757663D02*
X814388Y772663D01*
X839788Y772663D02*
X839788Y757663D01*
X865188Y757663D02*
X865188Y772663D01*
X890588Y772663D02*
X890588Y757663D01*
X455613Y757663D02*
X455613Y772663D01*
X481013Y772663D02*
X481013Y757663D01*
X506413Y757663D02*
X506413Y772663D01*
X531813Y772663D02*
X531813Y757663D01*
X557213Y757663D02*
X557213Y772663D01*
X582613Y772663D02*
X582613Y757663D01*
X608013Y757663D02*
X608013Y772663D01*
X633413Y772663D02*
X633413Y757663D01*
X658813Y757663D02*
X658813Y772663D01*
X684213Y772663D02*
X684213Y757663D01*
X957700Y561975D02*
X972700Y561975D01*
X972700Y536575D02*
X957700Y536575D01*
D13*
X206375Y143900D03*
X28575Y143900D03*
X206375Y541900D03*
X28575Y541900D03*
D10*
X406400Y596900D03*
X406400Y622300D03*
X406400Y571500D03*
X406400Y546100D03*
X406400Y647700D03*
X406400Y673100D03*
X406400Y698500D03*
X406400Y520700D03*
X279400Y596900D03*
X279400Y622300D03*
X279400Y571500D03*
X279400Y546100D03*
X279400Y647700D03*
X279400Y673100D03*
X279400Y698500D03*
X279400Y520700D03*
D12*
X350838Y757663D02*
X350838Y772663D01*
X376238Y772663D02*
X376238Y757663D01*
X401638Y757663D02*
X401638Y772663D01*
X427038Y772663D02*
X427038Y757663D01*
X957700Y161925D02*
X972700Y161925D01*
X972700Y136525D02*
X957700Y136525D01*
X957700Y111125D02*
X972700Y111125D01*
X972700Y215900D02*
X957700Y215900D01*
X957700Y190500D02*
X972700Y190500D01*
X890150Y508000D02*
X875150Y508000D01*
X875150Y482600D02*
X890150Y482600D01*
X890150Y457200D02*
X875150Y457200D01*
X875150Y431800D02*
X890150Y431800D01*
D14*
X50000Y50000D03*
D15*
X50000Y750000D03*
X950000Y750000D03*
X950000Y50000D03*
D12*
X957700Y269875D02*
X972700Y269875D01*
X972700Y244475D02*
X957700Y244475D01*
X246063Y757675D02*
X246063Y772675D01*
X271463Y772675D02*
X271463Y757675D01*
X296863Y757675D02*
X296863Y772675D01*
X322263Y772675D02*
X322263Y757675D01*
X449700Y546100D02*
X464700Y546100D01*
X464700Y571500D02*
X449700Y571500D01*
X449700Y596900D02*
X464700Y596900D01*
X464700Y622300D02*
X449700Y622300D01*
X449700Y647700D02*
X464700Y647700D01*
X464700Y673100D02*
X449700Y673100D01*
D16*
X647700Y317500D03*
D12*
X957700Y692150D02*
X972700Y692150D01*
X972700Y666750D02*
X957700Y666750D01*
X957700Y641350D02*
X972700Y641350D01*
X972700Y615950D02*
X957700Y615950D01*
X957700Y590550D02*
X972700Y590550D01*
D17*
X320675Y720713D03*
X215900Y698500D03*
X890588Y711200D03*
X622300Y683419D03*
X698500Y683419D03*
D18*
X914400Y101600D03*
X215900Y38100D03*
X781050Y19050D03*
D19*
X930275Y666750D03*
M02*
