<?xml version="1.0" encoding="UTF-8" standalone="no"?>
<!-- Created with Inkscape (http://www.inkscape.org/) -->

<svg
   xmlns:dc="http://purl.org/dc/elements/1.1/"
   xmlns:cc="http://creativecommons.org/ns#"
   xmlns:rdf="http://www.w3.org/1999/02/22-rdf-syntax-ns#"
   xmlns:svg="http://www.w3.org/2000/svg"
   xmlns="http://www.w3.org/2000/svg"
   xmlns:sodipodi="http://sodipodi.sourceforge.net/DTD/sodipodi-0.dtd"
   xmlns:inkscape="http://www.inkscape.org/namespaces/inkscape"
   width="64mm"
   height="64mm"
   viewBox="0 0 64 64"
   version="1.1"
   id="svg8"
   inkscape:version="0.92.4 (5da689c313, 2019-01-14)"
   sodipodi:docname="order.svg"
   inkscape:export-filename="C:\Users\Alakazam\Documents\Git\barbot4\raspberry\gui\css\order.png"
   inkscape:export-xdpi="25.4"
   inkscape:export-ydpi="25.4">
  <defs
     id="defs2">
    <filter
       inkscape:collect="always"
       style="color-interpolation-filters:sRGB"
       id="filter6458"
       x="-0.10320155"
       width="1.2064031"
       y="-0.077925649"
       height="1.1558513">
      <feGaussianBlur
         inkscape:collect="always"
         stdDeviation="2.0552637"
         id="feGaussianBlur6460" />
    </filter>
  </defs>
  <sodipodi:namedview
     id="base"
     pagecolor="#ffffff"
     bordercolor="#666666"
     borderopacity="1.0"
     inkscape:pageopacity="0.0"
     inkscape:pageshadow="2"
     inkscape:zoom="1.3914273"
     inkscape:cx="13.48419"
     inkscape:cy="114.38396"
     inkscape:document-units="mm"
     inkscape:current-layer="g4664"
     showgrid="false"
     inkscape:window-width="1920"
     inkscape:window-height="1017"
     inkscape:window-x="1672"
     inkscape:window-y="-8"
     inkscape:window-maximized="1" />
  <metadata
     id="metadata5">
    <rdf:RDF>
      <cc:Work
         rdf:about="">
        <dc:format>image/svg+xml</dc:format>
        <dc:type
           rdf:resource="http://purl.org/dc/dcmitype/StillImage" />
        <dc:title></dc:title>
      </cc:Work>
    </rdf:RDF>
  </metadata>
  <g
     inkscape:label="Ebene 1"
     inkscape:groupmode="layer"
     id="layer1"
     transform="translate(0,-233)">
    <g
       id="g4700"
       style="fill:#000000;fill-opacity:1;filter:url(#filter6458)"
       transform="matrix(0.9550754,0,0,0.9550754,3.5553138,11.911404)">
      <path
         sodipodi:nodetypes="ccccccccc"
         inkscape:connector-curvature="0"
         id="path4676"
         d="m 5.5883487,237.40179 c 16.7716533,-2.1497 20.6614673,6.12277 20.6088823,7.24572 l -4.446253,-0.004 3.714815,6.44776 3.713828,6.44678 3.726749,-6.44081 3.72674,-6.44081 -4.166996,-0.003 C 30.780819,239.7459 20.345043,227.14983 5.5883487,237.40179 Z"
         style="fill:#000000;fill-opacity:1;stroke:none;stroke-width:0.34730601;stroke-opacity:1" />
      <g
         id="g4690"
         transform="matrix(2.3538271,0,0,2.3538271,-17.945913,-402.73568)"
         style="fill:#000000;fill-opacity:1">
        <path
           sodipodi:nodetypes="cscsccccccsccscscccccsccc"
           style="fill:#000000;fill-opacity:1;stroke-width:0.10346196"
           d="m 16.654397,293.48398 c -0.15943,-2.03432 -0.443021,-5.63091 -0.630203,-7.99244 -0.187181,-2.36151 -0.319818,-4.32858 -0.294748,-4.37127 0.02507,-0.0427 0.438576,-0.0776 0.918901,-0.0776 h 0.873322 l 1.609661,-0.0517 1.34658,0.0287 1.346581,0.0287 0.124514,-0.60283 c 0.494071,-2.39206 2.86317,-3.9047 5.158395,-3.29358 2.130758,0.56734 3.512872,2.66241 3.134202,4.75096 -0.306536,1.6907 -1.50042,3.00844 -3.093402,3.41432 -0.310459,0.0791 -0.599577,0.20887 -0.642483,0.28838 -0.04291,0.0795 -0.270128,2.6537 -0.504935,5.72043 -0.234808,3.06672 -0.451168,5.63905 -0.480802,5.71627 -0.04416,0.11509 -0.822193,0.14041 -4.314794,0.14041 h -4.260915 z m 6.968898,-0.28135 c 0.145572,-0.17541 0.772492,-6.68751 0.679482,-7.05809 -0.036,-0.14341 -0.166931,-0.26303 -0.333767,-0.3049 -0.520798,-0.13072 -0.59,0.10374 -0.847529,2.87144 -0.348001,3.74003 -0.375769,4.30043 -0.222244,4.48542 0.166682,0.20084 0.5597,0.20417 0.724058,0.006 z"
           id="path4678"
           inkscape:connector-curvature="0" />
        <path
           sodipodi:nodetypes="ccccccsccccccsccssccscccccscscscc"
           style="fill:#000000;fill-opacity:1;stroke-width:0.10346196"
           d="m 20.913819,296.176 -0.02964,-1.01077 -1.548855,-0.0517 -1.548854,-0.0517 -0.07488,-0.41385 c -0.14466,-0.79947 -0.944425,-10.27328 -0.88117,-10.43811 0.05744,-0.14967 0.507659,-0.16674 4.398387,-0.16674 h 4.334405 l 0.06115,-0.54318 c 0.03363,-0.29875 0.093,-0.95055 0.131934,-1.44846 l 0.07079,-0.9053 -1.281638,-0.0213 c -0.704901,-0.0117 -1.543217,-0.009 -1.862925,0.007 -0.689315,0.0332 -0.764511,-0.0652 -0.602446,-0.78838 0.463331,-2.06747 2.549682,-3.49049 4.615642,-3.14815 1.342237,0.22242 2.480889,1.05654 3.093347,2.26605 0.280668,0.55428 0.303235,0.68354 0.303235,1.73692 0,1.01821 -0.02921,1.2004 -0.277285,1.72969 -0.532068,1.1352 -1.773158,2.14061 -2.856174,2.31379 -0.224095,0.0359 -0.46713,0.10204 -0.540078,0.14712 -0.09586,0.0593 -0.257,1.65564 -0.581135,5.75706 -0.246674,3.12131 -0.437839,5.74493 -0.424808,5.8303 0.02033,0.13318 -0.294735,0.15913 -2.222835,0.18306 l -2.246528,0.0279 z m 2.766518,-2.92777 c 0.160676,-0.17754 0.238512,-0.74223 0.505132,-3.66463 0.30899,-3.38681 0.311359,-3.45898 0.120442,-3.66994 -0.107112,-0.11836 -0.302113,-0.21519 -0.433336,-0.21519 -0.308641,0 -0.659572,0.37949 -0.663842,0.71787 -0.0018,0.14576 -0.135654,1.66176 -0.297365,3.36887 -0.171523,1.81071 -0.259125,3.19633 -0.210265,3.3258 0.147025,0.3896 0.682876,0.46469 0.979234,0.13722 z"
           id="path4680"
           inkscape:connector-curvature="0" />
        <path
           sodipodi:nodetypes="csscsccscccscscscccccccccccscccc"
           style="fill:#000000;fill-opacity:1;stroke-width:0.10346196"
           d="m 17.887897,294.91323 c -0.05327,-0.0862 -0.987,-10.08695 -0.987,-10.57132 0,-0.18838 0.153623,-0.19537 4.293671,-0.19537 h 4.293672 l 1.5e-5,0.38798 c 1.8e-5,0.43583 -0.802743,9.61572 -0.886656,10.13927 l -0.05389,0.33626 h -3.299988 c -1.937205,0 -3.324697,-0.04 -3.35982,-0.0968 z m 5.79244,-1.665 c 0.160676,-0.17754 0.238512,-0.74223 0.505132,-3.66463 0.30899,-3.38681 0.311359,-3.45898 0.120442,-3.66994 -0.107112,-0.11836 -0.302113,-0.21519 -0.433336,-0.21519 -0.308641,0 -0.659572,0.37949 -0.663842,0.71787 -0.0018,0.14576 -0.135654,1.66176 -0.297365,3.36887 -0.171523,1.81071 -0.259125,3.19633 -0.210265,3.3258 0.147025,0.3896 0.682876,0.46469 0.979234,0.13722 z m 2.787386,-8.95682 c 0.03848,-0.56337 0.110751,-1.48988 0.160595,-2.05892 0.04985,-0.56904 0.05676,-1.0686 0.01536,-1.11013 -0.0414,-0.0416 -1.098151,-0.0881 -2.348339,-0.10347 l -2.273072,-0.028 0.03114,-0.41384 c 0.04383,-0.58258 0.545399,-1.60764 1.059552,-2.16543 0.504909,-0.54776 1.442051,-1.04136 2.300449,-1.21166 1.680593,-0.33341 3.551467,0.63328 4.37566,2.26093 0.280668,0.55428 0.303234,0.68354 0.303234,1.73692 0,1.01821 -0.02921,1.2004 -0.277284,1.72969 -0.549756,1.17293 -1.809813,2.16783 -2.94219,2.32304 l -0.475068,0.0651 z"
           id="path4682"
           inkscape:connector-curvature="0" />
        <path
           style="fill:#000000;fill-opacity:1;stroke-width:0.10346196"
           d="m 17.923344,294.98418 c -0.0067,-0.0142 -0.235215,-2.42349 -0.507822,-5.35392 -0.369975,-3.97709 -0.465264,-5.34939 -0.37581,-5.41225 0.106585,-0.0748 8.348917,0.006 8.429233,0.0831 0.04843,0.0463 -0.912488,10.52276 -0.974339,10.62284 -0.04537,0.0734 -6.537058,0.13289 -6.571262,0.0602 z m 5.785667,-1.65957 c 0.202702,-0.21577 0.250977,-0.5405 0.539602,-3.62973 0.174339,-1.86602 0.288256,-3.48326 0.253147,-3.59388 -0.03511,-0.11062 -0.176972,-0.27525 -0.315251,-0.36585 -0.380357,-0.24923 -0.837648,-0.0293 -0.970957,0.46713 -0.09949,0.37044 -0.628206,5.95613 -0.625594,6.6092 0.0027,0.6661 0.682489,0.97783 1.119053,0.51313 z m 2.839714,-8.11558 c -0.190214,-0.0663 -0.157383,-0.48935 0.05173,-0.66649 0.09958,-0.0844 0.371417,-0.20759 0.604077,-0.27384 0.927724,-0.26419 1.778886,-1.15713 2.075467,-2.17733 0.355154,-1.22168 -0.01572,-2.47352 -0.993164,-3.35233 -0.634029,-0.57005 -1.265966,-0.80172 -2.17039,-0.79568 -1.509356,0.0101 -2.582459,0.79924 -3.076768,2.26266 -0.235986,0.69865 -0.423057,0.89147 -0.760847,0.78427 -0.258271,-0.082 -0.257314,-0.27113 0.0052,-1.03974 0.59498,-1.74161 2.234027,-2.83207 4.078831,-2.71368 3.320019,0.21306 4.957769,4.21181 2.725407,6.65438 -0.288077,0.3152 -0.715451,0.68384 -0.949718,0.81919 -0.484548,0.27997 -1.396666,0.56601 -1.589889,0.49859 z m 0.146403,-1.45048 c -0.05256,-0.087 0.108346,-1.97124 0.185533,-2.1727 0.03484,-0.0909 0.342182,-0.12932 1.035688,-0.12932 0.953972,0 0.986103,0.008 0.985165,0.23279 -0.0026,0.62255 -0.882181,1.65403 -1.702869,1.99694 -0.413864,0.17292 -0.440437,0.17674 -0.503517,0.0723 z m -0.04294,-2.89235 c -0.224387,-0.0432 -0.23279,-0.0854 -0.23279,-1.16962 0,-0.64808 0.04444,-1.15223 0.104836,-1.18957 0.154017,-0.0952 1.139455,0.38433 1.574114,0.76595 0.403526,0.35431 0.804138,1.07183 0.804138,1.44026 0,0.21787 -0.03631,0.22549 -1.008755,0.21191 -0.554815,-0.008 -1.113509,-0.0343 -1.241543,-0.0589 z m -3.336649,-0.16532 c 0,-0.30931 0.565691,-1.23542 0.961637,-1.57434 0.353046,-0.30219 1.199007,-0.67041 1.540229,-0.67041 0.04658,0 0.08468,0.53542 0.08468,1.18981 v 1.18981 h -1.293271 c -0.994033,0 -1.293275,-0.0312 -1.293275,-0.13487 z"
           id="path4684"
           inkscape:connector-curvature="0" />
        <path
           style="fill:#000000;fill-opacity:1;stroke-width:0.10346196"
           d="m 17.979292,294.89371 c -0.08551,-0.13836 -0.96018,-9.33992 -0.969958,-10.204 l -0.005,-0.43971 h 4.19021 4.190209 l -0.0014,0.23279 c -0.0022,0.37202 -0.91522,10.34052 -0.950027,10.37246 -0.01732,0.0159 -1.456951,0.0628 -3.199181,0.10424 -2.624038,0.0624 -3.182659,0.0511 -3.254906,-0.0658 z m 5.867865,-1.65318 c 0.137094,-0.19328 0.236478,-0.91363 0.450455,-3.26497 0.151004,-1.65933 0.282641,-3.22595 0.292525,-3.48137 0.02228,-0.57575 -0.228974,-0.89991 -0.695728,-0.8976 -0.720153,0.003 -0.747176,0.0991 -1.098942,3.88697 -0.173946,1.87303 -0.289419,3.5132 -0.256608,3.64481 0.07161,0.28727 0.623174,0.54851 0.9235,0.43741 0.114892,-0.0425 0.288051,-0.18887 0.384798,-0.32525 z m 2.693737,-8.32319 c 0.02776,-0.23377 0.110421,-0.30624 0.469681,-0.41177 2.496156,-0.73327 3.385176,-3.70389 1.670076,-5.58048 -1.874655,-2.05117 -5.106216,-1.27189 -5.852191,1.41124 -0.146441,0.52672 -0.199875,0.60289 -0.422933,0.60289 -0.23936,0 -0.251745,-0.0267 -0.198175,-0.42601 0.08734,-0.65115 0.638218,-1.66861 1.167655,-2.15663 0.260331,-0.23997 0.737553,-0.56017 1.060492,-0.71155 0.518941,-0.24327 0.713383,-0.27525 1.673513,-0.27525 0.981086,0 1.14367,0.0281 1.677902,0.29049 0.814269,0.39985 1.476997,1.07616 1.872327,1.91069 0.29853,0.63018 0.329594,0.78839 0.329594,1.67864 0,0.88492 -0.03191,1.04993 -0.320168,1.6554 -0.176092,0.36987 -0.525276,0.87761 -0.775965,1.12829 -0.45919,0.4592 -1.404788,0.96757 -2.041422,1.09751 -0.328251,0.067 -0.342532,0.0572 -0.310386,-0.21346 z"
           id="path4686"
           inkscape:connector-curvature="0" />
        <path
           style="fill:#000000;fill-opacity:1;stroke-width:0.10346196"
           d="m 17.935386,294.77726 c -7.1e-5,-0.0711 -0.209582,-2.45079 -0.465579,-5.28812 -0.255996,-2.83733 -0.465449,-5.17687 -0.465449,-5.19896 0,-0.0221 0.954438,-0.0402 2.120971,-0.0402 h 2.12097 v 5.32829 5.32829 h -1.655391 c -1.255269,0 -1.655423,-0.0312 -1.655522,-0.12932 z"
           id="path4688"
           inkscape:connector-curvature="0" />
      </g>
    </g>
    <path
       sodipodi:nodetypes="ccccccccc"
       inkscape:connector-curvature="0"
       id="path4666"
       d="m 8.8926082,238.64801 c 16.0181938,-2.05313 19.7332598,5.84771 19.6830368,6.92021 l -4.246507,-0.004 3.547929,6.1581 3.546985,6.15716 3.559327,-6.15146 3.559317,-6.15146 -3.979795,-0.003 C 32.953317,240.88681 22.986364,228.85662 8.8926082,238.64801 Z"
       style="fill:#f3f3f3;fill-opacity:1;stroke:none;stroke-width:0.33170342;stroke-opacity:1" />
    <g
       id="g4664"
       transform="matrix(2.2480824,0,0,2.2480824,-13.584386,-372.73154)">
      <path
         sodipodi:nodetypes="cscsccccccsccscscc"
         style="fill:#d5ebe9;stroke-width:0.10346196"
         d="m 16.654397,293.48398 c -0.15943,-2.03432 -0.443021,-5.63091 -0.630203,-7.99244 -0.187181,-2.36151 -0.319818,-4.32858 -0.294748,-4.37127 0.02507,-0.0427 0.438576,-0.0776 0.918901,-0.0776 h 0.873322 l 1.609661,-0.0517 1.34658,0.0287 1.346581,0.0287 0.124514,-0.60283 c 0.494071,-2.39206 2.86317,-3.9047 5.158395,-3.29358 2.130758,0.56734 3.512872,2.66241 3.134202,4.75096 -0.306536,1.6907 -1.50042,3.00844 -3.093402,3.41432 -0.310459,0.0791 -0.599577,0.20887 -0.642483,0.28838 -0.04291,0.0795 -0.270128,2.6537 -0.504935,5.72043 -0.234808,3.06672 -0.451168,5.63905 -0.480802,5.71627 -0.04416,0.11509 -0.822193,0.14041 -4.314794,0.14041 h -4.260915 z"
         id="path75"
         inkscape:connector-curvature="0" />
      <path
         sodipodi:nodetypes="ccccccsccccccsccssccscccccscscscc"
         style="fill:#abd8d3;stroke-width:0.10346196"
         d="m 20.913819,296.176 -0.02964,-1.01077 -1.548855,-0.0517 -1.548854,-0.0517 -0.07488,-0.41385 c -0.14466,-0.79947 -0.944425,-10.27328 -0.88117,-10.43811 0.05744,-0.14967 0.507659,-0.16674 4.398387,-0.16674 h 4.334405 l 0.06115,-0.54318 c 0.03363,-0.29875 0.093,-0.95055 0.131934,-1.44846 l 0.07079,-0.9053 -1.281638,-0.0213 c -0.704901,-0.0117 -1.543217,-0.009 -1.862925,0.007 -0.689315,0.0332 -0.764511,-0.0652 -0.602446,-0.78838 0.463331,-2.06747 2.549682,-3.49049 4.615642,-3.14815 1.342237,0.22242 2.480889,1.05654 3.093347,2.26605 0.280668,0.55428 0.303235,0.68354 0.303235,1.73692 0,1.01821 -0.02921,1.2004 -0.277285,1.72969 -0.532068,1.1352 -1.773158,2.14061 -2.856174,2.31379 -0.224095,0.0359 -0.46713,0.10204 -0.540078,0.14712 -0.09586,0.0593 -0.257,1.65564 -0.581135,5.75706 -0.246674,3.12131 -0.437839,5.74493 -0.424808,5.8303 0.02033,0.13318 -0.294735,0.15913 -2.222835,0.18306 l -2.246528,0.0279 z m 2.766518,-2.92777 c 0.160676,-0.17754 0.238512,-0.74223 0.505132,-3.66463 0.30899,-3.38681 0.311359,-3.45898 0.120442,-3.66994 -0.107112,-0.11836 -0.302113,-0.21519 -0.433336,-0.21519 -0.308641,0 -0.659572,0.37949 -0.663842,0.71787 -0.0018,0.14576 -0.135654,1.66176 -0.297365,3.36887 -0.171523,1.81071 -0.259125,3.19633 -0.210265,3.3258 0.147025,0.3896 0.682876,0.46469 0.979234,0.13722 z"
         id="path73"
         inkscape:connector-curvature="0" />
      <path
         sodipodi:nodetypes="csscsccscccscscscccccccccccscccc"
         style="fill:#fdc919;stroke-width:0.10346196"
         d="m 17.887897,294.91323 c -0.05327,-0.0862 -0.987,-10.08695 -0.987,-10.57132 0,-0.18838 0.153623,-0.19537 4.293671,-0.19537 h 4.293672 l 1.5e-5,0.38798 c 1.8e-5,0.43583 -0.802743,9.61572 -0.886656,10.13927 l -0.05389,0.33626 h -3.299988 c -1.937205,0 -3.324697,-0.04 -3.35982,-0.0968 z m 5.79244,-1.665 c 0.160676,-0.17754 0.238512,-0.74223 0.505132,-3.66463 0.30899,-3.38681 0.311359,-3.45898 0.120442,-3.66994 -0.107112,-0.11836 -0.302113,-0.21519 -0.433336,-0.21519 -0.308641,0 -0.659572,0.37949 -0.663842,0.71787 -0.0018,0.14576 -0.135654,1.66176 -0.297365,3.36887 -0.171523,1.81071 -0.259125,3.19633 -0.210265,3.3258 0.147025,0.3896 0.682876,0.46469 0.979234,0.13722 z m 2.787386,-8.95682 c 0.03848,-0.56337 0.110751,-1.48988 0.160595,-2.05892 0.04985,-0.56904 0.05676,-1.0686 0.01536,-1.11013 -0.0414,-0.0416 -1.098151,-0.0881 -2.348339,-0.10347 l -2.273072,-0.028 0.03114,-0.41384 c 0.04383,-0.58258 0.545399,-1.60764 1.059552,-2.16543 0.504909,-0.54776 1.442051,-1.04136 2.300449,-1.21166 1.680593,-0.33341 3.551467,0.63328 4.37566,2.26093 0.280668,0.55428 0.303234,0.68354 0.303234,1.73692 0,1.01821 -0.02921,1.2004 -0.277284,1.72969 -0.549756,1.17293 -1.809813,2.16783 -2.94219,2.32304 l -0.475068,0.0651 z"
         id="path71"
         inkscape:connector-curvature="0" />
      <path
         style="fill:#fda70b;stroke-width:0.10346196"
         d="m 17.923344,294.98418 c -0.0067,-0.0142 -0.235215,-2.42349 -0.507822,-5.35392 -0.369975,-3.97709 -0.465264,-5.34939 -0.37581,-5.41225 0.106585,-0.0748 8.348917,0.006 8.429233,0.0831 0.04843,0.0463 -0.912488,10.52276 -0.974339,10.62284 -0.04537,0.0734 -6.537058,0.13289 -6.571262,0.0602 z m 5.785667,-1.65957 c 0.202702,-0.21577 0.250977,-0.5405 0.539602,-3.62973 0.174339,-1.86602 0.288256,-3.48326 0.253147,-3.59388 -0.03511,-0.11062 -0.176972,-0.27525 -0.315251,-0.36585 -0.380357,-0.24923 -0.837648,-0.0293 -0.970957,0.46713 -0.09949,0.37044 -0.628206,5.95613 -0.625594,6.6092 0.0027,0.6661 0.682489,0.97783 1.119053,0.51313 z m 2.839714,-8.11558 c -0.190214,-0.0663 -0.157383,-0.48935 0.05173,-0.66649 0.09958,-0.0844 0.371417,-0.20759 0.604077,-0.27384 0.927724,-0.26419 1.778886,-1.15713 2.075467,-2.17733 0.355154,-1.22168 -0.01572,-2.47352 -0.993164,-3.35233 -0.634029,-0.57005 -1.265966,-0.80172 -2.17039,-0.79568 -1.509356,0.0101 -2.582459,0.79924 -3.076768,2.26266 -0.235986,0.69865 -0.423057,0.89147 -0.760847,0.78427 -0.258271,-0.082 -0.257314,-0.27113 0.0052,-1.03974 0.59498,-1.74161 2.234027,-2.83207 4.078831,-2.71368 3.320019,0.21306 4.957769,4.21181 2.725407,6.65438 -0.288077,0.3152 -0.715451,0.68384 -0.949718,0.81919 -0.484548,0.27997 -1.396666,0.56601 -1.589889,0.49859 z m 0.146403,-1.45048 c -0.05256,-0.087 0.108346,-1.97124 0.185533,-2.1727 0.03484,-0.0909 0.342182,-0.12932 1.035688,-0.12932 0.953972,0 0.986103,0.008 0.985165,0.23279 -0.0026,0.62255 -0.882181,1.65403 -1.702869,1.99694 -0.413864,0.17292 -0.440437,0.17674 -0.503517,0.0723 z m -0.04294,-2.89235 c -0.224387,-0.0432 -0.23279,-0.0854 -0.23279,-1.16962 0,-0.64808 0.04444,-1.15223 0.104836,-1.18957 0.154017,-0.0952 1.139455,0.38433 1.574114,0.76595 0.403526,0.35431 0.804138,1.07183 0.804138,1.44026 0,0.21787 -0.03631,0.22549 -1.008755,0.21191 -0.554815,-0.008 -1.113509,-0.0343 -1.241543,-0.0589 z m -3.336649,-0.16532 c 0,-0.30931 0.565691,-1.23542 0.961637,-1.57434 0.353046,-0.30219 1.199007,-0.67041 1.540229,-0.67041 0.04658,0 0.08468,0.53542 0.08468,1.18981 v 1.18981 h -1.293271 c -0.994033,0 -1.293275,-0.0312 -1.293275,-0.13487 z"
         id="path67"
         inkscape:connector-curvature="0" />
      <path
         style="fill:#fd7402;stroke-width:0.10346196"
         d="m 17.979292,294.89371 c -0.08551,-0.13836 -0.96018,-9.33992 -0.969958,-10.204 l -0.005,-0.43971 h 4.19021 4.190209 l -0.0014,0.23279 c -0.0022,0.37202 -0.91522,10.34052 -0.950027,10.37246 -0.01732,0.0159 -1.456951,0.0628 -3.199181,0.10424 -2.624038,0.0624 -3.182659,0.0511 -3.254906,-0.0658 z m 5.867865,-1.65318 c 0.137094,-0.19328 0.236478,-0.91363 0.450455,-3.26497 0.151004,-1.65933 0.282641,-3.22595 0.292525,-3.48137 0.02228,-0.57575 -0.228974,-0.89991 -0.695728,-0.8976 -0.720153,0.003 -0.747176,0.0991 -1.098942,3.88697 -0.173946,1.87303 -0.289419,3.5132 -0.256608,3.64481 0.07161,0.28727 0.623174,0.54851 0.9235,0.43741 0.114892,-0.0425 0.288051,-0.18887 0.384798,-0.32525 z m 2.693737,-8.32319 c 0.02776,-0.23377 0.110421,-0.30624 0.469681,-0.41177 2.496156,-0.73327 3.385176,-3.70389 1.670076,-5.58048 -1.874655,-2.05117 -5.106216,-1.27189 -5.852191,1.41124 -0.146441,0.52672 -0.199875,0.60289 -0.422933,0.60289 -0.23936,0 -0.251745,-0.0267 -0.198175,-0.42601 0.08734,-0.65115 0.638218,-1.66861 1.167655,-2.15663 0.260331,-0.23997 0.737553,-0.56017 1.060492,-0.71155 0.518941,-0.24327 0.713383,-0.27525 1.673513,-0.27525 0.981086,0 1.14367,0.0281 1.677902,0.29049 0.814269,0.39985 1.476997,1.07616 1.872327,1.91069 0.29853,0.63018 0.329594,0.78839 0.329594,1.67864 0,0.88492 -0.03191,1.04993 -0.320168,1.6554 -0.176092,0.36987 -0.525276,0.87761 -0.775965,1.12829 -0.45919,0.4592 -1.404788,0.96757 -2.041422,1.09751 -0.328251,0.067 -0.342532,0.0572 -0.310386,-0.21346 z"
         id="path65"
         inkscape:connector-curvature="0" />
      <path
         style="fill:#fd4e0b;stroke-width:0.10346196"
         d="m 17.935386,294.77726 c -7.1e-5,-0.0711 -0.209582,-2.45079 -0.465579,-5.28812 -0.255996,-2.83733 -0.465449,-5.17687 -0.465449,-5.19896 0,-0.0221 0.954438,-0.0402 2.120971,-0.0402 h 2.12097 v 5.32829 5.32829 h -1.655391 c -1.255269,0 -1.655423,-0.0312 -1.655522,-0.12932 z"
         id="path63"
         inkscape:connector-curvature="0" />
      <text
         xml:space="preserve"
         style="font-style:normal;font-weight:normal;font-size:8.0163126px;line-height:1.25;font-family:sans-serif;letter-spacing:0px;word-spacing:0px;fill:#eeeeee;fill-opacity:1;stroke:none;stroke-width:0.20040782"
         x="-297.98364"
         y="14.125052"
         id="text6464"
         transform="rotate(-90)"><tspan
           sodipodi:role="line"
           id="tspan6462"
           x="-297.98364"
           y="14.125052"
           style="font-style:normal;font-variant:normal;font-weight:normal;font-stretch:normal;font-family:sans-serif;-inkscape-font-specification:sans-serif;fill:#eeeeee;fill-opacity:1;stroke-width:0.20040782">LOS</tspan></text>
    </g>
  </g>
</svg>
