<?xml version="1.0" encoding="UTF-8" standalone="no"?>
<!-- Created with Inkscape (http://www.inkscape.org/) -->

<svg
   xmlns:dc="http://purl.org/dc/elements/1.1/"
   xmlns:cc="http://creativecommons.org/ns#"
   xmlns:rdf="http://www.w3.org/1999/02/22-rdf-syntax-ns#"
   xmlns:svg="http://www.w3.org/2000/svg"
   xmlns="http://www.w3.org/2000/svg"
   xmlns:sodipodi="http://sodipodi.sourceforge.net/DTD/sodipodi-0.dtd"
   xmlns:inkscape="http://www.inkscape.org/namespaces/inkscape"
   width="32"
   height="32"
   viewBox="0 0 8.4666659 8.4666659"
   version="1.1"
   id="svg8"
   inkscape:version="0.92.4 (5da689c313, 2019-01-14)"
   sodipodi:docname="straw.svg"
   inkscape:export-filename="C:\Users\Alakazam\Documents\Git\BarBot4\python\barbotgui\asset\straw.png"
   inkscape:export-xdpi="192.00002"
   inkscape:export-ydpi="192.00002">
  <defs
     id="defs2" />
  <sodipodi:namedview
     id="base"
     pagecolor="#ffffff"
     bordercolor="#666666"
     borderopacity="1.0"
     inkscape:pageopacity="0.0"
     inkscape:pageshadow="2"
     inkscape:zoom="7.919596"
     inkscape:cx="0.63746479"
     inkscape:cy="12.532224"
     inkscape:document-units="mm"
     inkscape:current-layer="layer1"
     showgrid="false"
     inkscape:window-width="1680"
     inkscape:window-height="987"
     inkscape:window-x="-8"
     inkscape:window-y="24"
     inkscape:window-maximized="1"
     units="px" />
  <metadata
     id="metadata5">
    <rdf:RDF>
      <cc:Work
         rdf:about="">
        <dc:format>image/svg+xml</dc:format>
        <dc:type
           rdf:resource="http://purl.org/dc/dcmitype/StillImage" />
        <dc:title />
      </cc:Work>
    </rdf:RDF>
  </metadata>
  <g
     inkscape:label="Ebene 1"
     inkscape:groupmode="layer"
     id="layer1"
     transform="translate(0,-288.53334)">
    <g
       id="g839"
       transform="matrix(1.2352149,0,0,1.2352149,-1.9845407,-67.998358)">
      <path
         id="path826"
         d="m 4.8957074,290.07329 c -0.2610703,-0.14735 -0.3128876,-0.19594 -0.2649959,-0.24847 0.046411,-0.0509 0.1053304,-0.0331 0.3578337,0.10816 0.2452099,0.13717 0.276634,0.1602 0.2772467,0.20312 3.704e-4,0.0299 -0.059424,0.0836 -0.091145,0.0819 -0.013719,-8e-4 -0.1392434,-0.0659 -0.2789403,-0.14472 z"
         style="fill:#000000;stroke-width:0.02019514"
         inkscape:connector-curvature="0" />
      <path
         id="path824"
         d="m 5.2979927,289.98399 c -0.085716,-0.0452 -0.4663401,-0.30947 -0.482553,-0.33501 -0.025072,-0.0395 0.022196,-0.10399 0.076201,-0.10399 0.04924,0 0.4928015,0.29278 0.5310282,0.35052 0.016184,0.0244 0.011723,0.0425 -0.017851,0.0723 -0.045314,0.0456 -0.049874,0.0463 -0.1068252,0.0162 z"
         style="fill:#000000;stroke-width:0.02019514"
         inkscape:connector-curvature="0" />
      <path
         id="path822"
         d="m 5.4728305,289.81956 c -0.053018,-0.0547 -0.312546,-0.46252 -0.312546,-0.49111 0,-0.0392 0.04478,-0.0725 0.097536,-0.0725 0.036962,0 0.073114,0.0413 0.1728592,0.1975 0.1507599,0.23609 0.189543,0.33076 0.1522495,0.37166 -0.034071,0.0374 -0.070266,0.0356 -0.1100985,-0.006 z"
         style="fill:#000000;stroke-width:0.02019514"
         inkscape:connector-curvature="0" />
      <path
         id="path820"
         d="m 5.6664222,289.72446 c -0.084054,-0.198 -0.1886445,-0.48056 -0.1886445,-0.50965 0,-0.0467 0.073535,-0.0813 0.122268,-0.0575 0.022963,0.0112 0.077992,0.12106 0.1413229,0.28215 0.1116945,0.28412 0.1121601,0.32147 0.00415,0.33321 -0.044879,0.005 -0.060658,-0.005 -0.0791,-0.0482 z"
         style="fill:#000000;stroke-width:0.02019514"
         inkscape:connector-curvature="0" />
      <path
         inkscape:connector-curvature="0"
         id="path818"
         d="m 5.8927386,289.63318 c 0,-0.0152 -0.037719,-0.12103 -0.083823,-0.2352 -0.046102,-0.11417 -0.081821,-0.2092 -0.079372,-0.21117 0.01518,-0.0122 2.6649344,-0.10674 2.677293,-0.0955 0.0084,0.008 0.018648,0.11722 0.022783,0.24351 l 0.00752,0.22963 -0.071019,1.5e-4 c -0.039061,6e-5 -0.5996461,0.0217 -1.2457439,0.0481 -0.6460984,0.0264 -1.1866303,0.048 -1.2011821,0.0481 -0.014552,2e-5 -0.026459,-0.0124 -0.026459,-0.0276 z"
         style="fill:#000000;stroke-width:0.02019514" />
      <path
         id="path4529"
         d="m 5.1226464,289.58282 -0.1328867,-0.0923 0.050376,-0.0533 0.050375,-0.0533 0.089694,0.13981 c 0.049331,0.0769 0.086461,0.14243 0.082511,0.14563 -0.00395,0.003 -0.06698,-0.0357 -0.1400684,-0.0865 z"
         style="fill:#000000;stroke-width:0.02019514"
         inkscape:connector-curvature="0" />
      <rect
         transform="rotate(120)"
         y="-149.54195"
         x="248.8233"
         height="0.53103691"
         width="6.0317788"
         id="rect830"
         style="fill:#000000;fill-opacity:1;stroke:none;stroke-width:0.36874348;stroke-miterlimit:4;stroke-dasharray:none;stroke-opacity:1" />
    </g>
  </g>
</svg>
