<?xml version="1.0" encoding="UTF-8" standalone="no"?>
<!-- Created with Inkscape (http://www.inkscape.org/) -->

<svg
   width="64"
   height="64"
   viewBox="0 0 64 64"
   version="1.1"
   id="svg1"
   xml:space="preserve"
   inkscape:version="1.3 (0e150ed6c4, 2023-07-21)"
   sodipodi:docname="sugar.svg"
   inkscape:export-filename="sugar.png"
   inkscape:export-xdpi="96"
   inkscape:export-ydpi="96"
   xmlns:inkscape="http://www.inkscape.org/namespaces/inkscape"
   xmlns:sodipodi="http://sodipodi.sourceforge.net/DTD/sodipodi-0.dtd"
   xmlns="http://www.w3.org/2000/svg"
   xmlns:svg="http://www.w3.org/2000/svg"><sodipodi:namedview
     id="namedview1"
     pagecolor="#ffffff"
     bordercolor="#000000"
     borderopacity="0.25"
     inkscape:showpageshadow="2"
     inkscape:pageopacity="0.0"
     inkscape:pagecheckerboard="0"
     inkscape:deskcolor="#d1d1d1"
     inkscape:document-units="mm"
     inkscape:zoom="4.1798821"
     inkscape:cx="1.0765854"
     inkscape:cy="43.422277"
     inkscape:window-width="2560"
     inkscape:window-height="1369"
     inkscape:window-x="1912"
     inkscape:window-y="-8"
     inkscape:window-maximized="1"
     inkscape:current-layer="layer1" /><defs
     id="defs1" /><g
     inkscape:label="Ebene 1"
     inkscape:groupmode="layer"
     id="layer1"><path
       id="path17"
       style="stroke-width:1.01544"
       d="m 28.3097,35.315274 c -0.577056,0 -1.034746,0.0049 -1.423677,0.02451 -0.388926,0.01964 -0.709378,0.05318 -1.007045,0.111398 -0.297668,0.05822 -0.572324,0.140468 -0.875595,0.256217 -0.303271,0.11575 -0.634724,0.266738 -1.040466,0.458964 -0.26355,0.12486 -0.524177,0.25889 -0.779791,0.403263 -0.255615,0.144379 -0.505889,0.297456 -0.750828,0.458964 -0.244946,0.161507 -0.483635,0.331732 -0.715182,0.507979 -0.231541,0.176246 -0.455203,0.359489 -0.67062,0.548083 -0.215418,0.188592 -0.422818,0.382945 -0.619378,0.581501 -0.196561,0.198555 -0.384249,0.402111 -0.559222,0.608237 -0.174975,0.206127 -0.337269,0.41476 -0.487928,0.626062 -0.150653,0.211308 -0.288562,0.42533 -0.412175,0.639429 -0.207366,0.359164 -0.377189,0.638711 -0.52803,0.857771 -0.150847,0.219066 -0.281813,0.377271 -0.416633,0.490156 -0.06741,0.05644 -0.136207,0.101878 -0.207201,0.138135 -0.071,0.03625 -0.145384,0.06212 -0.225026,0.08243 -0.159284,0.04062 -0.341666,0.05342 -0.565906,0.0557 -0.09881,9.91e-4 -0.219698,0.01824 -0.360932,0.04902 -0.141235,0.03078 -0.301146,0.07547 -0.47456,0.131451 -0.346821,0.111973 -0.748956,0.269237 -1.163004,0.454507 -0.414047,0.185271 -0.841715,0.399726 -1.240982,0.621606 -0.399273,0.221879 -0.769156,0.453278 -1.071658,0.675077 -0.117036,0.08582 -0.25767,0.206233 -0.412176,0.354249 -0.154505,0.14801 -0.323313,0.322629 -0.494611,0.510206 -0.342596,0.375156 -0.699037,0.807766 -0.984765,1.205336 -0.228385,0.317778 -0.420379,0.570143 -0.603782,0.779792 -0.183398,0.209644 -0.3568571,0.37501 -0.5503111,0.516891 -0.193453,0.14188 -0.405392,0.259825 -0.663937,0.3743 -0.258545,0.114475 -0.563764,0.226819 -0.942434,0.354247 -0.402206,0.135358 -0.79312,0.297156 -1.169688,0.483472 C 6.5155899,48.860538 6.1534272,49.06963 5.8049044,49.300289 5.4563811,49.530948 5.1226209,49.782732 4.8045426,50.051117 4.4864645,50.319501 4.182988,50.604939 3.8977561,50.904432 3.612524,51.20392 3.3456683,51.51843 3.0956843,51.84241 c -0.2499841,0.323985 -0.4827936,0.658506 -0.6951288,1.000363 -0.2123353,0.341855 -0.4047619,0.689576 -0.5770461,1.042692 -0.1722847,0.353116 -0.3246749,0.711674 -0.4545073,1.069429 -0.1298325,0.357755 -0.2380777,0.71588 -0.3230567,1.071657 -0.084979,0.355778 -0.14719842,0.708883 -0.18492212,1.056061 -0.037724,0.347184 -0.049809,0.688443 -0.037876,1.020414 0.011932,0.331967 0.049638,0.654572 0.1136269,0.964714 0.06399,0.310138 0.15336362,0.607267 0.27181322,0.888963 0.059225,0.140848 0.1250003,0.277452 0.19829,0.409948 0.07329,0.132495 0.1551945,0.262124 0.2428494,0.385439 0.087656,0.123317 0.1828606,0.240939 0.2851811,0.354249 0.1023206,0.113308 0.2102265,0.22058 0.3275127,0.323056 0.1172861,0.102472 0.243976,0.201051 0.376528,0.291866 0.1325521,0.09081 0.270742,0.175661 0.4188597,0.253989 l 1.171916,0.617149 24.3785247,-0.07129 c 6.036937,-0.01766 10.579924,-0.02995 14.00952,-0.04902 3.429597,-0.01906 5.747331,-0.04298 7.332272,-0.08243 0.792476,-0.01972 1.401642,-0.04292 1.875958,-0.0713 0.474311,-0.02838 0.813483,-0.06309 1.064973,-0.102487 0.251489,-0.03941 0.415166,-0.08533 0.53917,-0.138134 0.124004,-0.05282 0.208924,-0.111882 0.300777,-0.180466 0.169574,-0.126621 0.325216,-0.252032 0.467875,-0.376529 0.142658,-0.124495 0.272028,-0.247864 0.389896,-0.3743 0.117869,-0.126434 0.223391,-0.255227 0.318601,-0.387667 0.0952,-0.13244 0.179307,-0.269665 0.253989,-0.412177 0.07468,-0.142506 0.139778,-0.291175 0.196062,-0.447823 0.05628,-0.156643 0.104799,-0.319765 0.144819,-0.49461 0.04002,-0.17485 0.07215,-0.359877 0.09803,-0.556995 0.02588,-0.197114 0.04406,-0.407065 0.05793,-0.630517 0.01623,-0.261349 0.01666,-0.52609 0.0022,-0.793161 -0.01454,-0.267065 -0.04342,-0.536201 -0.08689,-0.806527 -0.04347,-0.270326 -0.101,-0.542101 -0.171555,-0.813211 -0.07055,-0.271116 -0.153749,-0.541545 -0.249533,-0.810984 -0.09579,-0.269439 -0.203885,-0.539004 -0.323057,-0.8043 C 54.710116,53.923175 54.580102,53.660683 54.43939,53.401995 54.29868,53.143308 54.147516,52.88964 53.987111,52.640027 53.826706,52.390414 53.657385,52.145095 53.479132,51.907023 53.300885,51.66895 53.114164,51.438187 52.91991,51.214122 52.725656,50.990056 52.522309,50.773373 52.3139,50.565781 52.105491,50.358188 51.890733,50.159564 51.670015,49.97091 51.449297,49.782262 51.22389,49.603445 50.99271,49.436196 c -0.23118,-0.167244 -0.468701,-0.32227 -0.708497,-0.465647 -0.239795,-0.143378 -0.481983,-0.275084 -0.728549,-0.392124 -0.246559,-0.117041 -0.497111,-0.219224 -0.7486,-0.307461 -0.251483,-0.08824 -0.505175,-0.161372 -0.759739,-0.218341 -0.288014,-0.06445 -0.521998,-0.126622 -0.719638,-0.193835 -0.197634,-0.06721 -0.358022,-0.140383 -0.49461,-0.229481 -0.136589,-0.0891 -0.249386,-0.192944 -0.354248,-0.323057 -0.104842,-0.130116 -0.202748,-0.286532 -0.305208,-0.47679 -0.130155,-0.241684 -0.289423,-0.488002 -0.472332,-0.733005 -0.182908,-0.245002 -0.389576,-0.487935 -0.614921,-0.728548 -0.225349,-0.240613 -0.468844,-0.477751 -0.72632,-0.706269 -0.257477,-0.228512 -0.527242,-0.448543 -0.806528,-0.657253 -0.279291,-0.208714 -0.566981,-0.406986 -0.857771,-0.588186 -0.290791,-0.181205 -0.585842,-0.346394 -0.877824,-0.492383 -0.291977,-0.145989 -0.581597,-0.271234 -0.864454,-0.3743 -0.282859,-0.103064 -0.558708,-0.18373 -0.822124,-0.236165 -0.427518,-0.0851 -0.755539,-0.153373 -1.020414,-0.23171 -0.132437,-0.03917 -0.249255,-0.08249 -0.354248,-0.129223 -0.104992,-0.04673 -0.198821,-0.09772 -0.285182,-0.158186 -0.08636,-0.06047 -0.166309,-0.129062 -0.242848,-0.20943 -0.07654,-0.08036 -0.149497,-0.172059 -0.225026,-0.278497 -0.151114,-0.212882 -0.308092,-0.48577 -0.507979,-0.839948 -0.129276,-0.228969 -0.2693,-0.449675 -0.416632,-0.666164 -0.147327,-0.216489 -0.302368,-0.428678 -0.467875,-0.632746 -0.165506,-0.204069 -0.339831,-0.400938 -0.523574,-0.592642 -0.183745,-0.191704 -0.377232,-0.3776 -0.579275,-0.556994 -0.202043,-0.179394 -0.412342,-0.351985 -0.632745,-0.519119 -0.220404,-0.167138 -0.451846,-0.328535 -0.690673,-0.48347 -0.238826,-0.154937 -0.486834,-0.302803 -0.744144,-0.445597 -0.25731,-0.142788 -0.523988,-0.281473 -0.799844,-0.412176 -0.401543,-0.19024 -0.727912,-0.337563 -1.029325,-0.452279 -0.301417,-0.114715 -0.576265,-0.196158 -0.873367,-0.253989 -0.297107,-0.05783 -0.616202,-0.0918 -1.004818,-0.111398 -0.388612,-0.0196 -0.847731,-0.02451 -1.423678,-0.02451 z m 0.06016,7.120616 c 0.119864,0 0.232942,0.01407 0.338653,0.04233 0.105708,0.02826 0.202637,0.07019 0.291864,0.122539 0.08923,0.05235 0.170206,0.114873 0.240623,0.187149 0.07041,0.07228 0.131198,0.154809 0.180466,0.24285 0.04927,0.08805 0.08783,0.181072 0.113626,0.280725 0.02579,0.09965 0.03788,0.204825 0.03787,0.311917 -1.1e-5,0.107092 -0.01197,0.217137 -0.0401,0.327513 -0.02813,0.110371 -0.07062,0.220253 -0.129222,0.32974 -0.04271,0.07981 -0.09953,0.152073 -0.167099,0.216114 -0.06757,0.06404 -0.147756,0.121793 -0.233938,0.169326 -0.08619,0.04754 -0.179926,0.08556 -0.278496,0.115855 -0.09857,0.0303 -0.200527,0.05228 -0.305234,0.06461 -0.104704,0.01232 -0.211756,0.0153 -0.316372,0.0089 -0.104613,-0.0064 -0.206948,-0.0232 -0.305233,-0.04902 -0.09828,-0.02581 -0.192783,-0.06095 -0.278497,-0.106943 -0.08571,-0.04599 -0.162578,-0.102423 -0.229482,-0.169327 -0.0518,-0.0518 -0.09705,-0.111939 -0.135906,-0.178238 -0.03885,-0.06629 -0.07213,-0.13724 -0.09803,-0.213886 -0.0259,-0.07664 -0.04491,-0.157359 -0.05793,-0.24062 -0.01298,-0.08326 -0.02005,-0.169064 -0.02005,-0.253991 0,-0.08492 0.007,-0.169058 0.02005,-0.251761 0.01302,-0.0827 0.03203,-0.163976 0.05793,-0.240621 0.0259,-0.07664 0.05918,-0.149815 0.09803,-0.216114 0.03885,-0.0663 0.08411,-0.126437 0.135906,-0.178238 0.04433,-0.04433 0.10789,-0.08623 0.184923,-0.124766 0.07703,-0.03853 0.16722,-0.07327 0.265128,-0.102488 0.09792,-0.02921 0.202598,-0.05297 0.30969,-0.06907 0.107093,-0.01606 0.2166,-0.02451 0.320828,-0.02451 z m -5.567715,5.371652 c 0.155154,0 0.331686,0.03737 0.492383,0.0958 0.08035,0.02921 0.157839,0.06395 0.225026,0.102488 0.06719,0.03853 0.124998,0.08043 0.169326,0.124766 0.06386,0.06386 0.11816,0.138837 0.162642,0.222799 0.04449,0.08396 0.07898,0.176592 0.104715,0.27404 0.02574,0.09745 0.04141,0.200915 0.04902,0.305233 0.0076,0.104319 0.0077,0.209575 -0.0022,0.314145 -0.0099,0.10457 -0.02894,0.207028 -0.0557,0.305233 -0.02676,0.09821 -0.06171,0.193281 -0.104715,0.278496 -0.043,0.08522 -0.09288,0.161634 -0.151503,0.227254 -0.05862,0.06562 -0.126895,0.118785 -0.200518,0.158187 -0.158738,0.08495 -0.288819,0.149445 -0.405492,0.191606 -0.116673,0.04216 -0.219577,0.06324 -0.320828,0.06238 -0.101251,-8.56e-4 -0.20167,-0.02275 -0.314145,-0.06684 -0.112475,-0.0441 -0.237327,-0.110719 -0.387668,-0.19829 -0.06751,-0.03932 -0.127236,-0.09446 -0.180466,-0.160416 -0.05323,-0.06594 -0.09968,-0.141534 -0.138135,-0.227253 -0.03847,-0.08571 -0.06814,-0.179861 -0.09135,-0.278497 -0.0232,-0.09864 -0.03933,-0.202763 -0.04679,-0.307461 -0.0074,-0.104695 -0.0066,-0.210237 0.0022,-0.314145 0.0088,-0.103908 0.02575,-0.206744 0.05124,-0.303005 0.0255,-0.09625 0.05979,-0.185596 0.102487,-0.267357 0.04271,-0.08176 0.09332,-0.155708 0.153731,-0.216114 0.04433,-0.04433 0.10214,-0.08623 0.169326,-0.124766 0.06719,-0.03853 0.144677,-0.07327 0.225026,-0.102488 0.160697,-0.05844 0.337229,-0.0958 0.492382,-0.0958 z m 10.977243,0.03342 c 0.101023,0.0062 0.203192,0.02501 0.303005,0.0557 0.09981,0.03069 0.197289,0.07305 0.289637,0.124767 0.09235,0.05172 0.179806,0.113445 0.258446,0.182693 0.07864,0.06925 0.148524,0.146193 0.207202,0.229482 0.05868,0.08328 0.105677,0.171306 0.138134,0.26513 0.03247,0.09382 0.05124,0.193237 0.05124,0.294093 0,0.18181 -0.02518,0.349774 -0.06907,0.501295 -0.04387,0.151517 -0.106236,0.287395 -0.184922,0.405491 -0.07869,0.118097 -0.174071,0.21701 -0.278497,0.298549 -0.104422,0.08154 -0.217551,0.145303 -0.338653,0.187151 -0.121102,0.04184 -0.250046,0.06335 -0.378756,0.06238 -0.12871,-9.77e-4 -0.25819,-0.02437 -0.385439,-0.0713 -0.12725,-0.04693 -0.25089,-0.117862 -0.367617,-0.213886 -0.116727,-0.09603 -0.225921,-0.217144 -0.323056,-0.365387 -0.06077,-0.09274 -0.113046,-0.182569 -0.153731,-0.269585 -0.04069,-0.08702 -0.07093,-0.172001 -0.09135,-0.253991 -0.02042,-0.08198 -0.02902,-0.160737 -0.02896,-0.238393 5.6e-5,-0.07766 0.0082,-0.153233 0.02896,-0.227254 0.02072,-0.07402 0.05199,-0.147261 0.09358,-0.218341 0.04158,-0.07108 0.09555,-0.140593 0.158186,-0.20943 0.125268,-0.137673 0.292872,-0.272614 0.503523,-0.405492 0.0847,-0.05342 0.175828,-0.08951 0.271814,-0.111399 0.09598,-0.02189 0.195295,-0.02843 0.29632,-0.02228 z m -5.819475,5.901911 c 0.127538,-0.01278 0.258327,-0.0085 0.389896,0.01114 0.131567,0.01959 0.262185,0.05442 0.387667,0.102486 0.125483,0.04807 0.247194,0.11 0.356476,0.182695 0.109282,0.07269 0.206667,0.156101 0.289638,0.249534 0.08297,0.09342 0.151747,0.197162 0.19829,0.30746 0.04654,0.110297 0.07129,0.228731 0.07129,0.352021 0,0.05057 -0.01404,0.110696 -0.0401,0.178238 -0.02605,0.06753 -0.06292,0.14272 -0.109172,0.220569 -0.09251,0.155698 -0.220512,0.324219 -0.358704,0.481243 -0.138191,0.157024 -0.28852,0.300367 -0.425544,0.405492 -0.06851,0.05257 -0.132169,0.09738 -0.191605,0.126995 -0.05943,0.02961 -0.113685,0.04456 -0.158187,0.04456 -0.05745,0 -0.176974,-0.04674 -0.323056,-0.122539 -0.146088,-0.0758 -0.319265,-0.179074 -0.483472,-0.294092 -0.0812,-0.05688 -0.153398,-0.122544 -0.218342,-0.193835 -0.06494,-0.07129 -0.121185,-0.149862 -0.169325,-0.231709 -0.04814,-0.08185 -0.08952,-0.167675 -0.120311,-0.256217 -0.03079,-0.08854 -0.05171,-0.178207 -0.06461,-0.269585 -0.0129,-0.09138 -0.0166,-0.183688 -0.01114,-0.274042 0.0056,-0.09036 0.02004,-0.17966 0.04456,-0.265129 0.02453,-0.08548 0.05844,-0.168352 0.102487,-0.245077 0.04406,-0.07673 0.09852,-0.147537 0.162642,-0.211658 0.08914,-0.08914 0.191838,-0.15818 0.305233,-0.207202 0.113399,-0.04902 0.23785,-0.07856 0.365389,-0.09135 z m 13.432473,0 c 0.127539,-0.01278 0.260556,-0.0085 0.392123,0.01114 0.131569,0.01959 0.262186,0.05442 0.387669,0.102486 0.125483,0.04807 0.244965,0.11 0.354248,0.182695 0.109282,0.07269 0.208895,0.156101 0.291865,0.249534 0.08298,0.09342 0.14952,0.197162 0.196062,0.30746 0.04654,0.110297 0.07129,0.228731 0.07129,0.352021 0,0.05057 -0.01404,0.110696 -0.0401,0.178238 -0.02605,0.06753 -0.06291,0.14272 -0.109171,0.220569 -0.09251,0.155698 -0.220512,0.324219 -0.358704,0.481243 -0.138192,0.157024 -0.286291,0.300367 -0.423316,0.405492 -0.06851,0.05257 -0.134396,0.09738 -0.193834,0.126995 -0.05943,0.02961 -0.113673,0.04456 -0.158187,0.04456 -0.05745,0 -0.176967,-0.04674 -0.323056,-0.122539 -0.146088,-0.0758 -0.317036,-0.179074 -0.481243,-0.294092 -0.0812,-0.05688 -0.155627,-0.122544 -0.22057,-0.193835 -0.06494,-0.07129 -0.121186,-0.149862 -0.169326,-0.231709 -0.04814,-0.08185 -0.08729,-0.167675 -0.118082,-0.256217 -0.03079,-0.08854 -0.05395,-0.178207 -0.06684,-0.269585 -0.0129,-0.09138 -0.0166,-0.183688 -0.01114,-0.274042 0.0056,-0.09036 0.02005,-0.17966 0.04456,-0.265129 0.02452,-0.08548 0.06066,-0.168352 0.104715,-0.245077 0.04404,-0.07673 0.09629,-0.147537 0.160414,-0.211658 0.08914,-0.08914 0.194065,-0.15818 0.307461,-0.207202 0.113399,-0.04902 0.235621,-0.07856 0.36316,-0.09135 z m -26.515155,0.111398 c 0.194462,0 0.352453,0.0073 0.483471,0.02896 0.131017,0.02165 0.233943,0.05573 0.320829,0.111399 0.08689,0.05567 0.156276,0.131881 0.218341,0.233937 0.06207,0.102061 0.117225,0.231305 0.173783,0.392124 0.05804,0.16502 0.09859,0.300288 0.118082,0.416633 0.01949,0.116343 0.01898,0.214356 -0.0067,0.305233 -0.02557,0.09087 -0.07655,0.17429 -0.153729,0.2629 -0.07717,0.08861 -0.181069,0.182303 -0.316373,0.291866 -0.172935,0.140034 -0.353866,0.266409 -0.505752,0.358704 -0.15188,0.0923 -0.274454,0.149274 -0.331968,0.149274 -0.05751,0 -0.18231,-0.05698 -0.334197,-0.149274 -0.151886,-0.0923 -0.330583,-0.21867 -0.503522,-0.358704 -0.135305,-0.109567 -0.241429,-0.20325 -0.318601,-0.291866 -0.07717,-0.08861 -0.12593,-0.172025 -0.151503,-0.2629 -0.02557,-0.09088 -0.02843,-0.18889 -0.0089,-0.305233 0.0195,-0.116345 0.06005,-0.251613 0.118083,-0.416633 0.05656,-0.160819 0.111711,-0.290068 0.173781,-0.392124 0.06207,-0.10206 0.13146,-0.178272 0.218343,-0.233937 0.08689,-0.05567 0.192039,-0.08975 0.323056,-0.111399 0.131017,-0.02165 0.28901,-0.02896 0.483471,-0.02896 z" /><path
       d="m 13.05185,35.799429 c -0.07902,0 -0.156643,0.02369 -0.25,0.06836 -0.09336,0.04467 -0.20153,0.109872 -0.337891,0.199219 -0.139768,0.09158 -0.246717,0.168868 -0.328125,0.265625 -0.0407,0.04838 -0.07447,0.10144 -0.103515,0.164062 -0.02904,0.06262 -0.05294,0.135207 -0.07227,0.220703 -0.03866,0.170998 -0.06075,0.396633 -0.07226,0.710938 -0.01152,0.314305 -0.01367,0.717462 -0.01367,1.244141 0,0.506433 0.0039,0.899758 0.01563,1.210937 0.01173,0.311179 0.0328,0.541161 0.06836,0.716797 0.01778,0.08782 0.03845,0.161435 0.06445,0.226562 0.026,0.06513 0.05606,0.12002 0.0918,0.169922 0.07148,0.0998 0.16372,0.178032 0.283203,0.261719 0.143949,0.10083 0.28964,0.191359 0.408203,0.257813 0.118564,0.06645 0.210129,0.107421 0.246094,0.107421 0.03594,0 0.127525,-0.04097 0.246094,-0.107421 0.118568,-0.06645 0.264254,-0.156983 0.408203,-0.257813 0.119489,-0.08369 0.211726,-0.161914 0.283203,-0.261719 0.03574,-0.0499 0.06775,-0.104794 0.09375,-0.169922 0.026,-0.06513 0.04667,-0.138744 0.06445,-0.226562 0.03556,-0.175636 0.05663,-0.405618 0.06836,-0.716797 0.01173,-0.311179 0.01367,-0.704504 0.01367,-1.210937 0,-0.526679 -0.0022,-0.929836 -0.01367,-1.244141 -0.01152,-0.314305 -0.03166,-0.53994 -0.07031,-0.710938 -0.01933,-0.0855 -0.04322,-0.15808 -0.07227,-0.220703 -0.02904,-0.06262 -0.06281,-0.115684 -0.103515,-0.164062 -0.08141,-0.09676 -0.188353,-0.174042 -0.328125,-0.265625 -0.136363,-0.08935 -0.244533,-0.154546 -0.337891,-0.199219 -0.09336,-0.04467 -0.172931,-0.06836 -0.251953,-0.06836 z"
       style="stroke-width:0.890171"
       id="path10" /><path
       d="m 23.768647,29.623647 c -0.148896,0 -0.297263,0.02099 -0.431641,0.06641 -0.06719,0.02271 -0.131338,0.05188 -0.189453,0.08594 -0.05812,0.03406 -0.110838,0.07373 -0.15625,0.119141 -0.04793,0.04793 -0.08905,0.153593 -0.125,0.302734 -0.03595,0.149142 -0.06588,0.341063 -0.08984,0.5625 -0.02396,0.221437 -0.04271,0.473469 -0.05469,0.738281 -0.01198,0.264815 -0.01758,0.542992 -0.01758,0.822266 0,0.279274 0.0056,0.559404 0.01758,0.824219 0.01198,0.264814 0.03072,0.514891 0.05469,0.736328 0.02396,0.221437 0.0539,0.413358 0.08984,0.5625 0.03595,0.149142 0.07707,0.254807 0.125,0.302734 0.03886,0.03886 0.08954,0.07559 0.148438,0.109375 0.0589,0.03378 0.126828,0.06423 0.197265,0.08984 0.140874,0.05123 0.295628,0.08398 0.431641,0.08398 0.136014,0 0.292721,-0.03276 0.433594,-0.08398 0.07044,-0.02561 0.136413,-0.05606 0.195312,-0.08984 0.0589,-0.03378 0.109577,-0.07051 0.148438,-0.109375 0.04793,-0.04793 0.09101,-0.153592 0.126953,-0.302734 0.03595,-0.149142 0.06589,-0.341063 0.08984,-0.5625 0.02397,-0.221437 0.04075,-0.471514 0.05273,-0.736328 0.01198,-0.264815 0.01758,-0.544945 0.01758,-0.824219 0,-0.279274 -0.0056,-0.557451 -0.01758,-0.822266 -0.01198,-0.264812 -0.02877,-0.516844 -0.05273,-0.738281 -0.02396,-0.221437 -0.0539,-0.413358 -0.08984,-0.5625 -0.03595,-0.149141 -0.07902,-0.254806 -0.126953,-0.302734 -0.04541,-0.04541 -0.09813,-0.08508 -0.15625,-0.119141 -0.05812,-0.03406 -0.122265,-0.06323 -0.189454,-0.08594 -0.134375,-0.04541 -0.282745,-0.06641 -0.43164,-0.06641 z"
       style="stroke-width:0.890171"
       id="path9" /><path
       d="m 29.213959,27.272085 c -0.07634,0.0028 -0.152933,0.01216 -0.230468,0.0293 -0.07753,0.01713 -0.156267,0.04289 -0.232422,0.07422 -0.07616,0.03133 -0.150451,0.0698 -0.222657,0.115234 -0.07221,0.04544 -0.141342,0.0968 -0.207031,0.15625 -0.09148,0.08279 -0.165125,0.172208 -0.222656,0.292969 -0.05753,0.120761 -0.09989,0.273977 -0.130859,0.482422 -0.03097,0.208442 -0.04875,0.472518 -0.06055,0.818359 -0.01179,0.345841 -0.01758,0.771739 -0.01758,1.304687 0,0.63103 0.01156,1.140791 0.03906,1.554688 0.01375,0.206949 0.03142,0.390615 0.05469,0.552734 0.02327,0.162122 0.05138,0.304136 0.08594,0.427735 0.03455,0.123599 0.07545,0.228932 0.123047,0.320312 0.0476,0.09138 0.101659,0.168909 0.164062,0.234375 0.06241,0.06547 0.133916,0.118207 0.212891,0.164063 0.07898,0.04586 0.166364,0.08464 0.263672,0.117187 0.04858,0.01625 0.107679,0.02239 0.173828,0.02148 0.06615,-9.02e-4 0.138185,-0.0093 0.212891,-0.02539 0.07471,-0.01611 0.152317,-0.03899 0.226562,-0.06836 0.07424,-0.02937 0.146169,-0.06478 0.210938,-0.105469 0.05257,-0.03303 0.09868,-0.06835 0.140625,-0.107422 0.04194,-0.03907 0.07859,-0.08153 0.111328,-0.134766 0.03274,-0.05324 0.06293,-0.115897 0.08789,-0.191406 0.02496,-0.07551 0.04585,-0.165591 0.06445,-0.271484 0.0372,-0.211787 0.06365,-0.491052 0.08398,-0.873047 0.02033,-0.381998 0.03396,-0.86532 0.04883,-1.482422 0.01106,-0.45913 0.01479,-0.869519 0.01172,-1.228516 -0.0031,-0.358994 -0.01214,-0.66761 -0.0293,-0.925781 -0.01715,-0.25817 -0.04108,-0.464442 -0.07227,-0.621094 -0.03118,-0.156648 -0.07006,-0.263919 -0.115234,-0.318359 -0.0459,-0.0553 -0.09889,-0.101953 -0.15625,-0.142578 -0.05736,-0.04062 -0.119288,-0.07552 -0.185547,-0.101563 -0.06626,-0.02604 -0.136397,-0.04313 -0.208984,-0.05469 -0.07259,-0.01156 -0.148264,-0.01651 -0.22461,-0.01367 z"
       style="stroke-width:0.890171"
       id="path8" /><path
       d="m 18.446381,27.045522 c -0.05534,-0.0031 -0.111803,0.0038 -0.167969,0.01758 -0.05617,0.01376 -0.11293,0.03589 -0.171875,0.06641 -0.117887,0.06103 -0.242074,0.153885 -0.382812,0.28125 -0.0487,0.04408 -0.09245,0.09133 -0.130859,0.146484 -0.03841,0.05515 -0.07224,0.118905 -0.101563,0.199219 -0.02932,0.08031 -0.05474,0.177318 -0.07617,0.296875 -0.02143,0.119557 -0.03994,0.262666 -0.05469,0.435547 -0.02949,0.345763 -0.0467,0.811525 -0.05664,1.455078 -0.0099,0.643553 -0.01172,1.463574 -0.01172,2.517578 0,1.11949 4.24e-4,1.971645 0.0098,2.625 0.0093,0.653355 0.0282,1.10823 0.06055,1.433594 0.01618,0.162682 0.03604,0.293806 0.06055,0.40039 0.02451,0.106585 0.05333,0.188104 0.08789,0.25586 0.03457,0.06776 0.07476,0.121774 0.121094,0.167969 0.04633,0.04619 0.09838,0.08505 0.158203,0.126953 0.06849,0.04796 0.145515,0.09005 0.22461,0.125 0.07909,0.03495 0.160193,0.06246 0.240234,0.08203 0.08004,0.01957 0.15914,0.03137 0.230469,0.0332 0.07133,0.0018 0.134543,-0.0052 0.1875,-0.02344 0.111604,-0.03852 0.211163,-0.08044 0.298828,-0.13086 0.08767,-0.05042 0.16389,-0.109671 0.230469,-0.1875 0.06658,-0.07783 0.123527,-0.174165 0.171875,-0.294922 0.04835,-0.120756 0.08812,-0.266114 0.121093,-0.445312 0.03297,-0.179198 0.05963,-0.39138 0.08008,-0.644531 0.02045,-0.253154 0.03415,-0.548005 0.04492,-0.890625 0.02155,-0.685245 0.02734,-1.564968 0.02734,-2.701172 0,-1.028975 -0.0018,-1.821246 -0.01172,-2.439453 -0.01,-0.618209 -0.02902,-1.060648 -0.06055,-1.388672 -0.01576,-0.164013 -0.03527,-0.299986 -0.05859,-0.414063 -0.02333,-0.114077 -0.04969,-0.207895 -0.08203,-0.287109 -0.03234,-0.07921 -0.07048,-0.143701 -0.113281,-0.203125 -0.0428,-0.05942 -0.08982,-0.113261 -0.144531,-0.167969 -0.14324,-0.143245 -0.271485,-0.251893 -0.390625,-0.326172 -0.05957,-0.03714 -0.117349,-0.06588 -0.173828,-0.08594 -0.05648,-0.02006 -0.110671,-0.03206 -0.166016,-0.03516 z"
       style="stroke-width:0.890171"
       id="path7" /><path
       d="m 29.124116,19.957632 c -0.04596,2.5e-4 -0.09284,0.0015 -0.138672,0.0059 -0.09167,0.0087 -0.183443,0.02537 -0.269532,0.04883 -0.08609,0.02346 -0.167479,0.0541 -0.242187,0.0918 -0.07471,0.0377 -0.141694,0.08142 -0.199219,0.132813 -0.05752,0.05139 -0.106084,0.11124 -0.140625,0.175781 -0.04838,0.0904 -0.08913,0.204066 -0.123047,0.335937 -0.03392,0.131874 -0.06014,0.281222 -0.08008,0.441407 -0.01994,0.160185 -0.03262,0.330522 -0.03906,0.505859 -0.0064,0.175337 -0.0066,0.355873 0,0.533203 0.0066,0.177331 0.01998,0.351416 0.03906,0.517578 0.01908,0.166165 0.04311,0.324957 0.07422,0.466797 0.03111,0.14184 0.06867,0.266737 0.111328,0.371094 0.04266,0.104357 0.09082,0.18652 0.144531,0.240234 0.05491,0.05491 0.117077,0.104001 0.183594,0.146485 0.06652,0.04248 0.138272,0.0795 0.212891,0.109375 0.149237,0.05976 0.310114,0.09331 0.470703,0.101562 0.08029,0.0041 0.160412,0.0012 0.238281,-0.0078 0.07787,-0.009 0.152675,-0.02454 0.224609,-0.04687 0.07194,-0.02235 0.140635,-0.05008 0.203125,-0.08594 0.06249,-0.03585 0.120381,-0.07937 0.169922,-0.128906 0.04068,-0.04068 0.0772,-0.120534 0.111328,-0.230469 0.03412,-0.109934 0.06469,-0.250534 0.08984,-0.414062 0.02516,-0.163529 0.04481,-0.349315 0.05859,-0.550782 0.01378,-0.201464 0.02148,-0.416879 0.02148,-0.640625 0,-0.223747 -0.0077,-0.44111 -0.02148,-0.642578 -0.01378,-0.201465 -0.03344,-0.387252 -0.05859,-0.550781 -0.02516,-0.163529 -0.05572,-0.304129 -0.08984,-0.414062 -0.03412,-0.109934 -0.07065,-0.189788 -0.111328,-0.230469 -0.05598,-0.05598 -0.123661,-0.103583 -0.197265,-0.142578 -0.07361,-0.039 -0.154807,-0.06924 -0.240235,-0.0918 -0.08543,-0.02256 -0.174175,-0.0363 -0.265625,-0.04297 -0.04573,-0.0034 -0.09076,-0.0042 -0.136718,-0.0039 z"
       style="stroke-width:0.890171"
       id="path6" /><path
       d="m 18.344819,19.957632 c -0.02313,8.01e-4 -0.0455,0.0023 -0.06836,0.0039 -0.09145,0.0067 -0.180197,0.02041 -0.265625,0.04297 -0.08543,0.02256 -0.166629,0.0528 -0.240234,0.0918 -0.07361,0.03899 -0.139332,0.0866 -0.195313,0.142578 -0.05383,0.05383 -0.100146,0.143737 -0.138671,0.259765 -0.03852,0.116031 -0.0701,0.257413 -0.09375,0.417969 -0.02365,0.160557 -0.03961,0.339937 -0.04883,0.527344 -0.0092,0.187407 -0.01061,0.383497 -0.0059,0.580078 0.0048,0.196581 0.01483,0.393954 0.0332,0.582031 0.01837,0.18808 0.04465,0.367395 0.07617,0.529297 0.03152,0.161903 0.06904,0.305779 0.113281,0.423828 0.04424,0.11805 0.09387,0.209105 0.150391,0.265625 0.115352,0.115353 0.234201,0.202635 0.351562,0.261719 0.117364,0.05908 0.234928,0.09067 0.34961,0.09766 0.114681,0.007 0.22668,-0.0118 0.333984,-0.05273 0.107305,-0.04093 0.209455,-0.104777 0.304688,-0.189453 0.09523,-0.08468 0.183254,-0.190205 0.261718,-0.314453 0.07847,-0.124249 0.146121,-0.266136 0.203125,-0.425782 0.05701,-0.159645 0.103916,-0.336473 0.134766,-0.527343 0.03085,-0.19087 0.04687,-0.395362 0.04687,-0.613282 0,-0.328101 -0.02807,-0.677741 -0.07227,-0.976562 -0.0221,-0.149411 -0.04898,-0.287303 -0.07813,-0.402344 -0.02914,-0.115041 -0.06023,-0.206892 -0.09375,-0.269531 -0.03454,-0.06454 -0.08115,-0.124386 -0.138671,-0.175781 -0.05752,-0.0514 -0.126465,-0.09511 -0.201172,-0.132813 -0.07471,-0.0377 -0.156099,-0.06834 -0.242188,-0.0918 -0.08609,-0.02346 -0.175908,-0.04016 -0.267578,-0.04883 -0.06875,-0.0065 -0.139606,-0.0083 -0.208984,-0.0059 z"
       style="stroke-width:0.890171"
       id="path5" /><path
       d="m 12.997163,19.957632 c -0.04596,-2.38e-4 -0.091,6.06e-4 -0.136719,0.0039 -0.09145,0.0067 -0.182151,0.02041 -0.267578,0.04297 -0.08543,0.02256 -0.16663,0.0528 -0.240235,0.0918 -0.0736,0.03899 -0.139332,0.0866 -0.195312,0.142578 -0.02557,0.02557 -0.0486,0.07451 -0.07031,0.148437 -0.02171,0.07392 -0.0425,0.172462 -0.06055,0.298828 -0.03608,0.252737 -0.06339,0.614492 -0.08594,1.101563 -0.02254,0.487071 -0.04027,1.099366 -0.05078,1.853516 -0.01052,0.754147 -0.01563,1.651109 -0.01563,2.705078 0,1.245168 0.0037,2.233982 0.01367,3.023437 0.01,0.789455 0.02625,1.379053 0.05273,1.822266 0.02648,0.44321 0.06375,0.740831 0.113281,0.947265 0.02477,0.103217 0.05223,0.183498 0.08399,0.248047 0.03175,0.06455 0.06786,0.112781 0.107421,0.152344 0.119163,0.119164 0.241377,0.208835 0.367188,0.267578 0.06291,0.02937 0.127168,0.05018 0.191406,0.06445 0.06424,0.01427 0.12996,0.02231 0.195313,0.02148 0.06535,-8.27e-4 0.131018,-0.0095 0.197265,-0.02539 0.06625,-0.01592 0.132297,-0.0393 0.199219,-0.07031 0.133845,-0.06203 0.269067,-0.154963 0.404297,-0.277344 0.0493,-0.04462 0.09212,-0.09228 0.130859,-0.150391 0.03874,-0.05812 0.07213,-0.125659 0.101563,-0.214844 0.02943,-0.08918 0.05479,-0.200065 0.07617,-0.33789 0.02138,-0.137825 0.04009,-0.303777 0.05469,-0.507813 0.02919,-0.408068 0.04512,-0.965807 0.05469,-1.74414 0.0096,-0.778333 0.01172,-1.777246 0.01172,-3.066407 0,-1.715785 -0.02403,-3.16843 -0.06641,-4.226562 -0.02119,-0.529065 -0.04635,-0.959802 -0.07617,-1.275391 -0.02982,-0.315586 -0.06442,-0.514584 -0.101562,-0.583984 -0.03454,-0.06454 -0.08115,-0.124386 -0.138672,-0.175781 -0.05753,-0.0514 -0.124511,-0.09511 -0.199219,-0.132813 -0.07471,-0.0377 -0.156098,-0.06834 -0.242187,-0.0918 -0.08609,-0.02346 -0.177862,-0.04016 -0.269532,-0.04883 -0.04583,-0.0044 -0.09271,-0.0056 -0.138671,-0.0059 z"
       style="stroke-width:0.890171"
       id="path4" /><path
       d="m 23.768647,19.955679 c -0.136013,0 -0.290767,0.03276 -0.431641,0.08398 -0.07044,0.02561 -0.138365,0.05606 -0.197265,0.08984 -0.0589,0.03378 -0.109575,0.07051 -0.148438,0.109375 -0.02436,0.02436 -0.04704,0.067 -0.06836,0.126953 -0.02131,0.05996 -0.04032,0.137708 -0.05859,0.228516 -0.03654,0.181612 -0.06744,0.418773 -0.0918,0.695312 -0.02436,0.276539 -0.04251,0.59229 -0.05469,0.925781 -0.01218,0.333494 -0.01758,0.684631 -0.01758,1.03711 0,0.352476 0.0054,0.705571 0.01758,1.039062 0.01218,0.333494 0.03033,0.649245 0.05469,0.925781 0.02436,0.276539 0.05526,0.513699 0.0918,0.695313 0.01827,0.09081 0.03728,0.168559 0.05859,0.228516 0.02132,0.05996 0.044,0.102593 0.06836,0.126953 0.03886,0.03886 0.08954,0.07559 0.148438,0.109375 0.0589,0.03378 0.126828,0.06424 0.197265,0.08984 0.140874,0.05123 0.295628,0.08398 0.431641,0.08398 0.115276,0 0.218525,-0.0081 0.310547,-0.02539 0.09202,-0.01731 0.172845,-0.04345 0.24414,-0.08594 0.07129,-0.04249 0.132452,-0.100256 0.185547,-0.175782 0.05309,-0.07553 0.0993,-0.170684 0.136719,-0.287109 0.03742,-0.116425 0.06752,-0.254737 0.0918,-0.419922 0.02428,-0.165185 0.04103,-0.356318 0.05469,-0.578125 0.02731,-0.443612 0.03711,-1.009292 0.03711,-1.726562 0,-0.717271 -0.0098,-1.280997 -0.03711,-1.72461 -0.01366,-0.221804 -0.03041,-0.41294 -0.05469,-0.578125 -0.02428,-0.165182 -0.05438,-0.303497 -0.0918,-0.419922 -0.03742,-0.116422 -0.08362,-0.211583 -0.136719,-0.287109 -0.05309,-0.07553 -0.114252,-0.133292 -0.185547,-0.175781 -0.07129,-0.04249 -0.152118,-0.06862 -0.24414,-0.08594 -0.09202,-0.01731 -0.195271,-0.02539 -0.310547,-0.02539 z"
       style="stroke-width:0.890171"
       id="path3" /><path
       id="path1"
       style="stroke-width:0.994593"
       d="m 20.042195,1.5392837 c -0.326098,0.00485 -0.654148,0.021268 -0.984188,0.04801 -0.330045,0.026741 -0.661763,0.06543 -0.992918,0.1134763 -0.331156,0.048046 -0.663484,0.1058189 -0.992918,0.174579 -0.329435,0.06876 -0.657131,0.1467989 -0.982007,0.2356816 -0.324879,0.088883 -0.64706,0.1883704 -0.964548,0.2967843 C 14.808128,2.5162287 14.496702,2.6339832 14.189435,2.7613367 13.882168,2.8886902 13.5802,3.0258959 13.285989,3.1715973 12.991778,3.317299 12.704509,3.4707733 12.426188,3.6342315 12.147866,3.7976902 11.878354,3.970798 11.61876,4.1514218 11.359162,4.3320456 11.110476,4.5216059 10.872435,4.7188034 10.634394,4.9160013 10.407409,5.1210142 10.193759,5.3341943 9.9027956,5.6245178 9.6419576,5.9216684 9.4125176,6.224547 c -0.229439,0.3028786 -0.428387,0.6108192 -0.597933,0.9230863 -0.169545,0.312267 -0.309889,0.6286019 -0.421171,0.9470909 -0.111284,0.3184889 -0.194124,0.6408221 -0.248775,0.9623666 -0.05465,0.3215441 -0.08109,0.643116 -0.08075,0.9645482 3.51e-4,0.321434 0.02921,0.642029 0.08293,0.960185 0.05372,0.318156 0.132402,0.633197 0.237863,0.944908 0.105462,0.311712 0.237232,0.618804 0.392803,0.920904 0.155572,0.302101 0.334963,0.598848 0.539013,0.888171 0.20405,0.289319 0.432141,0.571148 0.68304,0.844525 0.2508984,0.273379 0.5244054,0.540068 0.8205214,0.794335 0.296116,0.254264 0.616117,0.496881 0.95582,0.728867 0.339699,0.23199 0.700731,0.452489 1.08239,0.659036 0.381655,0.206546 0.78261,0.400357 1.204595,0.578292 0.42198,0.177936 0.863942,0.340481 1.324617,0.486639 0.460679,0.146158 0.940352,0.275043 1.438095,0.386256 0.257106,0.05744 0.529836,0.106021 0.813974,0.146211 0.284139,0.04019 0.580837,0.07283 0.883806,0.09602 0.302968,0.02319 0.611674,0.0372 0.925268,0.04364 0.313594,0.0065 0.63108,0.0035 0.947091,-0.0066 0.316015,-0.01006 0.630315,-0.02616 0.940544,-0.05237 0.310232,-0.02625 0.615933,-0.06255 0.912176,-0.104748 0.296244,-0.0422 0.583564,-0.0905 0.857619,-0.148391 0.274051,-0.0579 0.535398,-0.125255 0.779058,-0.198585 0.192311,-0.05788 0.381976,-0.124113 0.567382,-0.198583 0.185407,-0.07447 0.366017,-0.156395 0.543377,-0.246592 0.17736,-0.0902 0.351201,-0.187355 0.519373,-0.29242 0.168168,-0.105072 0.33098,-0.216993 0.488821,-0.336065 0.157837,-0.119072 0.30972,-0.245311 0.456087,-0.377527 0.146367,-0.132215 0.287421,-0.272309 0.421172,-0.416808 0.133752,-0.144494 0.261899,-0.293625 0.381892,-0.44954 0.119993,-0.155918 0.230971,-0.31798 0.336064,-0.484456 l 0.652488,-1.032198 h 4.752914 v 0.0066 H 52.91978 v -0.01965 c 0.500092,0.0037 0.860811,0.01321 1.494833,0.01309 1.126174,-2.21e-4 2.009407,-0.003 2.710338,-0.01527 0.700933,-0.01221 1.220612,-0.03447 1.623584,-0.06983 0.201488,-0.01769 0.372873,-0.03772 0.523737,-0.06328 0.150864,-0.02556 0.281016,-0.0568 0.397167,-0.09165 0.116152,-0.03485 0.219075,-0.0745 0.316425,-0.120023 0.09735,-0.04552 0.189232,-0.09734 0.28369,-0.154939 0.164264,-0.100156 0.313989,-0.2011 0.451723,-0.305513 0.137735,-0.104412 0.26233,-0.210658 0.375346,-0.322972 0.113014,-0.112312 0.21541,-0.229665 0.305512,-0.353522 0.0901,-0.123856 0.168864,-0.253761 0.237865,-0.392803 0.069,-0.139042 0.127054,-0.287302 0.176761,-0.445176 0.04971,-0.157874 0.09217,-0.32593 0.124387,-0.506279 0.03222,-0.180348 0.05547,-0.374009 0.07201,-0.580475 0.01655,-0.206466 0.0257,-0.427172 0.02837,-0.6634 0.0026,-0.2254455 -0.0017,-0.4342548 -0.0131,-0.6306664 -0.0114,-0.1963989 -0.03099,-0.3797364 -0.05891,-0.552106 C 61.941583,8.714512 61.905058,8.5535625 61.858221,8.4002427 61.811449,8.2469304 61.754007,8.1008691 61.685825,7.9616075 61.617647,7.8223459 61.537755,7.6902711 61.44578,7.5600759 61.353804,7.4298806 61.24975,7.302123 61.131538,7.1760021 61.013326,7.0498813 60.881263,6.9255136 60.73437,6.7984752 60.587477,6.6714366 60.425749,6.5408026 60.247731,6.4078547 60.158715,6.3413728 60.075662,6.2846496 59.968405,6.2332757 59.861144,6.181902 59.731167,6.1365081 59.545051,6.097977 59.358935,6.0594456 59.117773,6.0277286 58.792179,5.9997759 58.466582,5.9718231 58.056546,5.9474011 57.530846,5.9277622 56.47945,5.8884833 54.967276,5.8644501 52.751747,5.8448369 50.536218,5.8252237 47.616832,5.8105278 43.752201,5.7924632 39.415445,5.7721908 35.472379,5.7297098 32.614063,5.6768046 c -1.429154,-0.026452 -2.588195,-0.055285 -3.389014,-0.085107 -0.80082,-0.029822 -1.243875,-0.061655 -1.243875,-0.091654 0,-0.074616 -0.03305,-0.171765 -0.09602,-0.2858731 C 27.822196,5.1000639 27.730081,4.9698909 27.61674,4.827915 27.5034,4.6859392 27.368521,4.532229 27.217391,4.3740097 27.066261,4.2157905 26.898354,4.0523914 26.722023,3.8895531 26.36936,3.5638766 25.978296,3.2408729 25.600354,2.9664668 25.411384,2.8292636 25.22684,2.7046178 25.050429,2.5976688 24.874019,2.4907193 24.706319,2.4008708 24.555062,2.3358003 24.291195,2.2222884 24.018699,2.1211272 23.736723,2.0324693 23.454743,1.9438115 23.16327,1.8677297 22.86601,1.8033343 22.56875,1.738939 22.26572,1.6869374 21.956017,1.6462133 c -0.309707,-0.040724 -0.625592,-0.069645 -0.944908,-0.08729 -0.31932,-0.017644 -0.642815,-0.024484 -0.968914,-0.01964 z"
       sodipodi:nodetypes="sssssssssssssssscsssssscsssssscscscssssssssccccccscssssssssssssccscsssssssssssssscsssssssssss" /></g></svg>
