G04 EAGLE Gerber RS-274X export*
G75*
%MOMM*%
%FSLAX34Y34*%
%LPD*%
%INBottom Copper*%
%IPPOS*%
%AMOC8*
5,1,8,0,0,1.08239X$1,22.5*%
G01*
%ADD10C,1.500000*%
%ADD11C,9.000000*%
%ADD12P,1.484606X8X202.500000*%
%ADD13P,1.099708X8X112.500000*%
%ADD14C,0.806400*%
%ADD15C,0.706400*%
%ADD16C,0.800000*%
%ADD17C,0.600000*%
%ADD18C,0.400000*%
%ADD19C,1.000000*%
%ADD20C,1.500000*%

G36*
X518050Y11213D02*
X518050Y11213D01*
X518155Y11215D01*
X518222Y11233D01*
X518290Y11241D01*
X518389Y11276D01*
X518489Y11302D01*
X518550Y11335D01*
X518616Y11358D01*
X518703Y11415D01*
X518795Y11464D01*
X518847Y11509D01*
X518905Y11547D01*
X518977Y11622D01*
X519056Y11691D01*
X519096Y11747D01*
X519144Y11797D01*
X519197Y11887D01*
X519258Y11972D01*
X519284Y12036D01*
X519319Y12095D01*
X519350Y12195D01*
X519389Y12291D01*
X519401Y12360D01*
X519421Y12426D01*
X519428Y12530D01*
X519445Y12633D01*
X519440Y12702D01*
X519445Y12771D01*
X519428Y12873D01*
X519420Y12978D01*
X519400Y13044D01*
X519389Y13112D01*
X519349Y13208D01*
X519318Y13308D01*
X519282Y13367D01*
X519256Y13431D01*
X519195Y13516D01*
X519142Y13605D01*
X519073Y13684D01*
X519054Y13711D01*
X519037Y13726D01*
X519007Y13760D01*
X511958Y20809D01*
X505699Y31650D01*
X502459Y43741D01*
X502459Y56259D01*
X505699Y68350D01*
X511958Y79191D01*
X520809Y88042D01*
X531650Y94301D01*
X543741Y97541D01*
X556259Y97541D01*
X568350Y94301D01*
X579191Y88042D01*
X586240Y80993D01*
X586322Y80928D01*
X586397Y80856D01*
X586457Y80821D01*
X586511Y80778D01*
X586605Y80734D01*
X586695Y80681D01*
X586761Y80661D01*
X586824Y80631D01*
X586926Y80610D01*
X587026Y80579D01*
X587095Y80574D01*
X587162Y80560D01*
X587266Y80563D01*
X587371Y80555D01*
X587439Y80567D01*
X587508Y80568D01*
X587609Y80595D01*
X587712Y80611D01*
X587776Y80638D01*
X587842Y80655D01*
X587935Y80704D01*
X588031Y80744D01*
X588087Y80785D01*
X588148Y80817D01*
X588227Y80885D01*
X588311Y80946D01*
X588357Y80999D01*
X588409Y81044D01*
X588470Y81129D01*
X588538Y81207D01*
X588570Y81269D01*
X588611Y81325D01*
X588650Y81421D01*
X588699Y81514D01*
X588716Y81580D01*
X588743Y81644D01*
X588759Y81747D01*
X588785Y81848D01*
X588792Y81952D01*
X588798Y81986D01*
X588796Y82008D01*
X588799Y82053D01*
X588799Y387300D01*
X588795Y387335D01*
X588798Y387371D01*
X588775Y387507D01*
X588759Y387643D01*
X588747Y387677D01*
X588742Y387712D01*
X588689Y387839D01*
X588642Y387969D01*
X588623Y387998D01*
X588609Y388031D01*
X588528Y388143D01*
X588453Y388258D01*
X588427Y388283D01*
X588407Y388311D01*
X588303Y388402D01*
X588203Y388497D01*
X588172Y388515D01*
X588146Y388538D01*
X588023Y388602D01*
X587905Y388672D01*
X587871Y388682D01*
X587839Y388699D01*
X587706Y388733D01*
X587574Y388774D01*
X587539Y388776D01*
X587505Y388785D01*
X587300Y388799D01*
X12700Y388799D01*
X12665Y388795D01*
X12629Y388798D01*
X12493Y388775D01*
X12357Y388759D01*
X12323Y388747D01*
X12288Y388742D01*
X12161Y388689D01*
X12031Y388642D01*
X12002Y388623D01*
X11969Y388609D01*
X11857Y388528D01*
X11742Y388453D01*
X11717Y388427D01*
X11689Y388407D01*
X11598Y388303D01*
X11503Y388203D01*
X11485Y388172D01*
X11462Y388146D01*
X11398Y388023D01*
X11328Y387905D01*
X11318Y387871D01*
X11301Y387839D01*
X11267Y387706D01*
X11226Y387574D01*
X11224Y387539D01*
X11215Y387505D01*
X11201Y387300D01*
X11201Y327300D01*
X11205Y327265D01*
X11202Y327229D01*
X11225Y327093D01*
X11241Y326957D01*
X11253Y326923D01*
X11258Y326888D01*
X11311Y326761D01*
X11358Y326631D01*
X11378Y326602D01*
X11391Y326569D01*
X11472Y326457D01*
X11547Y326342D01*
X11573Y326317D01*
X11593Y326289D01*
X11698Y326198D01*
X11797Y326103D01*
X11828Y326085D01*
X11854Y326062D01*
X11977Y325998D01*
X12095Y325928D01*
X12129Y325918D01*
X12161Y325901D01*
X12294Y325867D01*
X12426Y325826D01*
X12461Y325824D01*
X12495Y325815D01*
X12700Y325801D01*
X208501Y325801D01*
X208501Y12700D01*
X208505Y12665D01*
X208502Y12629D01*
X208525Y12493D01*
X208541Y12357D01*
X208553Y12323D01*
X208558Y12288D01*
X208611Y12161D01*
X208658Y12031D01*
X208678Y12002D01*
X208691Y11969D01*
X208772Y11857D01*
X208847Y11742D01*
X208873Y11717D01*
X208893Y11689D01*
X208998Y11598D01*
X209097Y11503D01*
X209128Y11485D01*
X209154Y11462D01*
X209277Y11398D01*
X209395Y11328D01*
X209429Y11318D01*
X209461Y11301D01*
X209594Y11267D01*
X209726Y11226D01*
X209761Y11224D01*
X209795Y11215D01*
X210000Y11201D01*
X517947Y11201D01*
X518050Y11213D01*
G37*
G36*
X190035Y11205D02*
X190035Y11205D01*
X190071Y11202D01*
X190207Y11225D01*
X190343Y11241D01*
X190377Y11253D01*
X190412Y11258D01*
X190539Y11311D01*
X190669Y11358D01*
X190698Y11378D01*
X190731Y11391D01*
X190843Y11472D01*
X190958Y11547D01*
X190983Y11573D01*
X191011Y11593D01*
X191102Y11698D01*
X191197Y11797D01*
X191215Y11828D01*
X191238Y11854D01*
X191302Y11977D01*
X191372Y12095D01*
X191382Y12129D01*
X191399Y12161D01*
X191433Y12294D01*
X191474Y12426D01*
X191476Y12461D01*
X191485Y12495D01*
X191499Y12700D01*
X191499Y307300D01*
X191495Y307335D01*
X191498Y307371D01*
X191475Y307507D01*
X191459Y307643D01*
X191447Y307677D01*
X191442Y307712D01*
X191389Y307839D01*
X191342Y307969D01*
X191323Y307998D01*
X191309Y308031D01*
X191228Y308143D01*
X191153Y308258D01*
X191127Y308283D01*
X191107Y308311D01*
X191003Y308402D01*
X190903Y308497D01*
X190872Y308515D01*
X190846Y308538D01*
X190723Y308602D01*
X190605Y308672D01*
X190571Y308682D01*
X190539Y308699D01*
X190406Y308733D01*
X190274Y308774D01*
X190239Y308776D01*
X190205Y308785D01*
X190000Y308799D01*
X12700Y308799D01*
X12665Y308795D01*
X12629Y308798D01*
X12493Y308775D01*
X12357Y308759D01*
X12323Y308747D01*
X12288Y308742D01*
X12161Y308689D01*
X12031Y308642D01*
X12002Y308623D01*
X11969Y308609D01*
X11857Y308528D01*
X11742Y308453D01*
X11717Y308427D01*
X11689Y308407D01*
X11598Y308303D01*
X11503Y308203D01*
X11485Y308172D01*
X11462Y308146D01*
X11398Y308023D01*
X11328Y307905D01*
X11318Y307871D01*
X11301Y307839D01*
X11267Y307706D01*
X11226Y307574D01*
X11224Y307539D01*
X11215Y307505D01*
X11201Y307300D01*
X11201Y89912D01*
X11201Y89905D01*
X11201Y89899D01*
X11221Y89735D01*
X11241Y89568D01*
X11243Y89562D01*
X11243Y89556D01*
X11301Y89401D01*
X11358Y89243D01*
X11361Y89238D01*
X11364Y89232D01*
X11456Y89094D01*
X11547Y88953D01*
X11551Y88949D01*
X11555Y88944D01*
X11676Y88830D01*
X11797Y88715D01*
X11802Y88712D01*
X11807Y88707D01*
X11952Y88624D01*
X12095Y88540D01*
X12101Y88538D01*
X12107Y88535D01*
X12266Y88487D01*
X12426Y88438D01*
X12432Y88437D01*
X12438Y88435D01*
X12603Y88425D01*
X12771Y88414D01*
X12777Y88415D01*
X12783Y88415D01*
X12947Y88443D01*
X13112Y88470D01*
X13117Y88472D01*
X13124Y88473D01*
X13277Y88539D01*
X13431Y88603D01*
X13436Y88606D01*
X13442Y88609D01*
X13613Y88722D01*
X23336Y96183D01*
X36198Y101511D01*
X50000Y103328D01*
X63802Y101511D01*
X76664Y96183D01*
X87708Y87708D01*
X96183Y76664D01*
X101112Y64764D01*
X101138Y64718D01*
X101156Y64669D01*
X101222Y64568D01*
X101281Y64462D01*
X101316Y64423D01*
X101344Y64379D01*
X101432Y64296D01*
X101514Y64206D01*
X101557Y64177D01*
X101595Y64141D01*
X101699Y64079D01*
X101799Y64011D01*
X101848Y63992D01*
X101893Y63966D01*
X102008Y63930D01*
X102121Y63886D01*
X102173Y63879D01*
X102223Y63864D01*
X102344Y63855D01*
X102464Y63839D01*
X102516Y63844D01*
X102568Y63840D01*
X102688Y63860D01*
X102808Y63871D01*
X102858Y63887D01*
X102909Y63896D01*
X103021Y63942D01*
X103136Y63981D01*
X103180Y64009D01*
X103229Y64029D01*
X103327Y64099D01*
X103430Y64163D01*
X103467Y64200D01*
X103509Y64231D01*
X103588Y64322D01*
X103674Y64408D01*
X103701Y64453D01*
X103736Y64492D01*
X103792Y64599D01*
X103855Y64702D01*
X103872Y64752D01*
X103896Y64798D01*
X103927Y64915D01*
X103965Y65030D01*
X103970Y65082D01*
X103983Y65133D01*
X103997Y65338D01*
X103997Y162590D01*
X103995Y162609D01*
X103996Y162627D01*
X103975Y162780D01*
X103957Y162934D01*
X103951Y162951D01*
X103948Y162970D01*
X103883Y163164D01*
X102965Y165380D01*
X102965Y167995D01*
X103965Y170411D01*
X105814Y172260D01*
X108230Y173260D01*
X110845Y173260D01*
X113261Y172260D01*
X115110Y170411D01*
X116110Y167995D01*
X116110Y165380D01*
X115192Y163164D01*
X115187Y163146D01*
X115179Y163130D01*
X115140Y162980D01*
X115098Y162832D01*
X115097Y162813D01*
X115092Y162795D01*
X115078Y162590D01*
X115078Y42197D01*
X115080Y42179D01*
X115079Y42160D01*
X115100Y42007D01*
X115118Y41854D01*
X115124Y41836D01*
X115127Y41818D01*
X115192Y41623D01*
X116110Y39407D01*
X116110Y36793D01*
X115110Y34377D01*
X113261Y32528D01*
X110845Y31527D01*
X108230Y31527D01*
X105814Y32528D01*
X103965Y34377D01*
X103746Y34906D01*
X103695Y34997D01*
X103653Y35093D01*
X103611Y35148D01*
X103578Y35208D01*
X103508Y35285D01*
X103445Y35369D01*
X103391Y35413D01*
X103345Y35464D01*
X103259Y35523D01*
X103178Y35589D01*
X103116Y35620D01*
X103060Y35659D01*
X102962Y35697D01*
X102869Y35743D01*
X102801Y35759D01*
X102737Y35784D01*
X102634Y35798D01*
X102532Y35822D01*
X102463Y35822D01*
X102395Y35832D01*
X102291Y35822D01*
X102186Y35822D01*
X102119Y35806D01*
X102050Y35799D01*
X101952Y35766D01*
X101850Y35742D01*
X101788Y35711D01*
X101723Y35689D01*
X101634Y35634D01*
X101541Y35588D01*
X101488Y35543D01*
X101429Y35507D01*
X101355Y35433D01*
X101275Y35366D01*
X101233Y35311D01*
X101185Y35262D01*
X101130Y35174D01*
X101067Y35090D01*
X101021Y34996D01*
X101003Y34968D01*
X100996Y34947D01*
X100976Y34906D01*
X96183Y23336D01*
X88722Y13613D01*
X88719Y13607D01*
X88715Y13603D01*
X88630Y13459D01*
X88545Y13316D01*
X88543Y13310D01*
X88540Y13305D01*
X88490Y13145D01*
X88440Y12986D01*
X88440Y12980D01*
X88438Y12974D01*
X88426Y12807D01*
X88413Y12642D01*
X88414Y12636D01*
X88414Y12629D01*
X88441Y12466D01*
X88467Y12300D01*
X88469Y12294D01*
X88470Y12288D01*
X88533Y12136D01*
X88597Y11980D01*
X88600Y11975D01*
X88603Y11969D01*
X88700Y11834D01*
X88797Y11698D01*
X88801Y11694D01*
X88805Y11689D01*
X88932Y11578D01*
X89056Y11469D01*
X89061Y11466D01*
X89066Y11462D01*
X89216Y11383D01*
X89361Y11306D01*
X89367Y11304D01*
X89372Y11301D01*
X89536Y11259D01*
X89695Y11217D01*
X89701Y11216D01*
X89707Y11215D01*
X89912Y11201D01*
X190000Y11201D01*
X190035Y11205D01*
G37*
%LPC*%
G36*
X336136Y257452D02*
X336136Y257452D01*
X333904Y258377D01*
X333736Y258545D01*
X333626Y258632D01*
X333521Y258723D01*
X333491Y258739D01*
X333464Y258760D01*
X333338Y258819D01*
X333215Y258884D01*
X333182Y258892D01*
X333151Y258907D01*
X333015Y258935D01*
X332880Y258970D01*
X332835Y258973D01*
X332813Y258978D01*
X332779Y258977D01*
X332675Y258984D01*
X290219Y258984D01*
X201758Y347445D01*
X201649Y347532D01*
X201544Y347623D01*
X201514Y347639D01*
X201487Y347660D01*
X201361Y347719D01*
X201238Y347784D01*
X201205Y347792D01*
X201174Y347807D01*
X201038Y347835D01*
X200903Y347870D01*
X200858Y347873D01*
X200836Y347878D01*
X200802Y347877D01*
X200698Y347884D01*
X114321Y347884D01*
X114217Y347872D01*
X114113Y347870D01*
X114046Y347852D01*
X113977Y347844D01*
X113879Y347809D01*
X113778Y347783D01*
X113717Y347750D01*
X113652Y347727D01*
X113565Y347670D01*
X113473Y347621D01*
X113420Y347576D01*
X113363Y347538D01*
X113291Y347463D01*
X113212Y347394D01*
X113172Y347338D01*
X113124Y347288D01*
X113071Y347198D01*
X113010Y347113D01*
X112984Y347049D01*
X112949Y346990D01*
X112918Y346890D01*
X112878Y346794D01*
X112867Y346725D01*
X112847Y346659D01*
X112840Y346555D01*
X112823Y346452D01*
X112828Y346383D01*
X112823Y346314D01*
X112840Y346212D01*
X112847Y346107D01*
X112868Y346041D01*
X112879Y345973D01*
X112919Y345877D01*
X112950Y345777D01*
X112985Y345718D01*
X113012Y345654D01*
X113073Y345569D01*
X113126Y345480D01*
X113194Y345401D01*
X113214Y345374D01*
X113231Y345359D01*
X113261Y345325D01*
X114967Y343618D01*
X114967Y335832D01*
X109462Y330326D01*
X101676Y330326D01*
X96170Y335832D01*
X96170Y343618D01*
X97877Y345325D01*
X97942Y345407D01*
X98014Y345482D01*
X98049Y345542D01*
X98092Y345596D01*
X98136Y345690D01*
X98189Y345780D01*
X98209Y345846D01*
X98238Y345909D01*
X98260Y346011D01*
X98291Y346111D01*
X98295Y346180D01*
X98310Y346247D01*
X98307Y346351D01*
X98314Y346456D01*
X98303Y346524D01*
X98302Y346593D01*
X98275Y346694D01*
X98258Y346797D01*
X98232Y346861D01*
X98214Y346927D01*
X98166Y347020D01*
X98126Y347116D01*
X98085Y347172D01*
X98053Y347233D01*
X97984Y347312D01*
X97923Y347396D01*
X97871Y347442D01*
X97826Y347494D01*
X97741Y347555D01*
X97662Y347623D01*
X97601Y347655D01*
X97545Y347696D01*
X97449Y347735D01*
X97356Y347784D01*
X97289Y347801D01*
X97225Y347827D01*
X97123Y347844D01*
X97021Y347870D01*
X96917Y347877D01*
X96884Y347883D01*
X96862Y347881D01*
X96817Y347884D01*
X88921Y347884D01*
X88817Y347872D01*
X88713Y347870D01*
X88646Y347852D01*
X88577Y347844D01*
X88479Y347809D01*
X88378Y347783D01*
X88317Y347750D01*
X88252Y347727D01*
X88165Y347670D01*
X88073Y347621D01*
X88020Y347576D01*
X87963Y347538D01*
X87891Y347463D01*
X87812Y347394D01*
X87772Y347338D01*
X87724Y347288D01*
X87671Y347198D01*
X87610Y347113D01*
X87584Y347049D01*
X87549Y346990D01*
X87518Y346890D01*
X87478Y346794D01*
X87467Y346725D01*
X87447Y346659D01*
X87440Y346555D01*
X87423Y346452D01*
X87428Y346383D01*
X87423Y346314D01*
X87440Y346212D01*
X87447Y346107D01*
X87468Y346041D01*
X87479Y345973D01*
X87519Y345877D01*
X87550Y345777D01*
X87585Y345718D01*
X87612Y345654D01*
X87673Y345569D01*
X87726Y345480D01*
X87794Y345401D01*
X87814Y345374D01*
X87831Y345359D01*
X87861Y345325D01*
X89567Y343618D01*
X89567Y335832D01*
X84062Y330326D01*
X76276Y330326D01*
X70770Y335832D01*
X70770Y343618D01*
X72477Y345325D01*
X72542Y345407D01*
X72614Y345482D01*
X72649Y345542D01*
X72692Y345596D01*
X72736Y345690D01*
X72789Y345780D01*
X72809Y345846D01*
X72838Y345909D01*
X72860Y346011D01*
X72891Y346111D01*
X72895Y346180D01*
X72910Y346247D01*
X72907Y346351D01*
X72914Y346456D01*
X72903Y346524D01*
X72902Y346593D01*
X72875Y346694D01*
X72858Y346797D01*
X72832Y346861D01*
X72814Y346927D01*
X72766Y347020D01*
X72726Y347116D01*
X72685Y347172D01*
X72653Y347233D01*
X72584Y347312D01*
X72523Y347396D01*
X72471Y347442D01*
X72426Y347494D01*
X72341Y347555D01*
X72262Y347623D01*
X72201Y347655D01*
X72145Y347696D01*
X72049Y347735D01*
X71956Y347784D01*
X71889Y347801D01*
X71825Y347827D01*
X71723Y347844D01*
X71621Y347870D01*
X71517Y347877D01*
X71484Y347883D01*
X71462Y347881D01*
X71417Y347884D01*
X65588Y347884D01*
X58185Y355287D01*
X58076Y355374D01*
X57970Y355465D01*
X57940Y355481D01*
X57914Y355502D01*
X57788Y355561D01*
X57664Y355626D01*
X57632Y355634D01*
X57601Y355649D01*
X57465Y355677D01*
X57330Y355712D01*
X57284Y355715D01*
X57263Y355720D01*
X57229Y355719D01*
X57125Y355726D01*
X50876Y355726D01*
X45370Y361232D01*
X45370Y369018D01*
X50876Y374524D01*
X58662Y374524D01*
X64167Y369018D01*
X64167Y362769D01*
X64184Y362631D01*
X64193Y362491D01*
X64203Y362459D01*
X64207Y362425D01*
X64255Y362295D01*
X64296Y362161D01*
X64313Y362132D01*
X64325Y362100D01*
X64401Y361983D01*
X64472Y361863D01*
X64501Y361829D01*
X64514Y361811D01*
X64538Y361787D01*
X64607Y361709D01*
X68910Y357405D01*
X69020Y357318D01*
X69125Y357227D01*
X69155Y357211D01*
X69182Y357190D01*
X69308Y357131D01*
X69431Y357066D01*
X69464Y357058D01*
X69495Y357043D01*
X69631Y357015D01*
X69766Y356980D01*
X69811Y356977D01*
X69833Y356972D01*
X69867Y356973D01*
X69971Y356966D01*
X71417Y356966D01*
X71520Y356978D01*
X71625Y356980D01*
X71692Y356998D01*
X71760Y357006D01*
X71858Y357041D01*
X71959Y357067D01*
X72020Y357100D01*
X72085Y357123D01*
X72173Y357180D01*
X72265Y357229D01*
X72317Y357274D01*
X72375Y357312D01*
X72447Y357387D01*
X72526Y357456D01*
X72566Y357512D01*
X72614Y357562D01*
X72666Y357652D01*
X72727Y357737D01*
X72754Y357801D01*
X72789Y357860D01*
X72819Y357960D01*
X72859Y358056D01*
X72870Y358125D01*
X72891Y358191D01*
X72898Y358295D01*
X72914Y358398D01*
X72910Y358467D01*
X72914Y358536D01*
X72897Y358638D01*
X72890Y358743D01*
X72870Y358809D01*
X72858Y358877D01*
X72818Y358973D01*
X72787Y359073D01*
X72752Y359132D01*
X72726Y359196D01*
X72665Y359281D01*
X72612Y359370D01*
X72543Y359449D01*
X72523Y359476D01*
X72506Y359491D01*
X72477Y359525D01*
X70770Y361232D01*
X70770Y369018D01*
X76276Y374524D01*
X84062Y374524D01*
X89567Y369018D01*
X89567Y361232D01*
X87861Y359525D01*
X87796Y359443D01*
X87724Y359368D01*
X87689Y359308D01*
X87646Y359254D01*
X87602Y359160D01*
X87549Y359070D01*
X87529Y359004D01*
X87499Y358941D01*
X87478Y358839D01*
X87447Y358739D01*
X87442Y358670D01*
X87428Y358603D01*
X87430Y358499D01*
X87423Y358394D01*
X87434Y358326D01*
X87436Y358257D01*
X87462Y358156D01*
X87479Y358053D01*
X87506Y357989D01*
X87523Y357923D01*
X87572Y357830D01*
X87612Y357734D01*
X87652Y357678D01*
X87685Y357617D01*
X87753Y357538D01*
X87814Y357454D01*
X87866Y357408D01*
X87912Y357356D01*
X87996Y357295D01*
X88075Y357227D01*
X88137Y357195D01*
X88193Y357154D01*
X88289Y357115D01*
X88381Y357066D01*
X88448Y357049D01*
X88512Y357023D01*
X88615Y357006D01*
X88716Y356980D01*
X88820Y356973D01*
X88853Y356967D01*
X88876Y356969D01*
X88921Y356966D01*
X96817Y356966D01*
X96920Y356978D01*
X97025Y356980D01*
X97092Y356998D01*
X97160Y357006D01*
X97258Y357041D01*
X97359Y357067D01*
X97420Y357100D01*
X97485Y357123D01*
X97573Y357180D01*
X97665Y357229D01*
X97717Y357274D01*
X97775Y357312D01*
X97847Y357387D01*
X97926Y357456D01*
X97966Y357512D01*
X98014Y357562D01*
X98066Y357652D01*
X98127Y357737D01*
X98154Y357801D01*
X98189Y357860D01*
X98219Y357960D01*
X98259Y358056D01*
X98270Y358125D01*
X98291Y358191D01*
X98298Y358295D01*
X98314Y358398D01*
X98310Y358467D01*
X98314Y358536D01*
X98297Y358638D01*
X98290Y358743D01*
X98270Y358809D01*
X98258Y358877D01*
X98218Y358973D01*
X98187Y359073D01*
X98152Y359132D01*
X98126Y359196D01*
X98065Y359281D01*
X98012Y359370D01*
X97943Y359449D01*
X97923Y359476D01*
X97906Y359491D01*
X97877Y359525D01*
X96170Y361232D01*
X96170Y369018D01*
X101676Y374524D01*
X109462Y374524D01*
X114967Y369018D01*
X114967Y361232D01*
X113261Y359525D01*
X113196Y359443D01*
X113124Y359368D01*
X113089Y359308D01*
X113046Y359254D01*
X113002Y359160D01*
X112949Y359070D01*
X112929Y359004D01*
X112899Y358941D01*
X112878Y358839D01*
X112847Y358739D01*
X112842Y358670D01*
X112828Y358603D01*
X112830Y358499D01*
X112823Y358394D01*
X112834Y358326D01*
X112836Y358257D01*
X112862Y358156D01*
X112879Y358053D01*
X112906Y357989D01*
X112923Y357923D01*
X112972Y357830D01*
X113012Y357734D01*
X113052Y357678D01*
X113085Y357617D01*
X113153Y357538D01*
X113214Y357454D01*
X113266Y357408D01*
X113312Y357356D01*
X113396Y357295D01*
X113475Y357227D01*
X113537Y357195D01*
X113593Y357154D01*
X113689Y357115D01*
X113781Y357066D01*
X113848Y357049D01*
X113912Y357023D01*
X114015Y357006D01*
X114116Y356980D01*
X114220Y356973D01*
X114253Y356967D01*
X114276Y356969D01*
X114321Y356966D01*
X205081Y356966D01*
X208180Y353867D01*
X286819Y275228D01*
X286941Y275131D01*
X287062Y275031D01*
X287077Y275023D01*
X287090Y275013D01*
X287232Y274946D01*
X287371Y274877D01*
X287388Y274873D01*
X287403Y274866D01*
X287556Y274834D01*
X287708Y274798D01*
X287725Y274798D01*
X287741Y274795D01*
X287898Y274799D01*
X288054Y274799D01*
X288070Y274803D01*
X288087Y274803D01*
X288238Y274842D01*
X288390Y274878D01*
X288405Y274886D01*
X288422Y274890D01*
X288559Y274962D01*
X288699Y275033D01*
X288712Y275044D01*
X288727Y275052D01*
X288844Y275154D01*
X288965Y275254D01*
X288975Y275268D01*
X288988Y275279D01*
X289079Y275406D01*
X289173Y275530D01*
X289183Y275550D01*
X289190Y275560D01*
X289200Y275585D01*
X289264Y275714D01*
X289703Y276773D01*
X291552Y278622D01*
X293968Y279623D01*
X296582Y279623D01*
X298998Y278622D01*
X299590Y278030D01*
X299699Y277943D01*
X299805Y277852D01*
X299835Y277836D01*
X299861Y277815D01*
X299987Y277756D01*
X300111Y277691D01*
X300144Y277683D01*
X300174Y277668D01*
X300311Y277640D01*
X300446Y277605D01*
X300491Y277602D01*
X300513Y277597D01*
X300546Y277598D01*
X300651Y277591D01*
X439711Y277591D01*
X439798Y277601D01*
X439886Y277601D01*
X439969Y277621D01*
X440054Y277631D01*
X440137Y277660D01*
X440222Y277680D01*
X440299Y277719D01*
X440380Y277748D01*
X440453Y277796D01*
X440531Y277835D01*
X440597Y277890D01*
X440669Y277937D01*
X440730Y278000D01*
X440797Y278056D01*
X440849Y278125D01*
X440908Y278187D01*
X440952Y278263D01*
X441005Y278333D01*
X441069Y278461D01*
X441083Y278485D01*
X441086Y278497D01*
X441096Y278516D01*
X441188Y278738D01*
X444012Y281562D01*
X447703Y283091D01*
X466697Y283091D01*
X470388Y281562D01*
X473212Y278738D01*
X474741Y275047D01*
X474741Y271053D01*
X473212Y267362D01*
X470388Y264538D01*
X466697Y263009D01*
X447703Y263009D01*
X444012Y264538D01*
X441188Y267362D01*
X441096Y267584D01*
X441054Y267660D01*
X441020Y267741D01*
X440970Y267811D01*
X440928Y267886D01*
X440869Y267950D01*
X440818Y268021D01*
X440753Y268078D01*
X440695Y268141D01*
X440623Y268191D01*
X440557Y268248D01*
X440480Y268288D01*
X440410Y268337D01*
X440328Y268368D01*
X440251Y268409D01*
X440167Y268430D01*
X440087Y268461D01*
X440001Y268473D01*
X439916Y268495D01*
X439772Y268505D01*
X439745Y268509D01*
X439733Y268508D01*
X439711Y268509D01*
X344096Y268509D01*
X343941Y268491D01*
X343785Y268477D01*
X343769Y268471D01*
X343753Y268469D01*
X343605Y268416D01*
X343458Y268367D01*
X343443Y268358D01*
X343427Y268352D01*
X343296Y268266D01*
X343164Y268184D01*
X343152Y268172D01*
X343138Y268163D01*
X343030Y268050D01*
X342920Y267940D01*
X342911Y267925D01*
X342899Y267913D01*
X342820Y267778D01*
X342738Y267645D01*
X342733Y267629D01*
X342724Y267615D01*
X342678Y267466D01*
X342629Y267317D01*
X342627Y267301D01*
X342622Y267284D01*
X342611Y267128D01*
X342597Y266973D01*
X342600Y266956D01*
X342598Y266939D01*
X342624Y266785D01*
X342646Y266631D01*
X342653Y266610D01*
X342654Y266598D01*
X342665Y266573D01*
X342711Y266436D01*
X343416Y264733D01*
X343416Y262317D01*
X342492Y260085D01*
X340784Y258377D01*
X338552Y257452D01*
X336136Y257452D01*
G37*
%LPD*%
%LPC*%
G36*
X328198Y283646D02*
X328198Y283646D01*
X325966Y284571D01*
X324258Y286279D01*
X323334Y288511D01*
X323334Y290927D01*
X324258Y293159D01*
X324426Y293327D01*
X324513Y293436D01*
X324604Y293542D01*
X324620Y293572D01*
X324641Y293598D01*
X324700Y293724D01*
X324765Y293848D01*
X324774Y293881D01*
X324788Y293911D01*
X324817Y294047D01*
X324851Y294183D01*
X324855Y294228D01*
X324859Y294249D01*
X324858Y294283D01*
X324866Y294387D01*
X324866Y301918D01*
X341019Y318072D01*
X500950Y318072D01*
X501089Y318088D01*
X501228Y318098D01*
X501260Y318108D01*
X501294Y318112D01*
X501425Y318159D01*
X501558Y318201D01*
X501587Y318218D01*
X501619Y318229D01*
X501736Y318305D01*
X501856Y318376D01*
X501890Y318406D01*
X501909Y318418D01*
X501932Y318443D01*
X502010Y318511D01*
X502179Y318679D01*
X504411Y319604D01*
X506827Y319604D01*
X509059Y318679D01*
X510767Y316971D01*
X511691Y314739D01*
X511691Y312323D01*
X511315Y311414D01*
X511272Y311263D01*
X511226Y311114D01*
X511225Y311097D01*
X511220Y311081D01*
X511213Y310926D01*
X511202Y310769D01*
X511205Y310753D01*
X511204Y310736D01*
X511233Y310582D01*
X511258Y310428D01*
X511265Y310413D01*
X511268Y310396D01*
X511331Y310253D01*
X511391Y310109D01*
X511401Y310095D01*
X511408Y310080D01*
X511502Y309955D01*
X511593Y309829D01*
X511606Y309817D01*
X511616Y309804D01*
X511736Y309704D01*
X511854Y309602D01*
X511869Y309594D01*
X511882Y309583D01*
X512022Y309514D01*
X512160Y309441D01*
X512177Y309437D01*
X512192Y309429D01*
X512344Y309394D01*
X512495Y309355D01*
X512517Y309353D01*
X512529Y309351D01*
X512556Y309351D01*
X512700Y309341D01*
X532787Y309341D01*
X532925Y309357D01*
X533064Y309367D01*
X533097Y309377D01*
X533130Y309381D01*
X533261Y309428D01*
X533395Y309469D01*
X533424Y309487D01*
X533456Y309498D01*
X533572Y309574D01*
X533692Y309645D01*
X533726Y309675D01*
X533745Y309687D01*
X533768Y309711D01*
X533847Y309780D01*
X534439Y310372D01*
X536855Y311373D01*
X539470Y311373D01*
X541886Y310372D01*
X543735Y308523D01*
X544735Y306107D01*
X544735Y303493D01*
X543735Y301077D01*
X541886Y299228D01*
X539470Y298227D01*
X536855Y298227D01*
X534439Y299228D01*
X533847Y299820D01*
X533738Y299907D01*
X533633Y299998D01*
X533603Y300014D01*
X533576Y300035D01*
X533450Y300094D01*
X533326Y300159D01*
X533294Y300167D01*
X533263Y300182D01*
X533127Y300210D01*
X532992Y300245D01*
X532947Y300248D01*
X532925Y300253D01*
X532891Y300252D01*
X532787Y300259D01*
X349371Y300259D01*
X349232Y300243D01*
X349093Y300233D01*
X349061Y300223D01*
X349027Y300219D01*
X348896Y300172D01*
X348763Y300131D01*
X348734Y300113D01*
X348702Y300102D01*
X348585Y300026D01*
X348465Y299955D01*
X348431Y299925D01*
X348412Y299913D01*
X348389Y299889D01*
X348310Y299820D01*
X344649Y296159D01*
X344563Y296050D01*
X344471Y295944D01*
X344456Y295914D01*
X344435Y295888D01*
X344376Y295762D01*
X344311Y295638D01*
X344302Y295606D01*
X344288Y295575D01*
X344259Y295439D01*
X344224Y295304D01*
X344221Y295258D01*
X344217Y295237D01*
X344217Y295203D01*
X344210Y295099D01*
X344210Y294861D01*
X343286Y292629D01*
X341577Y290921D01*
X339345Y289996D01*
X336978Y289996D01*
X336943Y289992D01*
X336908Y289994D01*
X336772Y289972D01*
X336635Y289956D01*
X336601Y289944D01*
X336566Y289938D01*
X336439Y289886D01*
X336310Y289839D01*
X336280Y289819D01*
X336247Y289806D01*
X336136Y289725D01*
X336020Y289650D01*
X335996Y289624D01*
X335967Y289603D01*
X335876Y289499D01*
X335781Y289400D01*
X335763Y289369D01*
X335740Y289342D01*
X335676Y289220D01*
X335606Y289101D01*
X335596Y289068D01*
X335579Y289036D01*
X335545Y288903D01*
X335504Y288771D01*
X335502Y288736D01*
X335493Y288701D01*
X335480Y288514D01*
X334554Y286279D01*
X332846Y284571D01*
X330614Y283646D01*
X328198Y283646D01*
G37*
%LPD*%
%LPC*%
G36*
X251899Y95027D02*
X251899Y95027D01*
X249483Y96028D01*
X247634Y97877D01*
X246634Y100293D01*
X246634Y102907D01*
X247634Y105323D01*
X249201Y106890D01*
X249223Y106918D01*
X249250Y106941D01*
X249330Y107053D01*
X249416Y107161D01*
X249431Y107193D01*
X249451Y107222D01*
X249504Y107349D01*
X249562Y107474D01*
X249570Y107509D01*
X249583Y107541D01*
X249605Y107678D01*
X249634Y107812D01*
X249633Y107848D01*
X249638Y107883D01*
X249629Y108020D01*
X249626Y108158D01*
X249617Y108192D01*
X249614Y108228D01*
X249573Y108359D01*
X249538Y108492D01*
X249522Y108524D01*
X249511Y108558D01*
X249441Y108677D01*
X249377Y108798D01*
X249354Y108825D01*
X249336Y108856D01*
X249201Y109010D01*
X247634Y110577D01*
X246634Y112993D01*
X246634Y115607D01*
X247634Y118023D01*
X248226Y118615D01*
X248313Y118724D01*
X248404Y118830D01*
X248420Y118860D01*
X248441Y118886D01*
X248500Y119012D01*
X248565Y119136D01*
X248574Y119169D01*
X248588Y119199D01*
X248617Y119336D01*
X248651Y119471D01*
X248655Y119516D01*
X248659Y119538D01*
X248658Y119571D01*
X248666Y119676D01*
X248666Y178887D01*
X283945Y214167D01*
X284032Y214276D01*
X284123Y214381D01*
X284139Y214411D01*
X284160Y214438D01*
X284219Y214564D01*
X284284Y214687D01*
X284292Y214720D01*
X284307Y214751D01*
X284335Y214887D01*
X284370Y215022D01*
X284373Y215067D01*
X284378Y215089D01*
X284377Y215123D01*
X284384Y215227D01*
X284384Y229574D01*
X284368Y229712D01*
X284358Y229852D01*
X284348Y229884D01*
X284344Y229918D01*
X284297Y230049D01*
X284256Y230182D01*
X284238Y230211D01*
X284227Y230243D01*
X284151Y230360D01*
X284080Y230480D01*
X284050Y230514D01*
X284038Y230533D01*
X284014Y230556D01*
X283945Y230635D01*
X283353Y231227D01*
X282352Y233643D01*
X282352Y236257D01*
X283353Y238673D01*
X285202Y240522D01*
X287618Y241523D01*
X290232Y241523D01*
X292648Y240522D01*
X293818Y239352D01*
X293846Y239330D01*
X293869Y239304D01*
X293981Y239223D01*
X294089Y239138D01*
X294121Y239123D01*
X294150Y239102D01*
X294278Y239049D01*
X294402Y238991D01*
X294437Y238983D01*
X294469Y238970D01*
X294606Y238948D01*
X294740Y238919D01*
X294776Y238920D01*
X294811Y238915D01*
X294948Y238924D01*
X295086Y238928D01*
X295120Y238937D01*
X295156Y238939D01*
X295287Y238980D01*
X295421Y239015D01*
X295452Y239031D01*
X295486Y239042D01*
X295604Y239112D01*
X295726Y239176D01*
X295753Y239199D01*
X295784Y239217D01*
X295938Y239352D01*
X297108Y240522D01*
X299524Y241523D01*
X302139Y241523D01*
X304554Y240522D01*
X306403Y238673D01*
X307404Y236257D01*
X307404Y233643D01*
X306403Y231227D01*
X305811Y230635D01*
X305725Y230526D01*
X305633Y230420D01*
X305617Y230390D01*
X305596Y230364D01*
X305537Y230238D01*
X305472Y230114D01*
X305464Y230081D01*
X305450Y230051D01*
X305421Y229914D01*
X305386Y229779D01*
X305383Y229734D01*
X305378Y229712D01*
X305379Y229679D01*
X305372Y229574D01*
X305372Y207669D01*
X268505Y170802D01*
X268418Y170693D01*
X268327Y170587D01*
X268311Y170557D01*
X268290Y170531D01*
X268231Y170405D01*
X268166Y170281D01*
X268158Y170249D01*
X268143Y170218D01*
X268115Y170082D01*
X268080Y169947D01*
X268077Y169901D01*
X268072Y169880D01*
X268073Y169846D01*
X268066Y169742D01*
X268066Y110038D01*
X260218Y102190D01*
X260148Y102101D01*
X260107Y102059D01*
X260096Y102040D01*
X260040Y101976D01*
X260024Y101946D01*
X260003Y101919D01*
X259944Y101793D01*
X259879Y101670D01*
X259871Y101637D01*
X259857Y101606D01*
X259828Y101470D01*
X259793Y101335D01*
X259790Y101290D01*
X259785Y101268D01*
X259786Y101234D01*
X259779Y101130D01*
X259779Y100293D01*
X258778Y97877D01*
X256929Y96028D01*
X254514Y95027D01*
X251899Y95027D01*
G37*
%LPD*%
%LPC*%
G36*
X170143Y37877D02*
X170143Y37877D01*
X167727Y38878D01*
X165878Y40727D01*
X164877Y43143D01*
X164877Y45757D01*
X165878Y48173D01*
X167310Y49605D01*
X167375Y49687D01*
X167447Y49763D01*
X167482Y49822D01*
X167525Y49876D01*
X167569Y49971D01*
X167622Y50061D01*
X167642Y50127D01*
X167672Y50189D01*
X167693Y50292D01*
X167724Y50391D01*
X167729Y50460D01*
X167743Y50528D01*
X167740Y50632D01*
X167748Y50736D01*
X167736Y50804D01*
X167735Y50873D01*
X167708Y50974D01*
X167692Y51077D01*
X167665Y51141D01*
X167648Y51208D01*
X167599Y51300D01*
X167559Y51397D01*
X167519Y51453D01*
X167486Y51514D01*
X167418Y51592D01*
X167357Y51677D01*
X167304Y51722D01*
X167259Y51774D01*
X167174Y51835D01*
X167096Y51904D01*
X167034Y51936D01*
X166978Y51976D01*
X166882Y52016D01*
X166789Y52064D01*
X166722Y52082D01*
X166659Y52108D01*
X166556Y52125D01*
X166455Y52151D01*
X166351Y52158D01*
X166317Y52163D01*
X166295Y52162D01*
X166250Y52165D01*
X165380Y52165D01*
X162964Y53165D01*
X161115Y55014D01*
X160115Y57430D01*
X160115Y60045D01*
X161115Y62461D01*
X162964Y64310D01*
X164396Y64903D01*
X164473Y64945D01*
X164554Y64979D01*
X164623Y65029D01*
X164698Y65071D01*
X164763Y65130D01*
X164834Y65181D01*
X164890Y65246D01*
X164954Y65304D01*
X165003Y65376D01*
X165061Y65442D01*
X165101Y65518D01*
X165149Y65589D01*
X165181Y65671D01*
X165221Y65748D01*
X165243Y65832D01*
X165274Y65912D01*
X165286Y65998D01*
X165308Y66083D01*
X165318Y66227D01*
X165321Y66254D01*
X165320Y66266D01*
X165322Y66288D01*
X165322Y179267D01*
X165306Y179405D01*
X165296Y179544D01*
X165286Y179577D01*
X165282Y179610D01*
X165235Y179741D01*
X165193Y179875D01*
X165176Y179904D01*
X165164Y179936D01*
X165088Y180052D01*
X165017Y180172D01*
X164988Y180206D01*
X164976Y180225D01*
X164951Y180248D01*
X164883Y180327D01*
X162941Y182269D01*
X162941Y193856D01*
X162924Y193994D01*
X162915Y194133D01*
X162905Y194166D01*
X162901Y194199D01*
X162853Y194330D01*
X162812Y194463D01*
X162795Y194493D01*
X162783Y194524D01*
X162707Y194641D01*
X162636Y194761D01*
X162607Y194795D01*
X162594Y194814D01*
X162570Y194837D01*
X162501Y194916D01*
X161909Y195508D01*
X160909Y197924D01*
X160909Y200539D01*
X161909Y202954D01*
X163758Y204803D01*
X166174Y205804D01*
X168789Y205804D01*
X171204Y204803D01*
X173053Y202954D01*
X174054Y200539D01*
X174054Y197924D01*
X173318Y196147D01*
X173289Y196047D01*
X173252Y195949D01*
X173242Y195881D01*
X173223Y195814D01*
X173218Y195710D01*
X173204Y195607D01*
X173211Y195538D01*
X173207Y195469D01*
X173227Y195366D01*
X173236Y195262D01*
X173258Y195197D01*
X173271Y195129D01*
X173313Y195034D01*
X173346Y194935D01*
X173383Y194876D01*
X173411Y194813D01*
X173474Y194730D01*
X173529Y194641D01*
X173578Y194592D01*
X173619Y194537D01*
X173699Y194470D01*
X173773Y194397D01*
X173832Y194360D01*
X173885Y194316D01*
X173979Y194270D01*
X174068Y194215D01*
X174133Y194193D01*
X174195Y194162D01*
X174297Y194139D01*
X174396Y194106D01*
X174464Y194099D01*
X174532Y194084D01*
X174636Y194084D01*
X174740Y194074D01*
X174808Y194084D01*
X174877Y194084D01*
X174979Y194108D01*
X175082Y194122D01*
X175181Y194156D01*
X175214Y194163D01*
X175234Y194173D01*
X175277Y194188D01*
X176493Y194691D01*
X179107Y194691D01*
X181523Y193691D01*
X183372Y191842D01*
X184373Y189426D01*
X184373Y186811D01*
X183372Y184396D01*
X182780Y183803D01*
X182693Y183694D01*
X182602Y183589D01*
X182586Y183559D01*
X182565Y183532D01*
X182506Y183406D01*
X182441Y183283D01*
X182433Y183250D01*
X182418Y183219D01*
X182390Y183083D01*
X182355Y182948D01*
X182352Y182903D01*
X182347Y182881D01*
X182348Y182847D01*
X182341Y182743D01*
X182341Y48919D01*
X178462Y45040D01*
X178375Y44931D01*
X178284Y44826D01*
X178268Y44796D01*
X178247Y44769D01*
X178188Y44643D01*
X178123Y44520D01*
X178115Y44487D01*
X178100Y44456D01*
X178072Y44320D01*
X178037Y44185D01*
X178034Y44140D01*
X178029Y44118D01*
X178030Y44084D01*
X178023Y43980D01*
X178023Y43143D01*
X177022Y40727D01*
X175173Y38878D01*
X172757Y37877D01*
X170143Y37877D01*
G37*
%LPD*%
%LPC*%
G36*
X417103Y155059D02*
X417103Y155059D01*
X413412Y156588D01*
X410588Y159412D01*
X409059Y163103D01*
X409059Y167097D01*
X410588Y170788D01*
X411120Y171320D01*
X411207Y171429D01*
X411298Y171534D01*
X411314Y171564D01*
X411335Y171591D01*
X411394Y171717D01*
X411459Y171841D01*
X411467Y171873D01*
X411482Y171904D01*
X411510Y172040D01*
X411545Y172175D01*
X411548Y172220D01*
X411553Y172242D01*
X411552Y172276D01*
X411559Y172380D01*
X411559Y230100D01*
X412707Y232872D01*
X433878Y254043D01*
X436650Y255191D01*
X442420Y255191D01*
X442558Y255207D01*
X442698Y255217D01*
X442730Y255227D01*
X442763Y255231D01*
X442895Y255278D01*
X443028Y255319D01*
X443057Y255337D01*
X443089Y255348D01*
X443206Y255424D01*
X443325Y255495D01*
X443359Y255525D01*
X443378Y255537D01*
X443401Y255561D01*
X443480Y255630D01*
X444012Y256162D01*
X447703Y257691D01*
X466697Y257691D01*
X470388Y256162D01*
X473212Y253338D01*
X474741Y249647D01*
X474741Y245653D01*
X473212Y241962D01*
X470388Y239138D01*
X466697Y237609D01*
X447703Y237609D01*
X444012Y239138D01*
X443480Y239670D01*
X443371Y239757D01*
X443266Y239848D01*
X443236Y239864D01*
X443209Y239885D01*
X443083Y239944D01*
X442959Y240009D01*
X442927Y240017D01*
X442896Y240032D01*
X442760Y240060D01*
X442625Y240095D01*
X442580Y240098D01*
X442558Y240103D01*
X442524Y240102D01*
X442420Y240109D01*
X441894Y240109D01*
X441756Y240093D01*
X441617Y240083D01*
X441585Y240073D01*
X441551Y240069D01*
X441420Y240022D01*
X441287Y239981D01*
X441258Y239963D01*
X441226Y239952D01*
X441109Y239876D01*
X440989Y239805D01*
X440955Y239775D01*
X440936Y239763D01*
X440913Y239739D01*
X440834Y239670D01*
X427080Y225916D01*
X426993Y225807D01*
X426902Y225701D01*
X426886Y225671D01*
X426865Y225645D01*
X426806Y225519D01*
X426741Y225395D01*
X426733Y225362D01*
X426718Y225332D01*
X426690Y225195D01*
X426655Y225060D01*
X426652Y225015D01*
X426647Y224993D01*
X426648Y224960D01*
X426641Y224856D01*
X426641Y172380D01*
X426657Y172242D01*
X426667Y172103D01*
X426677Y172070D01*
X426681Y172037D01*
X426728Y171906D01*
X426769Y171772D01*
X426787Y171743D01*
X426798Y171711D01*
X426874Y171595D01*
X426945Y171475D01*
X426975Y171441D01*
X426987Y171422D01*
X427011Y171399D01*
X427080Y171320D01*
X427612Y170788D01*
X429141Y167097D01*
X429141Y163103D01*
X427612Y159412D01*
X424788Y156588D01*
X421097Y155059D01*
X417103Y155059D01*
G37*
%LPD*%
%LPC*%
G36*
X42349Y143446D02*
X42349Y143446D01*
X39933Y144447D01*
X38084Y146296D01*
X37084Y148711D01*
X37084Y151326D01*
X38084Y153742D01*
X38676Y154334D01*
X38763Y154443D01*
X38854Y154549D01*
X38870Y154579D01*
X38891Y154605D01*
X38950Y154731D01*
X39015Y154855D01*
X39024Y154888D01*
X39038Y154918D01*
X39067Y155054D01*
X39101Y155190D01*
X39105Y155235D01*
X39109Y155257D01*
X39108Y155290D01*
X39116Y155394D01*
X39116Y204287D01*
X99719Y264891D01*
X122211Y264891D01*
X122298Y264901D01*
X122386Y264901D01*
X122469Y264921D01*
X122554Y264931D01*
X122637Y264960D01*
X122722Y264980D01*
X122799Y265019D01*
X122880Y265048D01*
X122953Y265096D01*
X123031Y265135D01*
X123097Y265190D01*
X123169Y265237D01*
X123230Y265300D01*
X123297Y265356D01*
X123349Y265425D01*
X123408Y265487D01*
X123452Y265563D01*
X123505Y265633D01*
X123569Y265761D01*
X123583Y265785D01*
X123586Y265797D01*
X123596Y265816D01*
X123688Y266038D01*
X126512Y268862D01*
X130203Y270391D01*
X149197Y270391D01*
X152888Y268862D01*
X155712Y266038D01*
X157241Y262347D01*
X157241Y258353D01*
X155712Y254662D01*
X152888Y251838D01*
X149197Y250309D01*
X130203Y250309D01*
X126512Y251838D01*
X123688Y254662D01*
X123596Y254884D01*
X123554Y254960D01*
X123520Y255041D01*
X123470Y255111D01*
X123428Y255186D01*
X123369Y255250D01*
X123318Y255321D01*
X123253Y255378D01*
X123195Y255441D01*
X123123Y255491D01*
X123057Y255548D01*
X122980Y255588D01*
X122910Y255637D01*
X122828Y255668D01*
X122751Y255709D01*
X122667Y255730D01*
X122587Y255761D01*
X122501Y255773D01*
X122416Y255795D01*
X122272Y255805D01*
X122245Y255809D01*
X122233Y255808D01*
X122211Y255809D01*
X104102Y255809D01*
X103964Y255793D01*
X103824Y255783D01*
X103792Y255773D01*
X103758Y255769D01*
X103628Y255722D01*
X103494Y255681D01*
X103465Y255663D01*
X103433Y255652D01*
X103316Y255576D01*
X103196Y255505D01*
X103162Y255475D01*
X103144Y255463D01*
X103120Y255439D01*
X103042Y255370D01*
X48636Y200965D01*
X48550Y200855D01*
X48458Y200750D01*
X48442Y200720D01*
X48421Y200693D01*
X48362Y200567D01*
X48297Y200444D01*
X48289Y200411D01*
X48275Y200380D01*
X48246Y200244D01*
X48211Y200109D01*
X48208Y200064D01*
X48203Y200042D01*
X48204Y200008D01*
X48197Y199904D01*
X48197Y155394D01*
X48213Y155256D01*
X48223Y155117D01*
X48233Y155084D01*
X48237Y155051D01*
X48284Y154920D01*
X48326Y154787D01*
X48343Y154757D01*
X48354Y154726D01*
X48430Y154609D01*
X48501Y154489D01*
X48531Y154455D01*
X48543Y154436D01*
X48568Y154413D01*
X48636Y154334D01*
X49228Y153742D01*
X50229Y151326D01*
X50229Y148711D01*
X49228Y146296D01*
X47379Y144447D01*
X44964Y143446D01*
X42349Y143446D01*
G37*
%LPD*%
%LPC*%
G36*
X366993Y69627D02*
X366993Y69627D01*
X364577Y70628D01*
X362728Y72477D01*
X361727Y74893D01*
X361727Y77507D01*
X362728Y79923D01*
X363320Y80515D01*
X363407Y80624D01*
X363498Y80730D01*
X363514Y80760D01*
X363535Y80786D01*
X363594Y80912D01*
X363659Y81036D01*
X363667Y81069D01*
X363682Y81099D01*
X363710Y81236D01*
X363745Y81371D01*
X363748Y81416D01*
X363753Y81438D01*
X363752Y81471D01*
X363759Y81576D01*
X363759Y163823D01*
X363755Y163858D01*
X363758Y163893D01*
X363735Y164029D01*
X363719Y164166D01*
X363707Y164199D01*
X363702Y164234D01*
X363649Y164361D01*
X363602Y164491D01*
X363583Y164521D01*
X363569Y164554D01*
X363488Y164665D01*
X363413Y164781D01*
X363387Y164805D01*
X363367Y164834D01*
X363263Y164924D01*
X363163Y165019D01*
X363132Y165037D01*
X363106Y165061D01*
X362983Y165125D01*
X362865Y165194D01*
X362831Y165205D01*
X362799Y165221D01*
X362666Y165256D01*
X362534Y165296D01*
X362499Y165299D01*
X362465Y165308D01*
X362260Y165322D01*
X355506Y165322D01*
X355368Y165306D01*
X355228Y165296D01*
X355196Y165286D01*
X355163Y165282D01*
X355032Y165235D01*
X354898Y165193D01*
X354869Y165176D01*
X354837Y165164D01*
X354721Y165088D01*
X354600Y165017D01*
X354566Y164988D01*
X354548Y164976D01*
X354524Y164951D01*
X354446Y164883D01*
X354150Y164587D01*
X351918Y163663D01*
X349503Y163663D01*
X347271Y164587D01*
X345562Y166296D01*
X344638Y168528D01*
X344638Y170943D01*
X345562Y173175D01*
X347271Y174884D01*
X349503Y175808D01*
X351918Y175808D01*
X354150Y174884D01*
X354192Y174842D01*
X354301Y174756D01*
X354406Y174664D01*
X354436Y174649D01*
X354463Y174628D01*
X354589Y174569D01*
X354712Y174504D01*
X354745Y174495D01*
X354776Y174481D01*
X354912Y174452D01*
X355047Y174417D01*
X355092Y174414D01*
X355114Y174410D01*
X355148Y174410D01*
X355252Y174403D01*
X362260Y174403D01*
X362295Y174407D01*
X362331Y174405D01*
X362467Y174427D01*
X362603Y174443D01*
X362637Y174455D01*
X362672Y174461D01*
X362799Y174514D01*
X362929Y174561D01*
X362958Y174580D01*
X362991Y174594D01*
X363103Y174674D01*
X363218Y174749D01*
X363243Y174775D01*
X363271Y174796D01*
X363362Y174900D01*
X363457Y175000D01*
X363475Y175030D01*
X363498Y175057D01*
X363562Y175179D01*
X363632Y175298D01*
X363642Y175332D01*
X363659Y175363D01*
X363693Y175497D01*
X363734Y175628D01*
X363736Y175663D01*
X363745Y175698D01*
X363759Y175902D01*
X363759Y217781D01*
X399888Y253910D01*
X399975Y254019D01*
X400066Y254124D01*
X400082Y254154D01*
X400103Y254181D01*
X400162Y254307D01*
X400227Y254430D01*
X400235Y254463D01*
X400250Y254494D01*
X400278Y254630D01*
X400313Y254765D01*
X400316Y254810D01*
X400321Y254832D01*
X400320Y254866D01*
X400327Y254970D01*
X400327Y255208D01*
X401252Y257440D01*
X402960Y259148D01*
X405192Y260073D01*
X407608Y260073D01*
X409840Y259148D01*
X411548Y257440D01*
X412473Y255208D01*
X412473Y252792D01*
X411548Y250560D01*
X409840Y248852D01*
X407608Y247927D01*
X407370Y247927D01*
X407232Y247911D01*
X407092Y247901D01*
X407060Y247891D01*
X407026Y247887D01*
X406896Y247840D01*
X406762Y247799D01*
X406733Y247781D01*
X406701Y247770D01*
X406584Y247694D01*
X406464Y247623D01*
X406430Y247593D01*
X406412Y247581D01*
X406388Y247557D01*
X406310Y247488D01*
X373280Y214458D01*
X373193Y214349D01*
X373102Y214244D01*
X373086Y214214D01*
X373065Y214187D01*
X373006Y214061D01*
X372941Y213938D01*
X372933Y213905D01*
X372918Y213874D01*
X372890Y213738D01*
X372855Y213603D01*
X372852Y213558D01*
X372847Y213536D01*
X372848Y213502D01*
X372841Y213398D01*
X372841Y81576D01*
X372857Y81437D01*
X372867Y81298D01*
X372877Y81266D01*
X372881Y81232D01*
X372928Y81101D01*
X372969Y80968D01*
X372987Y80939D01*
X372998Y80907D01*
X373074Y80790D01*
X373145Y80670D01*
X373175Y80636D01*
X373187Y80617D01*
X373211Y80594D01*
X373280Y80515D01*
X373872Y79923D01*
X374873Y77507D01*
X374873Y74893D01*
X373872Y72477D01*
X372023Y70628D01*
X369607Y69627D01*
X366993Y69627D01*
G37*
%LPD*%
%LPC*%
G36*
X447703Y129659D02*
X447703Y129659D01*
X444012Y131188D01*
X441188Y134012D01*
X439659Y137703D01*
X439659Y141697D01*
X441188Y145388D01*
X444012Y148212D01*
X447703Y149741D01*
X466697Y149741D01*
X470388Y148212D01*
X473212Y145388D01*
X473304Y145166D01*
X473346Y145090D01*
X473380Y145009D01*
X473430Y144939D01*
X473472Y144864D01*
X473531Y144800D01*
X473582Y144729D01*
X473647Y144672D01*
X473705Y144609D01*
X473777Y144559D01*
X473843Y144502D01*
X473920Y144462D01*
X473990Y144413D01*
X474072Y144382D01*
X474149Y144341D01*
X474233Y144320D01*
X474313Y144289D01*
X474399Y144277D01*
X474484Y144255D01*
X474628Y144245D01*
X474655Y144241D01*
X474667Y144242D01*
X474689Y144241D01*
X510261Y144241D01*
X510399Y144257D01*
X510538Y144267D01*
X510571Y144277D01*
X510604Y144281D01*
X510735Y144328D01*
X510868Y144369D01*
X510897Y144387D01*
X510929Y144398D01*
X511046Y144474D01*
X511166Y144545D01*
X511200Y144575D01*
X511219Y144587D01*
X511242Y144611D01*
X511321Y144680D01*
X550701Y184060D01*
X550767Y184143D01*
X550831Y184211D01*
X550848Y184239D01*
X550879Y184274D01*
X550894Y184304D01*
X550915Y184331D01*
X550970Y184447D01*
X551006Y184509D01*
X551013Y184529D01*
X551039Y184580D01*
X551048Y184613D01*
X551062Y184644D01*
X551091Y184780D01*
X551095Y184797D01*
X551108Y184839D01*
X551109Y184851D01*
X551126Y184915D01*
X551129Y184960D01*
X551133Y184982D01*
X551133Y185016D01*
X551140Y185120D01*
X551140Y185358D01*
X552064Y187590D01*
X553773Y189298D01*
X556005Y190223D01*
X558420Y190223D01*
X560652Y189298D01*
X562361Y187590D01*
X563285Y185358D01*
X563285Y182942D01*
X562361Y180710D01*
X560652Y179002D01*
X558420Y178077D01*
X558182Y178077D01*
X558044Y178061D01*
X557905Y178051D01*
X557872Y178041D01*
X557839Y178037D01*
X557708Y177990D01*
X557575Y177949D01*
X557546Y177931D01*
X557514Y177920D01*
X557397Y177844D01*
X557277Y177773D01*
X557243Y177743D01*
X557224Y177731D01*
X557201Y177707D01*
X557122Y177638D01*
X514643Y135159D01*
X474689Y135159D01*
X474602Y135149D01*
X474514Y135149D01*
X474431Y135129D01*
X474346Y135119D01*
X474263Y135090D01*
X474178Y135070D01*
X474101Y135031D01*
X474020Y135002D01*
X473947Y134954D01*
X473869Y134915D01*
X473803Y134860D01*
X473731Y134813D01*
X473670Y134750D01*
X473603Y134694D01*
X473551Y134625D01*
X473492Y134563D01*
X473448Y134487D01*
X473395Y134417D01*
X473331Y134289D01*
X473317Y134265D01*
X473314Y134253D01*
X473304Y134234D01*
X473212Y134012D01*
X470388Y131188D01*
X466697Y129659D01*
X447703Y129659D01*
G37*
%LPD*%
%LPC*%
G36*
X447703Y155059D02*
X447703Y155059D01*
X444012Y156588D01*
X441188Y159412D01*
X439659Y163103D01*
X439659Y167097D01*
X441188Y170788D01*
X444012Y173612D01*
X447703Y175141D01*
X466697Y175141D01*
X470388Y173612D01*
X473212Y170788D01*
X473304Y170566D01*
X473346Y170490D01*
X473380Y170409D01*
X473430Y170339D01*
X473472Y170264D01*
X473531Y170200D01*
X473582Y170129D01*
X473647Y170072D01*
X473705Y170009D01*
X473777Y169959D01*
X473843Y169902D01*
X473920Y169862D01*
X473990Y169813D01*
X474072Y169782D01*
X474149Y169741D01*
X474233Y169720D01*
X474313Y169689D01*
X474399Y169677D01*
X474484Y169655D01*
X474628Y169645D01*
X474655Y169641D01*
X474667Y169642D01*
X474689Y169641D01*
X505498Y169641D01*
X505636Y169657D01*
X505776Y169667D01*
X505808Y169677D01*
X505842Y169681D01*
X505972Y169728D01*
X506106Y169769D01*
X506135Y169787D01*
X506167Y169798D01*
X506284Y169874D01*
X506404Y169945D01*
X506438Y169975D01*
X506456Y169987D01*
X506480Y170011D01*
X506558Y170080D01*
X541538Y205060D01*
X541607Y205146D01*
X541658Y205200D01*
X541672Y205223D01*
X541716Y205274D01*
X541732Y205304D01*
X541753Y205331D01*
X541812Y205457D01*
X541877Y205580D01*
X541885Y205613D01*
X541900Y205644D01*
X541928Y205780D01*
X541963Y205915D01*
X541966Y205960D01*
X541971Y205982D01*
X541970Y206016D01*
X541977Y206120D01*
X541977Y206358D01*
X542902Y208590D01*
X544610Y210298D01*
X546842Y211223D01*
X549258Y211223D01*
X551490Y210298D01*
X553198Y208590D01*
X554123Y206358D01*
X554123Y203942D01*
X553198Y201710D01*
X551490Y200002D01*
X549258Y199077D01*
X549020Y199077D01*
X548882Y199061D01*
X548742Y199051D01*
X548710Y199041D01*
X548676Y199037D01*
X548545Y198990D01*
X548412Y198949D01*
X548383Y198931D01*
X548351Y198920D01*
X548234Y198844D01*
X548114Y198773D01*
X548080Y198743D01*
X548062Y198731D01*
X548038Y198707D01*
X547960Y198638D01*
X509881Y160559D01*
X474689Y160559D01*
X474602Y160549D01*
X474514Y160549D01*
X474431Y160529D01*
X474346Y160519D01*
X474263Y160490D01*
X474178Y160470D01*
X474101Y160431D01*
X474020Y160402D01*
X473947Y160354D01*
X473869Y160315D01*
X473803Y160260D01*
X473731Y160213D01*
X473670Y160150D01*
X473603Y160094D01*
X473551Y160025D01*
X473492Y159963D01*
X473448Y159887D01*
X473395Y159817D01*
X473331Y159689D01*
X473317Y159665D01*
X473314Y159653D01*
X473304Y159634D01*
X473212Y159412D01*
X470388Y156588D01*
X466697Y155059D01*
X447703Y155059D01*
G37*
%LPD*%
%LPC*%
G36*
X328992Y66159D02*
X328992Y66159D01*
X326760Y67083D01*
X325052Y68791D01*
X324127Y71023D01*
X324127Y73439D01*
X325052Y75671D01*
X325220Y75840D01*
X325307Y75949D01*
X325398Y76054D01*
X325414Y76084D01*
X325435Y76111D01*
X325494Y76237D01*
X325559Y76360D01*
X325567Y76393D01*
X325582Y76424D01*
X325610Y76560D01*
X325645Y76695D01*
X325648Y76740D01*
X325653Y76762D01*
X325652Y76796D01*
X325659Y76900D01*
X325659Y197824D01*
X325643Y197962D01*
X325633Y198102D01*
X325623Y198134D01*
X325619Y198168D01*
X325572Y198299D01*
X325531Y198432D01*
X325513Y198461D01*
X325502Y198493D01*
X325426Y198610D01*
X325355Y198730D01*
X325325Y198764D01*
X325313Y198783D01*
X325289Y198806D01*
X325220Y198885D01*
X324628Y199477D01*
X323627Y201893D01*
X323627Y204507D01*
X324628Y206923D01*
X326477Y208772D01*
X328893Y209773D01*
X331507Y209773D01*
X333923Y208772D01*
X335772Y206923D01*
X336773Y204507D01*
X336773Y201893D01*
X335772Y199477D01*
X335180Y198885D01*
X335093Y198775D01*
X335002Y198670D01*
X334986Y198640D01*
X334965Y198614D01*
X334906Y198487D01*
X334841Y198364D01*
X334833Y198331D01*
X334818Y198301D01*
X334790Y198164D01*
X334755Y198029D01*
X334752Y197984D01*
X334747Y197962D01*
X334748Y197929D01*
X334741Y197824D01*
X334741Y76900D01*
X334757Y76761D01*
X334767Y76622D01*
X334777Y76590D01*
X334781Y76556D01*
X334828Y76425D01*
X334869Y76292D01*
X334887Y76263D01*
X334898Y76231D01*
X334974Y76114D01*
X335045Y75994D01*
X335075Y75960D01*
X335087Y75941D01*
X335111Y75918D01*
X335180Y75840D01*
X335348Y75671D01*
X336273Y73439D01*
X336273Y71023D01*
X335348Y68791D01*
X333640Y67083D01*
X331408Y66159D01*
X328992Y66159D01*
G37*
%LPD*%
%LPC*%
G36*
X447703Y180459D02*
X447703Y180459D01*
X444012Y181988D01*
X441188Y184812D01*
X439659Y188503D01*
X439659Y192497D01*
X441188Y196188D01*
X444012Y199012D01*
X447703Y200541D01*
X466697Y200541D01*
X470388Y199012D01*
X473212Y196188D01*
X473304Y195966D01*
X473346Y195890D01*
X473380Y195809D01*
X473430Y195739D01*
X473472Y195664D01*
X473531Y195600D01*
X473582Y195529D01*
X473647Y195472D01*
X473705Y195409D01*
X473777Y195359D01*
X473843Y195302D01*
X473920Y195262D01*
X473990Y195213D01*
X474072Y195182D01*
X474149Y195141D01*
X474233Y195120D01*
X474313Y195089D01*
X474399Y195077D01*
X474484Y195055D01*
X474628Y195045D01*
X474655Y195041D01*
X474667Y195042D01*
X474689Y195041D01*
X480098Y195041D01*
X480236Y195057D01*
X480376Y195067D01*
X480408Y195077D01*
X480442Y195081D01*
X480572Y195128D01*
X480706Y195169D01*
X480735Y195187D01*
X480767Y195198D01*
X480884Y195274D01*
X481004Y195345D01*
X481038Y195375D01*
X481056Y195387D01*
X481080Y195411D01*
X481158Y195480D01*
X499469Y213791D01*
X499556Y213900D01*
X499647Y214006D01*
X499663Y214036D01*
X499684Y214062D01*
X499743Y214188D01*
X499808Y214312D01*
X499817Y214344D01*
X499831Y214375D01*
X499860Y214511D01*
X499894Y214646D01*
X499898Y214692D01*
X499902Y214713D01*
X499901Y214747D01*
X499909Y214851D01*
X499909Y215089D01*
X500833Y217321D01*
X502541Y219029D01*
X504773Y219954D01*
X507189Y219954D01*
X509421Y219029D01*
X511129Y217321D01*
X512054Y215089D01*
X512054Y212673D01*
X511129Y210441D01*
X509421Y208733D01*
X507189Y207809D01*
X506951Y207809D01*
X506813Y207792D01*
X506674Y207783D01*
X506641Y207773D01*
X506608Y207769D01*
X506477Y207721D01*
X506343Y207680D01*
X506314Y207663D01*
X506282Y207651D01*
X506166Y207575D01*
X506046Y207504D01*
X506012Y207475D01*
X505993Y207462D01*
X505970Y207438D01*
X505891Y207369D01*
X484481Y185959D01*
X474689Y185959D01*
X474602Y185949D01*
X474514Y185949D01*
X474431Y185929D01*
X474346Y185919D01*
X474263Y185890D01*
X474178Y185870D01*
X474101Y185831D01*
X474020Y185802D01*
X473947Y185754D01*
X473869Y185715D01*
X473803Y185660D01*
X473731Y185613D01*
X473670Y185550D01*
X473603Y185494D01*
X473551Y185425D01*
X473492Y185363D01*
X473448Y185287D01*
X473395Y185217D01*
X473331Y185089D01*
X473317Y185065D01*
X473314Y185053D01*
X473304Y185034D01*
X473212Y184812D01*
X470388Y181988D01*
X466697Y180459D01*
X447703Y180459D01*
G37*
%LPD*%
%LPC*%
G36*
X130203Y224909D02*
X130203Y224909D01*
X126512Y226438D01*
X123688Y229262D01*
X122159Y232953D01*
X122159Y236947D01*
X123688Y240638D01*
X126512Y243462D01*
X130203Y244991D01*
X149197Y244991D01*
X152888Y243462D01*
X155712Y240638D01*
X157241Y236947D01*
X157241Y232953D01*
X155712Y229262D01*
X152888Y226438D01*
X149197Y224909D01*
X130203Y224909D01*
G37*
%LPD*%
%LPC*%
G36*
X130203Y199509D02*
X130203Y199509D01*
X126512Y201038D01*
X123688Y203862D01*
X122159Y207553D01*
X122159Y211547D01*
X123688Y215238D01*
X126512Y218062D01*
X130203Y219591D01*
X149197Y219591D01*
X152888Y218062D01*
X155712Y215238D01*
X157241Y211547D01*
X157241Y207553D01*
X155712Y203862D01*
X152888Y201038D01*
X149197Y199509D01*
X130203Y199509D01*
G37*
%LPD*%
%LPC*%
G36*
X240092Y209827D02*
X240092Y209827D01*
X237860Y210752D01*
X236152Y212460D01*
X235227Y214692D01*
X235227Y217108D01*
X236152Y219340D01*
X236320Y219508D01*
X236407Y219617D01*
X236498Y219723D01*
X236514Y219753D01*
X236535Y219779D01*
X236594Y219905D01*
X236659Y220029D01*
X236667Y220062D01*
X236682Y220092D01*
X236710Y220229D01*
X236745Y220364D01*
X236748Y220409D01*
X236753Y220431D01*
X236752Y220464D01*
X236759Y220568D01*
X236759Y262032D01*
X236743Y262169D01*
X236733Y262309D01*
X236723Y262341D01*
X236719Y262375D01*
X236672Y262506D01*
X236631Y262639D01*
X236613Y262668D01*
X236602Y262700D01*
X236526Y262817D01*
X236455Y262937D01*
X236425Y262971D01*
X236413Y262990D01*
X236389Y263013D01*
X236320Y263092D01*
X236152Y263260D01*
X235227Y265492D01*
X235227Y267908D01*
X236152Y270140D01*
X237860Y271848D01*
X240092Y272773D01*
X242508Y272773D01*
X244740Y271848D01*
X246448Y270140D01*
X247373Y267908D01*
X247373Y265492D01*
X246448Y263260D01*
X246280Y263092D01*
X246193Y262983D01*
X246102Y262877D01*
X246086Y262847D01*
X246065Y262821D01*
X246006Y262695D01*
X245941Y262571D01*
X245933Y262538D01*
X245918Y262508D01*
X245890Y262371D01*
X245855Y262236D01*
X245852Y262191D01*
X245847Y262169D01*
X245848Y262136D01*
X245841Y262032D01*
X245841Y220568D01*
X245857Y220430D01*
X245867Y220291D01*
X245877Y220259D01*
X245881Y220225D01*
X245928Y220094D01*
X245969Y219961D01*
X245987Y219932D01*
X245998Y219900D01*
X246074Y219783D01*
X246145Y219663D01*
X246175Y219629D01*
X246187Y219610D01*
X246211Y219587D01*
X246280Y219508D01*
X246448Y219340D01*
X247373Y217108D01*
X247373Y214692D01*
X246448Y212460D01*
X244740Y210752D01*
X242508Y209827D01*
X240092Y209827D01*
G37*
%LPD*%
%LPC*%
G36*
X327837Y367029D02*
X327837Y367029D01*
X323373Y371493D01*
X323373Y377807D01*
X327837Y382271D01*
X334150Y382271D01*
X336284Y380137D01*
X336311Y380115D01*
X336335Y380089D01*
X336447Y380008D01*
X336555Y379923D01*
X336587Y379908D01*
X336616Y379887D01*
X336743Y379834D01*
X336868Y379776D01*
X336902Y379769D01*
X336935Y379755D01*
X337071Y379733D01*
X337206Y379705D01*
X337241Y379706D01*
X337276Y379700D01*
X337414Y379710D01*
X337552Y379713D01*
X337586Y379722D01*
X337621Y379724D01*
X337753Y379765D01*
X337886Y379800D01*
X337918Y379816D01*
X337951Y379827D01*
X338070Y379897D01*
X338192Y379961D01*
X338219Y379985D01*
X338249Y380003D01*
X338404Y380137D01*
X340537Y382271D01*
X346850Y382271D01*
X351314Y377807D01*
X351314Y371493D01*
X346850Y367029D01*
X340537Y367029D01*
X338404Y369163D01*
X338376Y369185D01*
X338353Y369211D01*
X338241Y369292D01*
X338133Y369377D01*
X338101Y369392D01*
X338072Y369413D01*
X337944Y369466D01*
X337820Y369524D01*
X337785Y369531D01*
X337752Y369545D01*
X337616Y369567D01*
X337482Y369595D01*
X337446Y369594D01*
X337411Y369600D01*
X337274Y369590D01*
X337136Y369587D01*
X337102Y369578D01*
X337066Y369576D01*
X336934Y369535D01*
X336801Y369500D01*
X336770Y369484D01*
X336736Y369473D01*
X336617Y369403D01*
X336496Y369339D01*
X336469Y369315D01*
X336438Y369297D01*
X336284Y369163D01*
X334150Y367029D01*
X327837Y367029D01*
G37*
%LPD*%
%LPC*%
G36*
X277037Y321786D02*
X277037Y321786D01*
X272573Y326250D01*
X272573Y332563D01*
X277037Y337027D01*
X283350Y337027D01*
X287814Y332563D01*
X287814Y326250D01*
X283350Y321786D01*
X277037Y321786D01*
G37*
%LPD*%
%LPC*%
G36*
X142199Y288249D02*
X142199Y288249D01*
X142199Y295791D01*
X147990Y295791D01*
X149551Y295544D01*
X151054Y295055D01*
X152462Y294338D01*
X153741Y293409D01*
X154859Y292291D01*
X155788Y291012D01*
X156505Y289604D01*
X156945Y288249D01*
X142199Y288249D01*
G37*
%LPD*%
%LPC*%
G36*
X459699Y224749D02*
X459699Y224749D01*
X459699Y232291D01*
X465490Y232291D01*
X467051Y232044D01*
X468554Y231555D01*
X469962Y230838D01*
X471241Y229909D01*
X472359Y228791D01*
X473288Y227512D01*
X474005Y226104D01*
X474445Y224749D01*
X459699Y224749D01*
G37*
%LPD*%
%LPC*%
G36*
X459699Y116799D02*
X459699Y116799D01*
X459699Y124341D01*
X465490Y124341D01*
X467051Y124094D01*
X468554Y123605D01*
X469962Y122888D01*
X471241Y121959D01*
X472359Y120841D01*
X473288Y119562D01*
X474005Y118154D01*
X474445Y116799D01*
X459699Y116799D01*
G37*
%LPD*%
%LPC*%
G36*
X122455Y288249D02*
X122455Y288249D01*
X122895Y289604D01*
X123612Y291012D01*
X124541Y292291D01*
X125659Y293409D01*
X126938Y294338D01*
X128346Y295055D01*
X129849Y295544D01*
X131410Y295791D01*
X137201Y295791D01*
X137201Y288249D01*
X122455Y288249D01*
G37*
%LPD*%
%LPC*%
G36*
X439955Y224749D02*
X439955Y224749D01*
X440395Y226104D01*
X441112Y227512D01*
X442041Y228791D01*
X443159Y229909D01*
X444438Y230838D01*
X445846Y231555D01*
X447349Y232044D01*
X448910Y232291D01*
X454701Y232291D01*
X454701Y224749D01*
X439955Y224749D01*
G37*
%LPD*%
%LPC*%
G36*
X439955Y116799D02*
X439955Y116799D01*
X440395Y118154D01*
X441112Y119562D01*
X442041Y120841D01*
X443159Y121959D01*
X444438Y122888D01*
X445846Y123605D01*
X447349Y124094D01*
X448910Y124341D01*
X454701Y124341D01*
X454701Y116799D01*
X439955Y116799D01*
G37*
%LPD*%
%LPC*%
G36*
X142199Y275709D02*
X142199Y275709D01*
X142199Y283251D01*
X156945Y283251D01*
X156505Y281896D01*
X155788Y280488D01*
X154859Y279209D01*
X153741Y278091D01*
X152462Y277162D01*
X151054Y276445D01*
X149551Y275956D01*
X147990Y275709D01*
X142199Y275709D01*
G37*
%LPD*%
%LPC*%
G36*
X459699Y212209D02*
X459699Y212209D01*
X459699Y219751D01*
X474445Y219751D01*
X474005Y218396D01*
X473288Y216988D01*
X472359Y215709D01*
X471241Y214591D01*
X469962Y213662D01*
X468554Y212945D01*
X467051Y212456D01*
X465490Y212209D01*
X459699Y212209D01*
G37*
%LPD*%
%LPC*%
G36*
X459699Y104259D02*
X459699Y104259D01*
X459699Y111801D01*
X474445Y111801D01*
X474005Y110446D01*
X473288Y109038D01*
X472359Y107759D01*
X471241Y106641D01*
X469962Y105712D01*
X468554Y104995D01*
X467051Y104506D01*
X465490Y104259D01*
X459699Y104259D01*
G37*
%LPD*%
%LPC*%
G36*
X131410Y275709D02*
X131410Y275709D01*
X129849Y275956D01*
X128346Y276445D01*
X126938Y277162D01*
X125659Y278091D01*
X124541Y279209D01*
X123612Y280488D01*
X122895Y281896D01*
X122455Y283251D01*
X137201Y283251D01*
X137201Y275709D01*
X131410Y275709D01*
G37*
%LPD*%
%LPC*%
G36*
X448910Y212209D02*
X448910Y212209D01*
X447349Y212456D01*
X445846Y212945D01*
X444438Y213662D01*
X443159Y214591D01*
X442041Y215709D01*
X441112Y216988D01*
X440395Y218396D01*
X439955Y219751D01*
X454701Y219751D01*
X454701Y212209D01*
X448910Y212209D01*
G37*
%LPD*%
%LPC*%
G36*
X448910Y104259D02*
X448910Y104259D01*
X447349Y104506D01*
X445846Y104995D01*
X444438Y105712D01*
X443159Y106641D01*
X442041Y107759D01*
X441112Y109038D01*
X440395Y110446D01*
X439955Y111801D01*
X454701Y111801D01*
X454701Y104259D01*
X448910Y104259D01*
G37*
%LPD*%
%LPC*%
G36*
X57054Y342010D02*
X57054Y342010D01*
X57054Y349124D01*
X58662Y349124D01*
X64167Y343618D01*
X64167Y342010D01*
X57054Y342010D01*
G37*
%LPD*%
%LPC*%
G36*
X45370Y342010D02*
X45370Y342010D01*
X45370Y343618D01*
X50876Y349124D01*
X52483Y349124D01*
X52483Y342010D01*
X45370Y342010D01*
G37*
%LPD*%
%LPC*%
G36*
X57054Y330326D02*
X57054Y330326D01*
X57054Y337440D01*
X64167Y337440D01*
X64167Y335832D01*
X58662Y330326D01*
X57054Y330326D01*
G37*
%LPD*%
%LPC*%
G36*
X50876Y330326D02*
X50876Y330326D01*
X45370Y335832D01*
X45370Y337440D01*
X52483Y337440D01*
X52483Y330326D01*
X50876Y330326D01*
G37*
%LPD*%
D10*
X132200Y285750D02*
X147200Y285750D01*
X147200Y260350D02*
X132200Y260350D01*
X132200Y234950D02*
X147200Y234950D01*
X147200Y209550D02*
X132200Y209550D01*
X449700Y114300D02*
X464700Y114300D01*
X464700Y139700D02*
X449700Y139700D01*
X449700Y165100D02*
X464700Y165100D01*
X464700Y190500D02*
X449700Y190500D01*
D11*
X550000Y50000D03*
D10*
X464700Y222250D02*
X449700Y222250D01*
X449700Y247650D02*
X464700Y247650D01*
X464700Y273050D02*
X449700Y273050D01*
D12*
X105569Y365125D03*
X105569Y339725D03*
X80169Y365125D03*
X80169Y339725D03*
X54769Y365125D03*
X54769Y339725D03*
D13*
X280194Y329406D03*
X343694Y374650D03*
X330994Y374650D03*
D14*
X215900Y54769D03*
X274638Y89694D03*
X406400Y177800D03*
X382588Y254000D03*
X450850Y323850D03*
X381000Y355600D03*
X15875Y330994D03*
X215900Y304800D03*
X280194Y315913D03*
X577850Y196850D03*
X581819Y94456D03*
X501650Y19050D03*
X342900Y327025D03*
X317500Y327025D03*
X381000Y50800D03*
X393700Y50800D03*
X406400Y50800D03*
X419100Y50800D03*
X227806Y184944D03*
X577850Y323850D03*
X495300Y354013D03*
X531019Y226219D03*
D15*
X260350Y381794D03*
D14*
X501650Y76200D03*
X508000Y88900D03*
X165100Y335756D03*
X254000Y279400D03*
X330200Y254000D03*
X396875Y282575D03*
D16*
X457200Y222250D02*
X457200Y211138D01*
X457200Y222250D02*
X457200Y233363D01*
X457200Y222250D02*
X438150Y222250D01*
X457200Y222250D02*
X477838Y222250D01*
X482600Y114300D02*
X457200Y114300D01*
X431800Y114300D01*
X457200Y114300D02*
X457200Y125413D01*
X457200Y114300D02*
X457200Y101600D01*
D14*
X457200Y77788D03*
X457200Y40481D03*
X520700Y284956D03*
X533400Y284956D03*
X566738Y285750D03*
X577850Y285750D03*
X450056Y292100D03*
X584200Y384175D03*
X381000Y381000D03*
X419100Y381000D03*
X422275Y358775D03*
D15*
X311150Y381794D03*
X209550Y381794D03*
X158750Y381794D03*
X16669Y383381D03*
D14*
X215900Y127000D03*
X215900Y152400D03*
X358775Y198438D03*
X406400Y196056D03*
X403225Y156369D03*
X377031Y156369D03*
X396875Y211931D03*
X357981Y179388D03*
X358775Y156369D03*
X415925Y132556D03*
X377031Y211931D03*
X368300Y76200D03*
X109538Y38100D03*
X109538Y166688D03*
D17*
X109538Y38100D01*
D18*
X368300Y76200D02*
X368300Y169863D01*
X368300Y215900D01*
D15*
X350711Y169736D03*
D18*
X350838Y169863D01*
X368300Y169863D01*
X368300Y215900D02*
X406400Y254000D01*
D15*
X406400Y254000D03*
X241300Y266700D03*
D18*
X241300Y215900D01*
D15*
X241300Y215900D03*
D14*
X330200Y203200D03*
D18*
X330200Y72231D01*
D15*
X330200Y72231D03*
D18*
X457200Y165100D02*
X508000Y165100D01*
X548050Y205150D01*
X538163Y304800D02*
X346869Y304800D01*
D14*
X538163Y304800D03*
D15*
X548050Y205150D03*
X338138Y296069D03*
D18*
X346869Y304800D01*
X457200Y190500D02*
X482600Y190500D01*
X505619Y313531D02*
X342900Y313531D01*
D15*
X505619Y313531D03*
D18*
X505981Y213881D02*
X482600Y190500D01*
D15*
X505981Y213881D03*
X329406Y289719D03*
D18*
X329406Y300038D01*
X342900Y313531D01*
D14*
X253206Y114300D03*
X288925Y234950D03*
D18*
X253206Y177006D02*
X253206Y114300D01*
X288925Y212725D02*
X288925Y234950D01*
X288925Y212725D02*
X253206Y177006D01*
D14*
X253206Y101600D03*
X300831Y234950D03*
D18*
X263525Y111919D02*
X253206Y101600D01*
X263525Y111919D02*
X263525Y172244D01*
X300831Y209550D01*
X300831Y234950D01*
D19*
X438150Y247650D02*
X457200Y247650D01*
X438150Y247650D02*
X419100Y228600D01*
X419100Y165100D01*
D20*
X419100Y165100D03*
D15*
X557213Y184150D03*
D18*
X512763Y139700D01*
X457200Y139700D01*
D14*
X167481Y199231D03*
X166688Y58738D03*
D18*
X169863Y61913D01*
X169863Y181769D01*
X167481Y184150D01*
X167481Y199231D01*
D14*
X177800Y188119D03*
D18*
X177800Y50800D01*
X171450Y44450D01*
D14*
X171450Y44450D03*
D18*
X139700Y260350D02*
X101600Y260350D01*
D14*
X43656Y150019D03*
D18*
X43656Y202406D02*
X101600Y260350D01*
X43656Y202406D02*
X43656Y150019D01*
D14*
X295275Y273050D03*
D18*
X457200Y273050D01*
D14*
X19050Y300831D03*
X184150Y300831D03*
X184150Y243681D03*
X101600Y184150D03*
X19050Y104775D03*
X96044Y98425D03*
X142081Y30956D03*
X184150Y29369D03*
X148431Y115888D03*
X19050Y219075D03*
X80169Y219075D03*
X119856Y115094D03*
X120650Y87313D03*
X123031Y41275D03*
X187325Y64294D03*
X187325Y178594D03*
X156369Y198438D03*
X114300Y199231D03*
D18*
X67469Y352425D02*
X54769Y365125D01*
X67469Y352425D02*
X203200Y352425D01*
D15*
X337344Y263525D03*
D18*
X292100Y263525D01*
X203200Y352425D01*
M02*
