G04 EAGLE Gerber RS-274X export*
G75*
%MOMM*%
%FSLAX34Y34*%
%LPD*%
%IN*%
%IPPOS*%
%AMOC8*
5,1,8,0,0,1.08239X$1,22.5*%
G01*
%ADD10C,0.254000*%


D10*
X0Y0D02*
X600000Y0D01*
X600000Y400000D01*
X0Y400000D01*
X0Y0D01*
X71500Y49350D02*
X71422Y48053D01*
X71265Y46764D01*
X71031Y45486D01*
X70720Y44224D01*
X70333Y42983D01*
X69872Y41769D01*
X69339Y40584D01*
X68735Y39433D01*
X68063Y38321D01*
X67325Y37252D01*
X66524Y36229D01*
X65662Y35257D01*
X64743Y34338D01*
X63771Y33476D01*
X62748Y32675D01*
X61679Y31937D01*
X60567Y31265D01*
X59416Y30661D01*
X58231Y30128D01*
X57017Y29667D01*
X55776Y29280D01*
X54515Y28969D01*
X53236Y28735D01*
X51947Y28578D01*
X50650Y28500D01*
X49350Y28500D01*
X48053Y28578D01*
X46764Y28735D01*
X45486Y28969D01*
X44224Y29280D01*
X42983Y29667D01*
X41769Y30128D01*
X40584Y30661D01*
X39433Y31265D01*
X38321Y31937D01*
X37252Y32675D01*
X36229Y33476D01*
X35257Y34338D01*
X34338Y35257D01*
X33476Y36229D01*
X32675Y37252D01*
X31937Y38321D01*
X31265Y39433D01*
X30661Y40584D01*
X30128Y41769D01*
X29667Y42983D01*
X29280Y44224D01*
X28969Y45486D01*
X28735Y46764D01*
X28578Y48053D01*
X28500Y49350D01*
X28500Y50650D01*
X28578Y51947D01*
X28735Y53236D01*
X28969Y54515D01*
X29280Y55776D01*
X29667Y57017D01*
X30128Y58231D01*
X30661Y59416D01*
X31265Y60567D01*
X31937Y61679D01*
X32675Y62748D01*
X33476Y63771D01*
X34338Y64743D01*
X35257Y65662D01*
X36229Y66524D01*
X37252Y67325D01*
X38321Y68063D01*
X39433Y68735D01*
X40584Y69339D01*
X41769Y69872D01*
X42983Y70333D01*
X44224Y70720D01*
X45486Y71031D01*
X46764Y71265D01*
X48053Y71422D01*
X49350Y71500D01*
X50650Y71500D01*
X51947Y71422D01*
X53236Y71265D01*
X54515Y71031D01*
X55776Y70720D01*
X57017Y70333D01*
X58231Y69872D01*
X59416Y69339D01*
X60567Y68735D01*
X61679Y68063D01*
X62748Y67325D01*
X63771Y66524D01*
X64743Y65662D01*
X65662Y64743D01*
X66524Y63771D01*
X67325Y62748D01*
X68063Y61679D01*
X68735Y60567D01*
X69339Y59416D01*
X69872Y58231D01*
X70333Y57017D01*
X70720Y55776D01*
X71031Y54515D01*
X71265Y53236D01*
X71422Y51947D01*
X71500Y50650D01*
X71500Y49350D01*
M02*
