<?xml version="1.0" encoding="UTF-8" standalone="no"?>
<!-- Created with Inkscape (http://www.inkscape.org/) -->

<svg
   xmlns:dc="http://purl.org/dc/elements/1.1/"
   xmlns:cc="http://creativecommons.org/ns#"
   xmlns:rdf="http://www.w3.org/1999/02/22-rdf-syntax-ns#"
   xmlns:svg="http://www.w3.org/2000/svg"
   xmlns="http://www.w3.org/2000/svg"
   xmlns:sodipodi="http://sodipodi.sourceforge.net/DTD/sodipodi-0.dtd"
   xmlns:inkscape="http://www.inkscape.org/namespaces/inkscape"
   width="32mm"
   height="32mm"
   viewBox="0 0 32 32"
   version="1.1"
   id="svg8"
   inkscape:version="0.92.4 (5da689c313, 2019-01-14)"
   sodipodi:docname="remove.svg">
  <defs
     id="defs2" />
  <sodipodi:namedview
     id="base"
     pagecolor="#ffffff"
     bordercolor="#666666"
     borderopacity="1.0"
     inkscape:pageopacity="0.0"
     inkscape:pageshadow="2"
     inkscape:zoom="1.979899"
     inkscape:cx="92.479484"
     inkscape:cy="17.408404"
     inkscape:document-units="mm"
     inkscape:current-layer="layer1"
     showgrid="false"
     inkscape:window-width="1920"
     inkscape:window-height="1017"
     inkscape:window-x="1672"
     inkscape:window-y="-8"
     inkscape:window-maximized="1" />
  <metadata
     id="metadata5">
    <rdf:RDF>
      <cc:Work
         rdf:about="">
        <dc:format>image/svg+xml</dc:format>
        <dc:type
           rdf:resource="http://purl.org/dc/dcmitype/StillImage" />
        <dc:title></dc:title>
      </cc:Work>
    </rdf:RDF>
  </metadata>
  <g
     inkscape:label="Ebene 1"
     inkscape:groupmode="layer"
     id="layer1"
     transform="translate(0,-265)">
    <path
       style="fill:#ff0000;fill-opacity:1;stroke:#000000;stroke-width:0.25088012;stroke-miterlimit:4;stroke-dasharray:none;stroke-opacity:1"
       d="M 14.648126,296.79043 C 12.644471,296.56202 11.340109,296.23422 9.7902754,295.56955 2.2504653,292.336 -1.5796809,283.97681 0.93931442,276.25256 2.8973424,270.24845 8.318709,265.94279 14.648126,265.36497 c 1.013549,-0.0925 2.758064,-0.0435 3.684017,0.10347 3.540693,0.56221 6.594957,2.13771 9.029433,4.6577 2.415036,2.49986 3.827034,5.37269 4.35024,8.85095 0.14617,0.97171 0.149569,3.04192 0.0067,4.08455 -0.518693,3.78559 -2.298622,7.17541 -5.091365,9.69635 -2.516411,2.2715 -5.665995,3.67105 -9.015619,4.00619 -0.632122,0.0632 -2.493976,0.0797 -2.963412,0.0262 z"
       id="path848"
       inkscape:connector-curvature="0" />
    <path
       id="path826"
       style="fill:#ffffff;fill-opacity:1;stroke-width:0.07694763"
       d="m 13.429992,271.58383 c 0.07656,-0.31141 0.249382,-0.54606 0.526708,-0.71515 0.225346,-0.1374 0.397029,-0.14991 2.054169,-0.14971 1.642068,2.3e-4 1.828484,0.0136 2.028239,0.14524 0.274571,0.18102 0.509857,0.53041 0.510524,0.75809 l 5.81e-4,0.17313 h -2.586074 -2.586086 z m 9.150933,2.10553 c 0.335598,-0.14022 0.586075,-0.50099 0.586075,-0.84415 0,-0.37246 -0.116104,-0.59769 -0.412968,-0.8011 -0.237295,-0.1626 -0.327013,-0.17172 -1.688618,-0.17172 h -1.438008 l -8.73e-4,-0.17313 c -0.0011,-0.27692 -0.345021,-0.93926 -0.58595,-1.1288 -0.478036,-0.37609 -0.593461,-0.39093 -3.041688,-0.39093 -1.906615,0 -2.350586,0.0205 -2.587583,0.11951 -0.525729,0.21962 -0.919984,0.71223 -1.012851,1.26556 l -0.0452,0.26931 -1.455791,0.021 c -1.4133233,0.0204 -1.4630487,0.0265 -1.7045911,0.21076 -0.2846486,0.21711 -0.4494537,0.62979 -0.3792163,0.94956 0.047756,0.21745 0.4355173,0.64673 0.6565535,0.72687 0.063482,0.023 2.9818719,0.0446 6.4853089,0.0479 5.267377,0.006 6.414095,-0.0124 6.625295,-0.10068 z m -2.827129,17.26466 c -0.120929,-0.0367 -0.290183,-0.12928 -0.37612,-0.20579 -0.378524,-0.33698 -0.37333,-0.1496 -0.201434,-7.26874 0.149243,-6.1809 0.170633,-6.66544 0.306911,-6.95178 0.195924,-0.41165 0.474005,-0.59858 0.946839,-0.63648 0.468772,-0.0376 0.842388,0.17357 1.077537,0.60899 0.147965,0.27397 0.147162,0.31309 -0.142594,6.96138 -0.314298,7.21139 -0.297358,7.04253 -0.737208,7.34826 -0.246629,0.17142 -0.594712,0.22884 -0.873931,0.14416 z m -4.180274,-0.0686 c -0.18505,-0.0855 -0.371085,-0.24385 -0.437544,-0.37237 -0.162313,-0.31387 -0.193653,-1.34803 -0.243107,-8.0219 -0.04092,-5.52171 -0.03713,-5.74251 0.103132,-6.00192 0.08009,-0.14812 0.263281,-0.35031 0.407103,-0.4493 0.338004,-0.23265 0.922182,-0.20467 1.296813,0.0621 0.489256,0.34838 0.480917,0.24888 0.431517,5.14947 -0.07496,7.4364 -0.115134,9.00913 -0.236106,9.24307 -0.236042,0.45644 -0.811637,0.62666 -1.321806,0.39086 z m -4.024082,0.0148 c -0.516798,-0.26486 -0.589098,-0.47556 -0.646155,-1.88297 -0.02798,-0.69038 -0.06865,-1.63612 -0.09036,-2.10165 -0.0217,-0.46554 -0.106452,-2.47387 -0.188319,-4.46297 -0.08186,-1.98909 -0.170662,-4.07169 -0.197331,-4.628 -0.0565,-1.17865 0.02187,-1.44803 0.516498,-1.77537 0.536512,-0.35504 1.321137,-0.14725 1.614667,0.42762 0.140875,0.27589 0.152087,0.57104 0.336618,8.86128 0.100134,4.49866 0.09861,4.82631 -0.0237,5.07359 -0.256322,0.5182 -0.841772,0.73454 -1.321914,0.48847 z m 9.817845,1.01257 c 0.289294,-0.0803 0.475524,-0.19832 0.704263,-0.44647 0.376653,-0.40862 0.449129,-0.7195 0.513777,-2.20382 0.0249,-0.57134 0.18653,-3.68916 0.359216,-6.92849 0.243985,-4.57682 0.295235,-5.95928 0.229903,-6.20189 -0.116036,-0.43094 -0.372652,-0.78752 -0.765418,-1.06359 l -0.332484,-0.23371 -5.995677,-0.0206 c -5.848561,-0.0202 -6.003021,-0.0168 -6.2948443,0.13199 -0.3947785,0.20141 -0.8185058,0.7061 -0.9163076,1.09141 -0.1228621,0.48404 0.6325286,14.6221 0.8018269,15.00723 0.1848488,0.42049 0.581134,0.76435 1.006231,0.8731 0.578092,0.1479 10.154485,0.14328 10.689514,-0.006 z"
       inkscape:connector-curvature="0" />
  </g>
</svg>
