M48
;GenerationSoftware,Autodesk,EAGLE,9.5.2*%
;CreationDate,2019-12-04T00:09:50Z*%
FMAT,2
ICI,OFF
METRIC,TZ,000.000
T8C0.400
T7C0.500
T6C0.600
T5C0.610
T4C0.800
T3C1.000
T2C1.200
T1C3.300
%
G90
M71
T1
X95000Y5000
X95000Y75000
X5000Y75000
X5000Y5000
T2
X91440Y10160
X78105Y1905
X21590Y3810
X20638Y14390
X2857Y54190
X2857Y14390
X20638Y54190
T3
X57150Y8890
X59690Y8890
X62230Y8890
X64770Y8890
X67310Y8890
X69850Y8890
X72390Y8890
X36830Y34290
X39370Y34290
X41910Y34290
X44450Y34290
X46990Y34290
X49530Y34290
X52070Y34290
X54610Y34290
X57150Y34290
X59690Y34290
X62230Y34290
X64770Y34290
X67310Y34290
X69850Y34290
X72390Y34290
X32067Y72071
X21590Y69850
X89059Y71120
X62230Y68342
X52070Y8890
X49530Y8890
X46990Y8890
X44450Y8890
X41910Y8890
X39370Y8890
X36830Y8890
X14530Y62230
X8430Y62230
X11430Y57430
X96520Y40323
X96520Y35243
X96520Y32702
X96520Y50800
X96520Y48260
X96520Y45720
X96520Y43180
X71279Y76516
X73819Y76516
X76359Y76516
X78899Y76516
X81439Y76516
X83979Y76516
X86519Y76516
X89059Y76516
X96520Y37783
X48101Y76516
X50641Y76516
X53181Y76516
X55721Y76516
X58261Y76516
X60801Y76516
X63341Y76516
X65881Y76516
X68421Y76516
X96520Y56197
X96520Y53657
X69850Y68342
X54610Y8890
X45561Y76516
X40640Y59690
X40640Y62230
X40640Y57150
X40640Y54610
X40640Y64770
X40640Y67310
X40640Y69850
X27940Y59690
X27940Y62230
X27940Y57150
X27940Y54610
X27940Y64770
X27940Y67310
X27940Y69850
X27940Y52070
X35084Y76516
X37624Y76516
X40164Y76516
X42704Y76516
X96520Y16192
X96520Y13652
X96520Y11112
X96520Y21590
X96520Y19050
X88265Y50800
X88265Y48260
X88265Y45720
X88265Y43180
X40640Y52070
X96520Y26987
X96520Y24447
X24606Y76518
X27146Y76518
X29686Y76518
X32226Y76518
X45720Y54610
X45720Y57150
X45720Y59690
X45720Y62230
X45720Y64770
X45720Y67310
X96520Y69215
X96520Y66675
X96520Y64135
X96520Y61595
X96520Y59055
T4
X93027Y66675
T5
X64770Y31750
T6
X30480Y69850
X22860Y67310
X22860Y62230
X25400Y58420
X25400Y49530
X25400Y41910
X27940Y41910
X27940Y36830
X25400Y31750
X29210Y27940
X29210Y21590
X39370Y29210
X34290Y36830
X34290Y41910
X50800Y36830
X55880Y36830
X74930Y36830
X81280Y57150
X85090Y57150
X88900Y57150
X53169Y47612
X38100Y5080
X64770Y5080
X57626Y73341
X27305Y16510
X24130Y59690
X24606Y72866
X91440Y37783
X92710Y48260
X30797Y73501
X43656Y71438
X86360Y36354
X92710Y52070
X45561Y73341
X48101Y73341
X50641Y73341
X54134Y73341
X55721Y73341
X81359Y9208
X59531Y73341
X61277Y73341
X71120Y72073
X72549Y72866
X73819Y72073
X75089Y72866
X76359Y72073
X78264Y72866
X81756Y73025
X82709Y71914
X87630Y74136
X8969Y78105
X1746Y71279
X10160Y76200
X16510Y74930
X16510Y77470
X13970Y77470
X11430Y77470
X11430Y71120
X13970Y71120
X16034Y71596
X8890Y71120
X1905Y8255
X8890Y3175
X11430Y3175
X13970Y3175
X16510Y3175
X16510Y5080
X16510Y7620
X16510Y9525
X13970Y9525
X11430Y9525
X8890Y9525
X8890Y7620
X8890Y5080
X23495Y8255
X22860Y16510
X22066Y17621
X22066Y19209
X22860Y20320
X25400Y20320
X25400Y16510
X26194Y17621
X26194Y19209
X24130Y20955
X23257Y5556
X29210Y5080
X63500Y3810
X44450Y3810
X77470Y5080
X83185Y4445
X77470Y7620
X79375Y9287
X83185Y9287
X77470Y9287
X84455Y5318
X84455Y7382
X63500Y12700
X72390Y12700
X68580Y12700
X63500Y20320
X59690Y16510
X54610Y16510
X54610Y22860
X72946Y26035
X80566Y26035
X58102Y46514
X54213Y46514
X56039Y43894
X54213Y43894
X62865Y57785
X61119Y62786
X62865Y62865
X62865Y60960
X62865Y59372
X82709Y61119
X80486Y62230
X82074Y62230
X86598Y69374
X88900Y63976
X68580Y20320
X72390Y20320
X52070Y63500
X52070Y66040
X55880Y66040
X59690Y66040
X55880Y63500
X59690Y63500
X72390Y63500
X72390Y66040
X76200Y66040
X76200Y63500
X80010Y63500
X80010Y66040
X82550Y70644
X98107Y70961
X90964Y78105
X91440Y71120
X63500Y72390
X45561Y71279
T7
X62547Y47625
X87630Y55880
X33338Y49530
X39516Y47612
X72549Y47625
X33338Y68898
X33338Y55880
T8
X31274Y43021
X52070Y38100
X49530Y50800
X64611Y37465
X65405Y44450
X64770Y58420
X64770Y50800
X46990Y30480
X36195Y32385
X62230Y31750
X63500Y40084
X48260Y22860
X93504Y43180
X80169Y23654
X89535Y30480
X67310Y23654
X93504Y32702
X79375Y24606
X69850Y24606
X92551Y35243
X57944Y41275
X92551Y45720
X57229Y42545
X57150Y40164
X91281Y33655
X40640Y41910
X90170Y16510
X70168Y73343
X36036Y15557
X46990Y16510
X32226Y43974
X48260Y16510
X86360Y14287
X58420Y12700
X85408Y19685
X91757Y14287
X30321Y42069
X45720Y16510
X59690Y12700
X87630Y19685
X49530Y38100
X62230Y25082
X84931Y63897
X69374Y59372
X67628Y42466
X65405Y36513
X86043Y62389
X68580Y58420
X68580Y41672
X66040Y35560
X91440Y62389
X53181Y38100
X50482Y50006
X44132Y50800
X44450Y16510
X29369Y39529
M30