G04 EAGLE Gerber RS-274X export*
G75*
%MOMM*%
%FSLAX34Y34*%
%LPD*%
%IN*%
%IPPOS*%
%AMOC8*
5,1,8,0,0,1.08239X$1,22.5*%
G01*
%ADD10C,0.254000*%


D10*
X0Y0D02*
X1000000Y0D01*
X1000000Y800000D01*
X0Y800000D01*
X0Y0D01*
X79300Y608300D02*
X89300Y608300D01*
X89300Y636300D01*
X79300Y636300D01*
X79300Y608300D01*
X140300Y605800D02*
X150300Y605800D01*
X150300Y638800D01*
X140300Y638800D01*
X140300Y605800D01*
X100300Y569300D02*
X128300Y569300D01*
X128300Y579300D01*
X100300Y579300D01*
X100300Y569300D01*
X66500Y749460D02*
X66429Y748382D01*
X66288Y747311D01*
X66078Y746251D01*
X65798Y745208D01*
X65451Y744185D01*
X65037Y743187D01*
X64560Y742218D01*
X64019Y741282D01*
X63419Y740384D01*
X62762Y739527D01*
X62049Y738715D01*
X61285Y737951D01*
X60473Y737239D01*
X59616Y736581D01*
X58718Y735981D01*
X57782Y735441D01*
X56813Y734963D01*
X55815Y734549D01*
X54792Y734202D01*
X53749Y733922D01*
X52689Y733712D01*
X51618Y733571D01*
X50540Y733500D01*
X49460Y733500D01*
X48382Y733571D01*
X47311Y733712D01*
X46251Y733922D01*
X45208Y734202D01*
X44185Y734549D01*
X43187Y734963D01*
X42218Y735441D01*
X41282Y735981D01*
X40384Y736581D01*
X39527Y737239D01*
X38715Y737951D01*
X37951Y738715D01*
X37239Y739527D01*
X36581Y740384D01*
X35981Y741282D01*
X35441Y742218D01*
X34963Y743187D01*
X34549Y744185D01*
X34202Y745208D01*
X33922Y746251D01*
X33712Y747311D01*
X33571Y748382D01*
X33500Y749460D01*
X33500Y750540D01*
X33571Y751618D01*
X33712Y752689D01*
X33922Y753749D01*
X34202Y754792D01*
X34549Y755815D01*
X34963Y756813D01*
X35441Y757782D01*
X35981Y758718D01*
X36581Y759616D01*
X37239Y760473D01*
X37951Y761285D01*
X38715Y762049D01*
X39527Y762762D01*
X40384Y763419D01*
X41282Y764019D01*
X42218Y764560D01*
X43187Y765037D01*
X44185Y765451D01*
X45208Y765798D01*
X46251Y766078D01*
X47311Y766288D01*
X48382Y766429D01*
X49460Y766500D01*
X50540Y766500D01*
X51618Y766429D01*
X52689Y766288D01*
X53749Y766078D01*
X54792Y765798D01*
X55815Y765451D01*
X56813Y765037D01*
X57782Y764560D01*
X58718Y764019D01*
X59616Y763419D01*
X60473Y762762D01*
X61285Y762049D01*
X62049Y761285D01*
X62762Y760473D01*
X63419Y759616D01*
X64019Y758718D01*
X64560Y757782D01*
X65037Y756813D01*
X65451Y755815D01*
X65798Y754792D01*
X66078Y753749D01*
X66288Y752689D01*
X66429Y751618D01*
X66500Y750540D01*
X66500Y749460D01*
X966500Y749460D02*
X966429Y748382D01*
X966288Y747311D01*
X966078Y746251D01*
X965798Y745208D01*
X965451Y744185D01*
X965037Y743187D01*
X964560Y742218D01*
X964019Y741282D01*
X963419Y740384D01*
X962762Y739527D01*
X962049Y738715D01*
X961285Y737951D01*
X960473Y737239D01*
X959616Y736581D01*
X958718Y735981D01*
X957782Y735441D01*
X956813Y734963D01*
X955815Y734549D01*
X954792Y734202D01*
X953749Y733922D01*
X952689Y733712D01*
X951618Y733571D01*
X950540Y733500D01*
X949460Y733500D01*
X948382Y733571D01*
X947311Y733712D01*
X946251Y733922D01*
X945208Y734202D01*
X944185Y734549D01*
X943187Y734963D01*
X942218Y735441D01*
X941282Y735981D01*
X940384Y736581D01*
X939527Y737239D01*
X938715Y737951D01*
X937951Y738715D01*
X937239Y739527D01*
X936581Y740384D01*
X935981Y741282D01*
X935441Y742218D01*
X934963Y743187D01*
X934549Y744185D01*
X934202Y745208D01*
X933922Y746251D01*
X933712Y747311D01*
X933571Y748382D01*
X933500Y749460D01*
X933500Y750540D01*
X933571Y751618D01*
X933712Y752689D01*
X933922Y753749D01*
X934202Y754792D01*
X934549Y755815D01*
X934963Y756813D01*
X935441Y757782D01*
X935981Y758718D01*
X936581Y759616D01*
X937239Y760473D01*
X937951Y761285D01*
X938715Y762049D01*
X939527Y762762D01*
X940384Y763419D01*
X941282Y764019D01*
X942218Y764560D01*
X943187Y765037D01*
X944185Y765451D01*
X945208Y765798D01*
X946251Y766078D01*
X947311Y766288D01*
X948382Y766429D01*
X949460Y766500D01*
X950540Y766500D01*
X951618Y766429D01*
X952689Y766288D01*
X953749Y766078D01*
X954792Y765798D01*
X955815Y765451D01*
X956813Y765037D01*
X957782Y764560D01*
X958718Y764019D01*
X959616Y763419D01*
X960473Y762762D01*
X961285Y762049D01*
X962049Y761285D01*
X962762Y760473D01*
X963419Y759616D01*
X964019Y758718D01*
X964560Y757782D01*
X965037Y756813D01*
X965451Y755815D01*
X965798Y754792D01*
X966078Y753749D01*
X966288Y752689D01*
X966429Y751618D01*
X966500Y750540D01*
X966500Y749460D01*
X966500Y49460D02*
X966429Y48382D01*
X966288Y47311D01*
X966078Y46251D01*
X965798Y45208D01*
X965451Y44185D01*
X965037Y43187D01*
X964560Y42218D01*
X964019Y41282D01*
X963419Y40384D01*
X962762Y39527D01*
X962049Y38715D01*
X961285Y37951D01*
X960473Y37239D01*
X959616Y36581D01*
X958718Y35981D01*
X957782Y35441D01*
X956813Y34963D01*
X955815Y34549D01*
X954792Y34202D01*
X953749Y33922D01*
X952689Y33712D01*
X951618Y33571D01*
X950540Y33500D01*
X949460Y33500D01*
X948382Y33571D01*
X947311Y33712D01*
X946251Y33922D01*
X945208Y34202D01*
X944185Y34549D01*
X943187Y34963D01*
X942218Y35441D01*
X941282Y35981D01*
X940384Y36581D01*
X939527Y37239D01*
X938715Y37951D01*
X937951Y38715D01*
X937239Y39527D01*
X936581Y40384D01*
X935981Y41282D01*
X935441Y42218D01*
X934963Y43187D01*
X934549Y44185D01*
X934202Y45208D01*
X933922Y46251D01*
X933712Y47311D01*
X933571Y48382D01*
X933500Y49460D01*
X933500Y50540D01*
X933571Y51618D01*
X933712Y52689D01*
X933922Y53749D01*
X934202Y54792D01*
X934549Y55815D01*
X934963Y56813D01*
X935441Y57782D01*
X935981Y58718D01*
X936581Y59616D01*
X937239Y60473D01*
X937951Y61285D01*
X938715Y62049D01*
X939527Y62762D01*
X940384Y63419D01*
X941282Y64019D01*
X942218Y64560D01*
X943187Y65037D01*
X944185Y65451D01*
X945208Y65798D01*
X946251Y66078D01*
X947311Y66288D01*
X948382Y66429D01*
X949460Y66500D01*
X950540Y66500D01*
X951618Y66429D01*
X952689Y66288D01*
X953749Y66078D01*
X954792Y65798D01*
X955815Y65451D01*
X956813Y65037D01*
X957782Y64560D01*
X958718Y64019D01*
X959616Y63419D01*
X960473Y62762D01*
X961285Y62049D01*
X962049Y61285D01*
X962762Y60473D01*
X963419Y59616D01*
X964019Y58718D01*
X964560Y57782D01*
X965037Y56813D01*
X965451Y55815D01*
X965798Y54792D01*
X966078Y53749D01*
X966288Y52689D01*
X966429Y51618D01*
X966500Y50540D01*
X966500Y49460D01*
M02*
