G04 EAGLE Gerber RS-274X export*
G75*
%MOMM*%
%FSLAX34Y34*%
%LPD*%
%INSolderpaste Top*%
%IPPOS*%
%AMOC8*
5,1,8,0,0,1.08239X$1,22.5*%
G01*
%ADD10R,1.092200X1.397000*%
%ADD11R,0.660400X2.032000*%
%ADD12R,4.000000X2.500000*%
%ADD13R,1.397000X1.092200*%
%ADD14R,2.032000X0.660400*%
%ADD15R,1.600000X1.200000*%
%ADD16R,1.200000X1.200000*%
%ADD17R,1.400000X1.000000*%
%ADD18R,1.000000X1.400000*%
%ADD19R,0.700000X0.600000*%
%ADD20R,1.800000X2.100000*%


D10*
X393573Y155575D03*
X374777Y155575D03*
X393573Y177825D03*
X374777Y177825D03*
D11*
X509588Y602171D03*
X522288Y602171D03*
X534988Y602171D03*
X547688Y602171D03*
X560388Y602171D03*
X573088Y602171D03*
X585788Y602171D03*
X598488Y602171D03*
X598488Y702755D03*
X585788Y702755D03*
X573088Y702755D03*
X560388Y702755D03*
X547688Y702755D03*
X534988Y702755D03*
X522288Y702755D03*
X509588Y702755D03*
X611188Y602171D03*
X611188Y702755D03*
X712788Y602171D03*
X725488Y602171D03*
X738188Y602171D03*
X750888Y602171D03*
X763588Y602171D03*
X776288Y602171D03*
X788988Y602171D03*
X801688Y602171D03*
X801688Y702755D03*
X788988Y702755D03*
X776288Y702755D03*
X763588Y702755D03*
X750888Y702755D03*
X738188Y702755D03*
X725488Y702755D03*
X712788Y702755D03*
X814388Y602171D03*
X814388Y702755D03*
D12*
X884550Y63500D03*
X804550Y63500D03*
D13*
X560388Y457327D03*
X560388Y476123D03*
X273050Y47752D03*
X273050Y66548D03*
X247650Y47752D03*
X247650Y66548D03*
D12*
X205100Y736600D03*
X125100Y736600D03*
X205100Y63500D03*
X125100Y63500D03*
D14*
X605346Y577850D03*
X605346Y565150D03*
X605346Y552450D03*
X605346Y539750D03*
X605346Y527050D03*
X605346Y514350D03*
X605346Y501650D03*
X605346Y488950D03*
X705930Y488950D03*
X705930Y501650D03*
X705930Y514350D03*
X705930Y527050D03*
X705930Y539750D03*
X705930Y552450D03*
X705930Y565150D03*
X705930Y577850D03*
X705930Y476250D03*
X705930Y463550D03*
X705930Y425450D03*
X705930Y412750D03*
X605346Y476250D03*
X605346Y463550D03*
X605346Y425450D03*
X605346Y412750D03*
X605346Y450850D03*
X605346Y438150D03*
X705930Y450850D03*
X705930Y438150D03*
D13*
X876300Y230061D03*
X876300Y211265D03*
X898525Y230061D03*
X898525Y211265D03*
D10*
X879602Y142875D03*
X898398Y142875D03*
D13*
X863600Y396748D03*
X863600Y377952D03*
X889000Y396748D03*
X889000Y377952D03*
D10*
X47498Y101600D03*
X28702Y101600D03*
X314452Y673100D03*
X333248Y673100D03*
X314452Y647700D03*
X333248Y647700D03*
X314452Y622300D03*
X333248Y622300D03*
D13*
X831850Y230061D03*
X831850Y211265D03*
X854075Y230061D03*
X854075Y211265D03*
D15*
X903300Y180975D03*
X823900Y180975D03*
D10*
X393573Y323850D03*
X374777Y323850D03*
D16*
X444500Y380025D03*
X444500Y401025D03*
D13*
X469900Y399923D03*
X469900Y381127D03*
D17*
X912700Y666750D03*
X890700Y657250D03*
X890700Y676250D03*
D10*
X868236Y652463D03*
X849440Y652463D03*
D13*
X893763Y603377D03*
X893763Y622173D03*
X874713Y603377D03*
X874713Y622173D03*
D10*
X476123Y482600D03*
X457327Y482600D03*
X476123Y508000D03*
X457327Y508000D03*
X657098Y231775D03*
X638302Y231775D03*
X657098Y250825D03*
X638302Y250825D03*
X868236Y676275D03*
X849440Y676275D03*
D18*
X673100Y722200D03*
X682600Y700200D03*
X663600Y700200D03*
D13*
X647700Y631698D03*
X647700Y612902D03*
D10*
X682498Y673100D03*
X663702Y673100D03*
D18*
X673100Y652350D03*
X682600Y630350D03*
X663600Y630350D03*
D19*
X890950Y358925D03*
X890950Y345925D03*
X912450Y352425D03*
X890950Y330350D03*
X890950Y317350D03*
X912450Y323850D03*
D20*
X241300Y184600D03*
X241300Y145600D03*
M02*
