<?xml version="1.0" encoding="UTF-8" standalone="no"?>
<svg
   id="Capa_1"
   enable-background="new 0 0 512 512"
   height="64"
   viewBox="0 0 64 64"
   width="64"
   version="1.1"
   sodipodi:docname="ice.svg"
   inkscape:version="1.1 (c68e22c387, 2021-05-23)"
   inkscape:export-filename="C:\Users\Alakazam\Documents\Git\BarBot4\python\barbotgui\asset\ice.png"
   inkscape:export-xdpi="96"
   inkscape:export-ydpi="96"
   xmlns:inkscape="http://www.inkscape.org/namespaces/inkscape"
   xmlns:sodipodi="http://sodipodi.sourceforge.net/DTD/sodipodi-0.dtd"
   xmlns="http://www.w3.org/2000/svg"
   xmlns:svg="http://www.w3.org/2000/svg"
   xmlns:rdf="http://www.w3.org/1999/02/22-rdf-syntax-ns#"
   xmlns:cc="http://creativecommons.org/ns#"
   xmlns:dc="http://purl.org/dc/elements/1.1/">
  <metadata
     id="metadata33">
    <rdf:RDF>
      <cc:Work
         rdf:about="">
        <dc:format>image/svg+xml</dc:format>
        <dc:type
           rdf:resource="http://purl.org/dc/dcmitype/StillImage" />
      </cc:Work>
    </rdf:RDF>
  </metadata>
  <defs
     id="defs31" />
  <sodipodi:namedview
     pagecolor="#ffffff"
     bordercolor="#666666"
     borderopacity="1"
     objecttolerance="10"
     gridtolerance="10"
     guidetolerance="10"
     inkscape:pageopacity="0"
     inkscape:pageshadow="2"
     inkscape:window-width="1680"
     inkscape:window-height="987"
     id="namedview29"
     showgrid="false"
     inkscape:zoom="5.2149125"
     inkscape:cx="46.50126"
     inkscape:cy="44.77544"
     inkscape:window-x="-8"
     inkscape:window-y="24"
     inkscape:window-maximized="1"
     inkscape:current-layer="g26"
     inkscape:pagecheckerboard="1" />
  <g
     id="g26"
     transform="matrix(0.125,0,0,0.12510517,0,0.7991136)">
    <path
       d="m 159.451,305.658 c -4.142,0 -7.5,3.358 -7.5,7.5 v 19.666 c 0,4.142 3.358,7.5 7.5,7.5 4.142,0 7.5,-3.358 7.5,-7.5 v -19.666 c 0,-4.142 -3.358,-7.5 -7.5,-7.5 z"
       id="path14"
       inkscape:connector-curvature="0" />
    <path
       d="m 166.951,207.636 108.416,-62.594 c 3.587,-2.071 4.816,-6.658 2.745,-10.245 -2.07,-3.587 -6.659,-4.816 -10.245,-2.745 L 159.451,194.646 51.036,132.052 c -3.587,-2.072 -8.174,-0.842 -10.245,2.745 -2.071,3.587 -0.842,8.174 2.745,10.245 l 108.415,62.594 v 70.521 c 0,4.142 3.358,7.5 7.5,7.5 4.142,0 7.5,-3.358 7.5,-7.5 z"
       id="path16"
       inkscape:connector-curvature="0" />
    <path
       d="m 335.147,243.214 42.891,-24.763 c 3.587,-2.071 4.816,-6.658 2.745,-10.245 -2.07,-3.587 -6.66,-4.816 -10.245,-2.745 l -42.891,24.763 c -3.587,2.071 -4.816,6.658 -2.745,10.245 2.081,3.604 6.676,4.807 10.245,2.745 z"
       id="path18"
       inkscape:connector-curvature="0" />
    <path
       d="m 374.287,451.933 c 4.143,0 7.5,-3.358 7.5,-7.5 V 337.775 l 92.369,-53.33 c 3.587,-2.071 4.816,-6.658 2.745,-10.245 -2.071,-3.588 -6.66,-4.816 -10.245,-2.745 l -92.369,53.33 -92.368,-53.329 c -3.589,-2.072 -8.176,-0.843 -10.245,2.745 -2.071,3.587 -0.842,8.174 2.745,10.245 l 92.368,53.329 v 106.658 c 0,4.142 3.358,7.5 7.5,7.5 z"
       id="path20"
       inkscape:connector-curvature="0" />
    <path
       d="m 11.661,302.098 136.129,78.594 c 7.19,4.152 16.128,4.153 23.322,0 l 65.463,-37.795 v 57.898 c 0,7.5 4.034,14.487 10.529,18.237 l 116.655,67.351 c 6.494,3.75 14.563,3.75 21.058,0 l 116.654,-67.35 C 507.965,415.283 512,408.295 512,400.796 v -50.627 c 0,-4.142 -3.357,-7.5 -7.5,-7.5 -4.143,0 -7.5,3.358 -7.5,7.5 v 50.627 c 0,2.158 -1.16,4.168 -3.029,5.247 l -116.654,67.351 c -1.87,1.079 -4.189,1.078 -6.058,0 L 254.604,406.043 c -1.868,-1.079 -3.029,-3.089 -3.029,-5.247 0,-17.382 0,-99.733 0,-134.701 0,-2.158 1.161,-4.168 3.029,-5.247 20.729,-11.968 79.876,-46.116 116.656,-67.351 1.867,-1.079 4.188,-1.078 6.057,0 l 116.654,67.351 c 1.869,1.078 3.029,3.089 3.029,5.246 v 49.074 c 0,4.142 3.357,7.5 7.5,7.5 4.143,0 7.5,-3.358 7.5,-7.5 v -49.074 c 0,-7.5 -4.035,-14.488 -10.529,-18.237 l -116.653,-67.35 c -6.495,-3.751 -14.563,-3.751 -21.059,0 l -44.856,25.898 v -81.694 c 0,-8.305 -4.468,-16.044 -11.661,-20.197 L 171.112,25.92 c -7.192,-4.153 -16.129,-4.152 -23.321,0 l -28.366,16.377 c -3.587,2.071 -4.816,6.658 -2.745,10.245 2.072,3.588 6.659,4.817 10.245,2.745 L 155.291,38.91 c 2.567,-1.481 5.756,-1.481 8.322,0 l 136.129,78.594 c 2.566,1.482 4.161,4.244 4.161,7.207 v 90.354 l -56.798,32.792 c -6.495,3.75 -10.529,10.737 -10.529,18.237 v 59.482 l -72.963,42.125 c -2.565,1.481 -5.754,1.482 -8.322,0 L 19.161,289.107 C 16.595,287.625 15,284.864 15,281.9 V 124.711 c 0,-2.963 1.595,-5.725 4.161,-7.207 L 96.382,72.921 C 99.969,70.85 101.198,66.263 99.127,62.676 97.056,59.088 92.469,57.86 88.882,59.931 L 11.66,104.514 C 4.468,108.667 0,116.406 0,124.711 V 281.9 c 0,8.306 4.468,16.044 11.661,20.198 z"
       id="path22"
       inkscape:connector-curvature="0" />
    <path
       d="m 57.52,115.566 c 2.077,3.598 6.668,4.811 10.245,2.745 L 112.17,92.674 c 3.587,-2.071 4.816,-6.658 2.745,-10.245 -2.071,-3.588 -6.658,-4.817 -10.245,-2.745 l -44.405,25.637 c -3.588,2.071 -4.817,6.657 -2.745,10.245 z"
       id="path24"
       inkscape:connector-curvature="0" />
  </g>
</svg>
