<?xml version="1.0" encoding="UTF-8" standalone="no"?>
<!-- Generator: Adobe Illustrator 19.0.0, SVG Export Plug-In . SVG Version: 6.00 Build 0)  -->

<svg
   xmlns:dc="http://purl.org/dc/elements/1.1/"
   xmlns:cc="http://creativecommons.org/ns#"
   xmlns:rdf="http://www.w3.org/1999/02/22-rdf-syntax-ns#"
   xmlns:svg="http://www.w3.org/2000/svg"
   xmlns="http://www.w3.org/2000/svg"
   xmlns:sodipodi="http://sodipodi.sourceforge.net/DTD/sodipodi-0.dtd"
   xmlns:inkscape="http://www.inkscape.org/namespaces/inkscape"
   version="1.1"
   id="Capa_1"
   x="0px"
   y="0px"
   viewBox="0 0 16 16"
   xml:space="preserve"
   sodipodi:docname="processing.svg"
   width="16"
   height="16"
   inkscape:version="0.92.4 (5da689c313, 2019-01-14)"><metadata
   id="metadata49"><rdf:RDF><cc:Work
       rdf:about=""><dc:format>image/svg+xml</dc:format><dc:type
         rdf:resource="http://purl.org/dc/dcmitype/StillImage" /><dc:title></dc:title></cc:Work></rdf:RDF></metadata><defs
   id="defs47" /><sodipodi:namedview
   pagecolor="#ffffff"
   bordercolor="#666666"
   borderopacity="1"
   objecttolerance="10"
   gridtolerance="10"
   guidetolerance="10"
   inkscape:pageopacity="0"
   inkscape:pageshadow="2"
   inkscape:window-width="1680"
   inkscape:window-height="987"
   id="namedview45"
   showgrid="false"
   inkscape:zoom="22.250293"
   inkscape:cx="13.755008"
   inkscape:cy="13.419918"
   inkscape:window-x="-8"
   inkscape:window-y="24"
   inkscape:window-maximized="1"
   inkscape:current-layer="Capa_1" />
<g
   id="g6"
   transform="matrix(0.0314083,0,0,0.0314083,0.35954582,0.52786722)"
   style="fill:#cccccc;fill-opacity:1">
	<g
   id="g4"
   style="fill:#cccccc;fill-opacity:1">
		<path
   d="m 461.248,194.736 -128,-128 c -24.928,-24.96 -65.568,-24.96 -90.496,0 C 230.656,78.8 224,94.896 224,111.984 c 0,17.088 6.656,33.184 18.752,45.248 l 82.752,82.752 -82.752,82.752 C 230.656,334.832 224,350.896 224,367.984 c 0,17.088 6.656,33.152 18.752,45.248 12.096,12.096 28.16,18.752 45.248,18.752 17.088,0 33.152,-6.656 45.248,-18.752 l 128,-128 C 473.344,273.168 480,257.072 480,239.984 480,222.896 473.344,206.8 461.248,194.736 Z m -22.624,67.872 -128,128 c -12.128,12.096 -33.12,12.096 -45.248,0 -12.48,-12.48 -12.48,-32.768 0,-45.248 L 370.752,239.984 265.376,134.608 C 259.328,128.56 256,120.528 256,111.984 c 0,-8.544 3.328,-16.576 9.376,-22.624 6.24,-6.24 14.432,-9.376 22.624,-9.376 8.192,0 16.384,3.136 22.624,9.344 l 128,128 c 6.048,6.08 9.376,14.112 9.376,22.656 0,8.544 -3.328,16.576 -9.376,22.624 z"
   id="path2"
   inkscape:connector-curvature="0"
   style="fill:#cccccc;fill-opacity:1" />
	</g>
</g>
<g
   id="g12"
   transform="matrix(0.0314083,0,0,0.0314083,0.35954582,0.52786722)"
   style="fill:#cccccc;fill-opacity:1">
	<g
   id="g10"
   style="fill:#cccccc;fill-opacity:1">
		<path
   d="m 237.248,194.736 -128,-128 C 84.32,41.776 43.68,41.776 18.752,66.736 6.656,78.8 0,94.896 0,111.984 c 0,17.088 6.656,33.184 18.752,45.248 l 82.752,82.752 -82.752,82.752 C 6.656,334.832 0,350.896 0,367.984 c 0,17.088 6.656,33.152 18.752,45.248 12.096,12.096 28.16,18.752 45.248,18.752 17.088,0 33.152,-6.656 45.248,-18.752 l 128,-128 C 249.344,273.168 256,257.072 256,239.984 256,222.896 249.344,206.8 237.248,194.736 Z m -22.624,67.872 -128,128 c -12.128,12.096 -33.12,12.096 -45.248,0 -12.48,-12.48 -12.48,-32.768 0,-45.248 L 146.752,239.984 41.376,134.608 C 35.328,128.56 32,120.528 32,111.984 32,103.44 35.328,95.408 41.376,89.36 47.616,83.12 55.808,79.984 64,79.984 c 8.192,0 16.384,3.136 22.624,9.344 l 128,128 c 6.048,6.08 9.376,14.112 9.376,22.656 0,8.544 -3.328,16.576 -9.376,22.624 z"
   id="path8"
   inkscape:connector-curvature="0"
   style="fill:#cccccc;fill-opacity:1" />
	</g>
</g>
<g
   id="g14"
   transform="translate(0,-464)">
</g>
<g
   id="g16"
   transform="translate(0,-464)">
</g>
<g
   id="g18"
   transform="translate(0,-464)">
</g>
<g
   id="g20"
   transform="translate(0,-464)">
</g>
<g
   id="g22"
   transform="translate(0,-464)">
</g>
<g
   id="g24"
   transform="translate(0,-464)">
</g>
<g
   id="g26"
   transform="translate(0,-464)">
</g>
<g
   id="g28"
   transform="translate(0,-464)">
</g>
<g
   id="g30"
   transform="translate(0,-464)">
</g>
<g
   id="g32"
   transform="translate(0,-464)">
</g>
<g
   id="g34"
   transform="translate(0,-464)">
</g>
<g
   id="g36"
   transform="translate(0,-464)">
</g>
<g
   id="g38"
   transform="translate(0,-464)">
</g>
<g
   id="g40"
   transform="translate(0,-464)">
</g>
<g
   id="g42"
   transform="translate(0,-464)">
</g>
</svg>