<?xml version="1.0" encoding="UTF-8" standalone="no"?>
<!-- Generator: Adobe Illustrator 19.0.0, SVG Export Plug-In . SVG Version: 6.00 Build 0)  -->

<svg
   xmlns:dc="http://purl.org/dc/elements/1.1/"
   xmlns:cc="http://creativecommons.org/ns#"
   xmlns:rdf="http://www.w3.org/1999/02/22-rdf-syntax-ns#"
   xmlns:svg="http://www.w3.org/2000/svg"
   xmlns="http://www.w3.org/2000/svg"
   xmlns:sodipodi="http://sodipodi.sourceforge.net/DTD/sodipodi-0.dtd"
   xmlns:inkscape="http://www.inkscape.org/namespaces/inkscape"
   version="1.1"
   id="Capa_1"
   x="0px"
   y="0px"
   viewBox="0 0 16 16"
   xml:space="preserve"
   sodipodi:docname="processing.svg"
   width="16"
   height="16"
   inkscape:version="0.92.4 (5da689c313, 2019-01-14)"
   inkscape:export-filename="C:\Users\Alakazam\Documents\Git\BarBot4\python\barbotgui\asset\processing.png"
   inkscape:export-xdpi="96"
   inkscape:export-ydpi="96"><metadata
   id="metadata49"><rdf:RDF><cc:Work
       rdf:about=""><dc:format>image/svg+xml</dc:format><dc:type
         rdf:resource="http://purl.org/dc/dcmitype/StillImage" /><dc:title /></cc:Work></rdf:RDF></metadata><defs
   id="defs47">
	

	
















		
	
		
	</defs><sodipodi:namedview
   pagecolor="#ffffff"
   bordercolor="#666666"
   borderopacity="1"
   objecttolerance="10"
   gridtolerance="10"
   guidetolerance="10"
   inkscape:pageopacity="0"
   inkscape:pageshadow="2"
   inkscape:window-width="1680"
   inkscape:window-height="987"
   id="namedview45"
   showgrid="false"
   inkscape:zoom="22.250293"
   inkscape:cx="2.2045983"
   inkscape:cy="13.419918"
   inkscape:window-x="-8"
   inkscape:window-y="24"
   inkscape:window-maximized="1"
   inkscape:current-layer="Capa_1" />

<g
   id="g840"><path
     style="fill:#cccccc;fill-opacity:1;stroke-width:0.0314083"
     inkscape:connector-curvature="0"
     id="path2"
     d="M 14.846561,6.6441939 10.826299,2.6239315 c -0.782946,-0.7839511 -2.0593794,-0.7839511 -2.8423255,0 C 7.6040587,3.0028413 7.395005,3.5083893 7.395005,4.0450943 c 0,0.536705 0.2090537,1.042253 0.5889685,1.4211627 L 10.583073,8.0653567 7.9839735,10.664456 c -0.3799148,0.379915 -0.5889685,0.884458 -0.5889685,1.421163 0,0.536705 0.2090537,1.041248 0.5889685,1.421163 0.3799148,0.379915 0.8844577,0.588968 1.4211627,0.588968 0.5367051,0 1.0412478,-0.209053 1.4211628,-0.588968 l 4.020262,-4.0202626 c 0.379915,-0.3789097 0.588969,-0.8844577 0.588969,-1.4211627 0,-0.536705 -0.209054,-1.042253 -0.588969,-1.4211628 z M 14.13598,8.7759381 10.115718,12.7962 c -0.3809203,0.379915 -1.0402433,0.379915 -1.4211632,0 -0.3919755,-0.391975 -0.3919755,-1.029187 0,-1.421162 L 12.004236,8.0653567 8.6945548,4.7556757 C 8.5045974,4.5657183 8.4000706,4.3134468 8.4000706,4.0450943 c 0,-0.2683525 0.1045268,-0.520624 0.2944842,-0.7105814 0.1959878,-0.1959878 0.4532846,-0.2944842 0.7105814,-0.2944842 0.2572968,0 0.5145936,0.098496 0.7105818,0.2934791 l 4.020262,4.0202624 c 0.189957,0.1909625 0.294484,0.443234 0.294484,0.7115865 0,0.2683525 -0.104527,0.520624 -0.294484,0.7105814 z" /><path
     style="fill:#cccccc;fill-opacity:1;stroke-width:0.0314083"
     inkscape:connector-curvature="0"
     id="path8"
     d="M 7.8111022,6.6441939 3.7908398,2.6239315 c -0.7829461,-0.7839511 -2.0593794,-0.7839511 -2.84232554,0 -0.3799148,0.3789098 -0.58896844,0.8844578 -0.58896844,1.4211628 0,0.536705 0.20905364,1.042253 0.58896844,1.4211627 L 3.5476139,8.0653567 0.94851426,10.664456 c -0.3799148,0.379915 -0.58896844,0.884458 -0.58896844,1.421163 0,0.536705 0.20905364,1.041248 0.58896844,1.421163 0.37991484,0.379915 0.88445774,0.588968 1.42116274,0.588968 0.5367051,0 1.041248,-0.209053 1.4211628,-0.588968 L 7.8111022,9.4865194 C 8.191017,9.1076097 8.4000706,8.6020617 8.4000706,8.0653567 c 0,-0.536705 -0.2090536,-1.042253 -0.5889684,-1.4211628 z M 7.1005208,8.7759381 3.0802584,12.7962 c -0.3809199,0.379915 -1.0402429,0.379915 -1.4211628,0 -0.3919755,-0.391975 -0.3919755,-1.029187 0,-1.421162 L 4.9687767,8.0653567 1.6590956,4.7556757 C 1.4691382,4.5657183 1.3646114,4.3134468 1.3646114,4.0450943 c 0,-0.2683525 0.1045268,-0.520624 0.2944842,-0.7105814 0.1959878,-0.1959878 0.4532846,-0.2944842 0.7105814,-0.2944842 0.2572968,0 0.5145936,0.098496 0.7105814,0.2934791 l 4.0202624,4.0202624 c 0.1899574,0.1909625 0.2944842,0.443234 0.2944842,0.7115865 0,0.2683525 -0.1045268,0.520624 -0.2944842,0.7105814 z" /></g>















</svg>