<?xml version="1.0" encoding="UTF-8" standalone="no"?>
<svg
   xmlns:dc="http://purl.org/dc/elements/1.1/"
   xmlns:cc="http://creativecommons.org/ns#"
   xmlns:rdf="http://www.w3.org/1999/02/22-rdf-syntax-ns#"
   xmlns:svg="http://www.w3.org/2000/svg"
   xmlns="http://www.w3.org/2000/svg"
   xmlns:sodipodi="http://sodipodi.sourceforge.net/DTD/sodipodi-0.dtd"
   xmlns:inkscape="http://www.inkscape.org/namespaces/inkscape"
   version="1.1"
   viewBox="0 0 64.000001 64.000001"
   enable-background="new 0 0 310.193 310.193"
   id="svg10"
   sodipodi:docname="stir.svg"
   width="64"
   height="64"
   inkscape:version="0.92.4 (5da689c313, 2019-01-14)"
   inkscape:export-filename="C:\Users\Alakazam\Documents\Git\BarBot4\python\barbotgui\asset\stir.png"
   inkscape:export-xdpi="96"
   inkscape:export-ydpi="96">
  <metadata
     id="metadata16">
    <rdf:RDF>
      <cc:Work
         rdf:about="">
        <dc:format>image/svg+xml</dc:format>
        <dc:type
           rdf:resource="http://purl.org/dc/dcmitype/StillImage" />
        <dc:title></dc:title>
      </cc:Work>
    </rdf:RDF>
  </metadata>
  <defs
     id="defs14" />
  <sodipodi:namedview
     pagecolor="#ffffff"
     bordercolor="#666666"
     borderopacity="1"
     objecttolerance="10"
     gridtolerance="10"
     guidetolerance="10"
     inkscape:pageopacity="0"
     inkscape:pageshadow="2"
     inkscape:window-width="1920"
     inkscape:window-height="1017"
     id="namedview12"
     showgrid="false"
     inkscape:zoom="3.0432667"
     inkscape:cx="-45.468821"
     inkscape:cy="39.330715"
     inkscape:window-x="1672"
     inkscape:window-y="-8"
     inkscape:window-maximized="1"
     inkscape:current-layer="g8" />
  <g
     id="g8"
     transform="matrix(0.20632285,0,0,0.20632285,1.266165e-4,0.0867184)">
    <path
       d="M 184.69869,142.22915 281.644,53.791 c 11.184,-10.076 11.007,-27.41 0,-37.28 -10.295,-9.232 -26.124,-8.37 -35.355,1.925 l -87.67331,97.58115 c 6.97516,10.07708 15.27031,18.66777 26.083,26.212 z"
       id="path2"
       inkscape:connector-curvature="0"
       sodipodi:nodetypes="cccccc" />
    <path
       d="M 124.00061,155.18231 96.662,185.292 c -19.67,-9.527 -47.418,-3.252 -67.636,16.966 -24.218,24.218 -39.478,70.278 -20.481,89.276 18.997,18.997 65.058,3.737 89.276,-20.481 20.218,-20.218 26.493,-47.965 16.966,-67.636 l 29.51861,-27.87669 c -6.967,-6.239 -13.704,-12.949 -20.305,-20.358 z"
       id="path4"
       inkscape:connector-curvature="0"
       sodipodi:nodetypes="ccscsccc" />
    <path
       d="m 308.549,136.511 -30.136,-28.745 c -1.143,-1.09 -2.711,-1.614 -4.28,-1.43 -1.568,0.184 -2.973,1.057 -3.833,2.381 l -22.671,34.935 c -1.119,1.725 -1.141,3.941 -0.056,5.688 1.085,1.747 3.082,2.709 5.124,2.47 l 14.115,-1.655 c 1.111,6.301 1.194,11.956 0.255,16.713 -4.218,21.366 -28.784,18.923 -48.659,11.343 C 166.409,158.376 117.525,96.48 117.038,57.139 c -0.084,-6.814 -5.63,-12.346 -12.496,-12.346 -0.052,0 -0.104,0 -0.157,10e-4 -6.903,0.085 -12.43,5.751 -12.345,12.653 0.667,53.937 62.326,126.325 123.602,146.206 34.25,11.112 66.72,3.58 75.171,-28.573 0.068,-0.259 0.143,-0.514 0.208,-0.776 0.01,-0.04 0.017,-0.081 0.027,-0.12 1.959,-8.032 2.17,-17.12 0.614,-26.943 l 13.843,-1.623 c 2.042,-0.239 3.763,-1.637 4.414,-3.588 0.652,-1.948 0.118,-4.1 -1.37,-5.519 z"
       id="path6"
       inkscape:connector-curvature="0" />
  </g>
</svg>
